<svg width="121" height="46" viewBox="0 0 121 46" fill="none" xmlns="http://www.w3.org/2000/svg">
<rect width="121" height="46" fill="#121212"/>
<path d="M22.364 30.144C21.44 30.144 20.636 30 19.952 29.712C19.28 29.424 18.758 29.016 18.386 28.488C18.026 27.96 17.846 27.342 17.846 26.634V26.112C17.846 25.992 17.906 25.932 18.026 25.932H19.34C19.46 25.932 19.52 25.992 19.52 26.112V26.544C19.52 27.156 19.784 27.66 20.312 28.056C20.84 28.452 21.566 28.65 22.49 28.65C23.318 28.65 23.942 28.476 24.362 28.128C24.782 27.78 24.992 27.324 24.992 26.76C24.992 26.388 24.884 26.07 24.668 25.806C24.452 25.542 24.134 25.302 23.714 25.086C23.306 24.858 22.706 24.588 21.914 24.276C21.038 23.94 20.342 23.634 19.826 23.358C19.322 23.082 18.902 22.722 18.566 22.278C18.23 21.822 18.062 21.252 18.062 20.568C18.062 19.536 18.428 18.726 19.16 18.138C19.904 17.55 20.906 17.256 22.166 17.256C23.054 17.256 23.834 17.406 24.506 17.706C25.178 18.006 25.694 18.426 26.054 18.966C26.426 19.506 26.612 20.13 26.612 20.838V21.198C26.612 21.318 26.552 21.378 26.432 21.378H25.082C24.962 21.378 24.902 21.318 24.902 21.198V20.928C24.902 20.304 24.65 19.788 24.146 19.38C23.654 18.96 22.97 18.75 22.094 18.75C21.35 18.75 20.774 18.906 20.366 19.218C19.958 19.518 19.754 19.956 19.754 20.532C19.754 20.928 19.856 21.252 20.06 21.504C20.264 21.756 20.564 21.984 20.96 22.188C21.368 22.38 21.986 22.632 22.814 22.944C23.666 23.28 24.356 23.592 24.884 23.88C25.412 24.156 25.85 24.528 26.198 24.996C26.546 25.452 26.72 26.022 26.72 26.706C26.72 27.762 26.33 28.602 25.55 29.226C24.782 29.838 23.72 30.144 22.364 30.144ZM36.06 17.58C36.06 17.46 36.12 17.4 36.24 17.4H37.608C37.728 17.4 37.788 17.46 37.788 17.58V29.82C37.788 29.94 37.728 30 37.608 30H36.24C36.12 30 36.06 29.94 36.06 29.82V24.474C36.06 24.426 36.036 24.402 35.988 24.402H30.858C30.81 24.402 30.786 24.426 30.786 24.474V29.82C30.786 29.94 30.726 30 30.606 30H29.238C29.118 30 29.058 29.94 29.058 29.82V17.58C29.058 17.46 29.118 17.4 29.238 17.4H30.606C30.726 17.4 30.786 17.46 30.786 17.58V22.836C30.786 22.884 30.81 22.908 30.858 22.908H35.988C36.036 22.908 36.06 22.884 36.06 22.836V17.58ZM48.4151 30C48.3071 30 48.2351 29.952 48.1991 29.856L47.5511 27.75C47.5391 27.714 47.5151 27.696 47.4791 27.696H42.4211C42.3851 27.696 42.3611 27.714 42.3491 27.75L41.7011 29.856C41.6651 29.952 41.5931 30 41.4851 30H40.0271C39.8951 30 39.8471 29.934 39.8831 29.802L43.8251 17.544C43.8611 17.448 43.9331 17.4 44.0411 17.4H45.8411C45.9491 17.4 46.0211 17.448 46.0571 17.544L50.0351 29.802L50.0531 29.874C50.0531 29.958 49.9991 30 49.8911 30H48.4151ZM42.7991 26.238C42.7871 26.262 42.7871 26.286 42.7991 26.31C42.8231 26.322 42.8471 26.328 42.8711 26.328H47.0111C47.0351 26.328 47.0531 26.322 47.0651 26.31C47.0891 26.286 47.0951 26.262 47.0831 26.238L44.9951 19.56C44.9831 19.536 44.9651 19.524 44.9411 19.524C44.9171 19.524 44.8991 19.536 44.8871 19.56L42.7991 26.238ZM59.285 30C59.189 30 59.123 29.958 59.087 29.874L56.567 24.492C56.555 24.456 56.531 24.438 56.495 24.438H53.903C53.855 24.438 53.831 24.462 53.831 24.51V29.82C53.831 29.94 53.771 30 53.651 30H52.283C52.163 30 52.103 29.94 52.103 29.82V17.58C52.103 17.46 52.163 17.4 52.283 17.4H57.125C57.845 17.4 58.475 17.55 59.015 17.85C59.567 18.15 59.993 18.57 60.293 19.11C60.593 19.65 60.743 20.274 60.743 20.982C60.743 21.822 60.521 22.536 60.077 23.124C59.645 23.7 59.039 24.09 58.259 24.294C58.211 24.318 58.199 24.348 58.223 24.384L60.833 29.784C60.845 29.808 60.851 29.838 60.851 29.874C60.851 29.958 60.803 30 60.707 30H59.285ZM53.903 18.894C53.855 18.894 53.831 18.918 53.831 18.966V22.998C53.831 23.046 53.855 23.07 53.903 23.07H56.909C57.545 23.07 58.055 22.884 58.439 22.512C58.823 22.128 59.015 21.624 59.015 21C59.015 20.364 58.823 19.854 58.439 19.47C58.055 19.086 57.545 18.894 56.909 18.894H53.903ZM71.512 18.714C71.512 18.834 71.452 18.894 71.332 18.894H64.942C64.894 18.894 64.87 18.918 64.87 18.966V22.836C64.87 22.884 64.894 22.908 64.942 22.908H69.334C69.454 22.908 69.514 22.968 69.514 23.088V24.222C69.514 24.342 69.454 24.402 69.334 24.402H64.942C64.894 24.402 64.87 24.426 64.87 24.474V28.434C64.87 28.482 64.894 28.506 64.942 28.506H71.332C71.452 28.506 71.512 28.566 71.512 28.686V29.82C71.512 29.94 71.452 30 71.332 30H63.322C63.202 30 63.142 29.94 63.142 29.82V17.58C63.142 17.46 63.202 17.4 63.322 17.4H71.332C71.452 17.4 71.512 17.46 71.512 17.58V18.714Z" fill="#6B6863"/>
<g clip-path="url(#clip0)">
<path fill-rule="evenodd" clip-rule="evenodd" d="M100 25V23H99C94.5 23 93 26 93 26C93 26 93.019 22.137 95.5 20.5C97.8904 18.9228 100 19 100 19V17L106 21L100 25ZM87 29H98V26L99 25V30H86V16H99L98 17H87V29Z" fill="#6B6863"/>
</g>
<defs>
<clipPath id="clip0">
<rect width="20" height="14" fill="white" transform="translate(86 16)"/>
</clipPath>
</defs>
</svg>
