<svg width="280" height="280" viewBox="0 0 280 280" fill="none" xmlns="http://www.w3.org/2000/svg">
<g clip-path="url(#clip0)">
<path d="M280 164.138V197.931H246.207V173.793L265.517 168.965L255.862 144.828H260.69C271.354 144.828 280 153.474 280 164.138Z" fill="#ACABB1"/>
<path d="M255.862 144.828L265.517 168.965L246.207 173.793L255.862 144.828Z" fill="#787680"/>
<path d="M236.552 144.828L246.207 173.793L226.896 168.965L236.552 144.828Z" fill="#787680"/>
<path d="M226.897 168.965L246.207 173.793V197.931H212.414V164.138C212.414 153.474 221.06 144.828 231.724 144.828H236.552L226.897 168.965Z" fill="#898890"/>
<path d="M43.4483 144.828L53.1034 168.965L33.7931 173.793L43.4483 144.828Z" fill="#009986"/>
<path d="M24.138 144.828L33.7931 173.793L14.4828 168.965L24.138 144.828Z" fill="#009986"/>
<path d="M67.5862 164.138V197.931H33.7931V173.793L53.1034 168.965L43.4483 144.828H48.2758C58.9399 144.828 67.5862 153.474 67.5862 164.138Z" fill="#00B39D"/>
<path d="M14.4828 168.965L33.7931 173.793V197.931H0V164.138C0 153.474 8.64628 144.828 19.3103 144.828H24.1379L14.4828 168.965Z" fill="#00CCB3"/>
<path d="M173.793 246.207V280H140V255.862L159.31 251.034L149.655 226.897H154.483C165.147 226.897 173.793 235.543 173.793 246.207Z" fill="#5AAAE7"/>
<path d="M149.655 226.897L159.31 251.034L140 255.862L149.655 226.897Z" fill="#1E81CE"/>
<path d="M130.345 226.897L140 255.862L120.69 251.034L130.345 226.897Z" fill="#1E81CE"/>
<path d="M120.69 251.034L140 255.862V280H106.207V246.207C106.207 235.543 114.853 226.897 125.517 226.897H130.345L120.69 251.034Z" fill="#3D9AE2"/>
<path d="M255.862 144.828L246.207 173.793L236.552 144.828H255.862Z" fill="#FFDAAA"/>
<path d="M251.034 96.5517C255.145 100.535 260.07 103.581 265.47 105.483C265.51 105.721 265.524 105.964 265.517 106.207V115.862C265.517 126.526 256.871 135.172 246.207 135.172C235.543 135.172 226.897 126.526 226.897 115.862V106.207C226.889 105.867 226.904 105.53 226.946 105.193V105.146C234.235 103.456 247.558 100.029 251.034 96.5517Z" fill="#FFDAAA"/>
<path d="M149.655 226.897L140 255.862L130.345 226.897H149.655Z" fill="#FFDAAA"/>
<path d="M144.828 178.621C148.939 182.604 153.863 185.65 159.263 187.552C159.303 187.79 159.317 188.033 159.31 188.276V197.931C159.31 208.595 150.664 217.241 140 217.241C129.336 217.241 120.69 208.595 120.69 197.931V188.276C120.683 187.936 120.697 187.599 120.739 187.262V187.215C128.028 185.525 141.351 182.098 144.828 178.621V178.621Z" fill="#FFDAAA"/>
<path d="M43.4483 144.828L33.7931 173.793L24.1379 144.828H43.4483Z" fill="#FFDAAA"/>
<path d="M38.6207 96.5517C42.7317 100.535 47.656 103.581 53.0564 105.483C53.0964 105.721 53.1106 105.964 53.1035 106.207V115.862C53.1035 126.526 44.4572 135.172 33.7932 135.172C23.1291 135.172 14.4828 126.526 14.4828 115.862V106.207C14.4757 105.867 14.4899 105.53 14.5323 105.193V105.146C21.8208 103.456 35.1438 100.029 38.6207 96.5517Z" fill="#FFDAAA"/>
<path d="M270.345 106.207C268.695 106.183 267.054 105.938 265.47 105.483C260.07 103.581 255.145 100.535 251.034 96.5517C247.558 100.029 234.235 103.456 226.946 105.146V105.193C224 105.82 222.069 106.207 222.069 106.207C222.069 92.8768 232.877 82.069 246.207 82.069C259.537 82.069 270.345 92.8768 270.345 106.207Z" fill="#A97C50"/>
<path d="M164.138 188.276C162.488 188.252 160.847 188.007 159.263 187.552C153.863 185.65 148.939 182.604 144.828 178.621C141.351 182.098 128.028 185.525 120.739 187.215V187.262C117.793 187.889 115.862 188.276 115.862 188.276C115.862 174.946 126.67 164.138 140 164.138C153.33 164.138 164.138 174.946 164.138 188.276Z" fill="#FFB655"/>
<path d="M57.931 106.207C56.281 106.183 54.6403 105.938 53.0563 105.483C47.6559 103.581 42.7317 100.535 38.6207 96.5517C35.1438 100.029 21.8208 103.456 14.5322 105.146V105.193C11.5857 105.82 9.65515 106.207 9.65515 106.207C9.65515 92.8768 20.463 82.069 33.7931 82.069C47.1232 82.069 57.931 92.8768 57.931 106.207Z" fill="#898890"/>
<path d="M140.24 5.8208e-06H140C118.67 -0.0659963 101.325 17.17 101.259 38.5005C101.193 59.831 118.429 77.1754 139.76 77.2414H140C161.33 77.3074 178.675 60.0714 178.741 38.7409C178.809 17.4128 161.571 0.066008 140.24 5.8208e-06V5.8208e-06Z" fill="#18B39A" fill-opacity="0.26"/>
<path d="M140 33.7931C137.334 33.7931 135.172 31.6315 135.172 28.9655C135.172 26.2995 137.334 24.1379 140 24.1379C142.666 24.1379 144.828 26.2995 144.828 28.9655H154.483C154.457 22.8509 150.593 17.4104 144.828 15.3714V9.65518H135.172V15.3714C128.527 17.7122 124.539 24.5033 125.732 31.4477C126.927 38.3921 132.954 43.4624 140 43.4483C142.666 43.4483 144.828 45.6099 144.828 48.2759C144.828 50.9419 142.666 53.1035 140 53.1035C137.334 53.1035 135.172 50.9419 135.172 48.2759H125.517C125.543 54.3905 129.407 59.831 135.172 61.87V67.5862H144.828V61.87C151.473 59.5292 155.461 52.7381 154.268 45.7937C153.073 38.8494 147.046 33.779 140 33.7931Z" fill="#18B39A"/>
<path d="M67.8856 75.794L60.6772 69.373C67.5391 61.6696 75.4806 55.001 84.2565 49.5794L89.3293 57.7872C81.3477 62.7209 74.1252 68.786 67.8856 75.794Z" fill="#18B39A"/>
<path d="M89.5626 233.492C80.8433 228.775 72.8264 222.866 65.7429 215.933L72.5011 209.029C78.9339 215.332 86.2177 220.706 94.138 224.994L89.5626 233.492Z" fill="#18B39A"/>
<path d="M190.44 233.487L185.848 224.99C193.811 220.688 201.127 215.287 207.586 208.949L214.344 215.841C207.24 222.811 199.194 228.752 190.44 233.487V233.487Z" fill="#18B39A"/>
<path d="M215.832 80.2303C208.784 71.287 200.213 63.6567 190.51 57.6953L195.571 49.4875C206.24 56.0405 215.664 64.4299 223.41 74.2689L215.832 80.2303Z" fill="#18B39A"/>
<path d="M47.3094 70.4832L39.5872 64.6892C51.4958 48.8557 66.9592 36.0395 84.7279 27.2754L88.9874 35.9665C72.5835 44.0494 58.3082 55.8708 47.3094 70.4832Z" fill="#18B39A"/>
<path d="M89.9327 255.138C70.0236 246.438 52.6981 232.747 39.6296 215.389L47.3542 209.595C59.4161 225.621 75.4122 238.258 93.7962 246.285L89.9327 255.138Z" fill="#18B39A"/>
<path d="M190.072 255.134L186.209 246.28C204.604 238.242 220.612 225.588 232.674 209.543L240.399 215.334C227.34 232.721 210 246.433 190.072 255.134V255.134Z" fill="#18B39A"/>
<path d="M232.691 70.4832C221.701 55.8685 207.431 44.0399 191.031 35.9523L195.291 27.2848C213.053 36.049 228.509 48.8605 240.413 64.6892L232.691 70.4832Z" fill="#18B39A"/>
</g>
<defs>
<clipPath id="clip0">
<rect width="280" height="280" fill="white"/>
</clipPath>
</defs>
</svg>
