<svg width="221" height="221" viewBox="0 0 221 221" fill="none" xmlns="http://www.w3.org/2000/svg">
<path d="M179.796 159.195L212.598 191.997C215.58 194.979 217.254 199.02 217.254 203.234C217.258 212.01 210.145 219.124 201.369 219.128C201.365 219.128 201.365 219.128 201.361 219.128C197.147 219.128 193.106 217.453 190.124 214.471L157.322 181.67L179.796 159.195Z" fill="#18B39A"/>
<path d="M157.326 181.659L179.8 159.186L161.074 140.46L138.6 162.933L157.326 181.659Z" fill="#3A3A3A"/>
<path d="M174.178 166.686C178.883 166.694 183.58 167.012 188.239 167.638L179.796 159.195L172.256 166.735C172.897 166.724 173.534 166.686 174.178 166.686Z" fill="#575757"/>
<path d="M179.796 159.195L161.068 140.466L138.593 162.941L146.084 170.432C154.617 168.121 163.405 166.874 172.245 166.724L179.796 159.195Z" fill="#3A3A3A"/>
<path d="M89.8982 166.686C131.273 166.686 164.813 133.146 164.813 91.7711C164.813 50.3966 131.273 16.856 89.8982 16.856C48.5237 16.856 14.9831 50.3966 14.9831 91.7711C14.9831 133.146 48.5237 166.686 89.8982 166.686Z" fill="#62E7D2" fill-opacity="0.54"/>
<path d="M76.0115 113.145L81.3088 107.847L58.8353 85.3739L53.5381 90.6712L76.0115 113.145Z" fill="#3A3A3A"/>
<path d="M96.2934 113.149L126.26 83.1828L120.963 77.8855L90.9961 107.852L96.2934 113.149Z" fill="#3A3A3A"/>
<path d="M221 16.856H194.78V24.3475H221V16.856Z" fill="#3A3A3A"/>
<path d="M37.4578 76.788H14.9831V84.2796H37.4578V76.788Z" fill="#3A3A3A"/>
<path d="M163.714 45.7316L178.697 30.7484L173.4 25.4511L158.416 40.4343L163.714 45.7316Z" fill="#3A3A3A"/>
<path d="M48.6951 95.5169C40.4206 95.5169 33.712 88.8083 33.712 80.5338C33.712 72.2592 40.4206 65.5507 48.6951 65.5507C56.9697 65.5507 63.6782 72.2592 63.6782 80.5338C63.6782 88.8083 56.9692 95.5169 48.6951 95.5169ZM48.6951 73.0422C44.5561 73.0422 41.2036 76.3948 41.2036 80.5338C41.2036 84.6728 44.5561 88.0253 48.6951 88.0253C52.8341 88.0253 56.1867 84.6728 56.1867 80.5338C56.1862 76.3948 52.8341 73.0422 48.6951 73.0422Z" fill="#18B39A"/>
<path d="M86.1525 132.975C77.8779 132.975 71.1693 126.266 71.1693 117.992C71.1693 109.717 77.8779 103.008 86.1525 103.008C94.427 103.008 101.136 109.717 101.136 117.992C101.136 126.266 94.427 132.975 86.1525 132.975ZM86.1525 110.5C82.0135 110.5 78.6609 113.853 78.6609 117.992C78.6609 122.131 82.0135 125.483 86.1525 125.483C90.2915 125.483 93.644 122.131 93.644 117.992C93.644 113.853 90.2915 110.5 86.1525 110.5Z" fill="#18B39A"/>
<path d="M183.542 35.5849C175.268 35.5849 168.559 28.8763 168.559 20.6018C168.559 12.3272 175.268 5.61865 183.542 5.61865C191.817 5.61865 198.525 12.3272 198.525 20.6018C198.525 28.8763 191.817 35.5849 183.542 35.5849ZM183.542 13.1102C179.403 13.1102 176.051 16.4628 176.051 20.6018C176.051 24.7408 179.403 28.0933 183.542 28.0933C187.681 28.0933 191.034 24.7408 191.034 20.6018C191.034 16.4628 187.681 13.1102 183.542 13.1102Z" fill="#18B39A"/>
<path d="M118.643 22.5908C150.64 48.8224 155.311 96.0266 129.075 128.023C108.133 153.565 72.93 162.379 42.4247 149.715C74.4209 175.946 121.621 171.275 147.857 139.283C174.092 107.29 169.417 60.0861 137.425 33.8505C131.75 29.1983 125.419 25.4038 118.643 22.5908Z" fill="#65DFCB"/>
<path d="M141.239 68.2149L156.222 53.2317L150.925 47.9344L135.942 62.9176L141.239 68.2149Z" fill="#A89A9D"/>
<path d="M150.726 48.1219L142.178 56.6697C143.088 59.4002 143.837 62.1796 144.426 64.9964L154.884 54.5382C153.606 52.3282 152.22 50.1894 150.726 48.1219Z" fill="#3A3A3A"/>
<path d="M89.8982 1.87289C40.2483 1.87289 0 42.1212 0 91.7711C0 141.421 40.2483 181.669 89.8982 181.669C139.548 181.669 179.796 141.421 179.796 91.7711C179.796 42.1212 139.549 1.87289 89.8982 1.87289ZM89.8982 166.686C48.5224 166.686 14.9831 133.146 14.9831 91.7711C14.9831 50.3958 48.5224 16.856 89.8982 16.856C131.274 16.856 164.813 50.3958 164.813 91.7711C164.813 133.146 131.274 166.686 89.8982 166.686Z" fill="#18B39A"/>
<path d="M131.102 88.0253C122.827 88.0253 116.119 81.3168 116.119 73.0422C116.119 64.7677 122.827 58.0591 131.102 58.0591C139.376 58.0591 146.085 64.7677 146.085 73.0422C146.085 81.3168 139.376 88.0253 131.102 88.0253ZM131.102 65.5507C126.963 65.5507 123.61 68.9032 123.61 73.0422C123.61 77.1812 126.963 80.5338 131.102 80.5338C135.241 80.5338 138.593 77.1812 138.593 73.0422C138.593 68.9032 135.241 65.5507 131.102 65.5507Z" fill="#18B39A"/>
</svg>
