<svg width="274" height="274" viewBox="0 0 274 274" fill="none" xmlns="http://www.w3.org/2000/svg">
<path d="M104.492 176.475H95.2034V157.898C95.2034 142.531 82.7062 130.034 67.339 130.034C51.9718 130.034 39.4746 142.531 39.4746 157.898V176.475H30.1865V157.898C30.1865 137.413 46.854 120.746 67.339 120.746C87.824 120.746 104.492 137.413 104.492 157.898V176.475Z" fill="#A3A3A3"/>
<path d="M243.814 176.475H234.525V157.898C234.525 142.531 222.028 130.034 206.661 130.034C191.294 130.034 178.797 142.531 178.797 157.898V176.475H169.508V157.898C169.508 137.413 186.176 120.746 206.661 120.746C227.146 120.746 243.814 137.413 243.814 157.898V176.475Z" fill="#A3A3A3"/>
<path d="M153.681 82.9338C160.666 74.1983 164.864 63.1407 164.864 51.0847C164.864 39.0287 160.666 27.9712 153.681 19.2357C147.208 20.5546 141.449 23.8101 137 28.3567C142.74 34.2175 146.288 42.2332 146.288 51.0847C146.288 59.9363 142.74 67.952 137 73.8128C132.551 78.3594 126.792 81.6102 120.318 82.9338C118.205 83.3657 116.018 83.5932 113.78 83.5932H53.4068C35.4528 83.5932 20.8983 69.0387 20.8983 51.0847C20.8983 33.1308 35.4528 18.5763 53.4068 18.5763H113.78C116.018 18.5763 118.205 18.8038 120.318 19.2357C124.833 13.5885 130.512 8.93983 137 5.61932C130.029 2.05268 122.148 0 113.78 0H53.4068C25.1941 0 2.32202 22.872 2.32202 51.0847C2.32202 79.2975 25.1941 102.169 53.4068 102.169H67.339H113.78C122.148 102.169 130.029 100.117 137 96.5502C143.488 93.2297 149.167 88.5809 153.681 82.9338Z" fill="#3A3A3A"/>
<path d="M159.268 27.9619C157.685 24.8644 155.836 21.9293 153.681 19.2357C147.208 20.5547 141.449 23.8102 137 28.3567C139.234 30.6416 141.124 33.2562 142.615 36.1169C142.968 35.7036 143.251 35.2438 143.632 34.8537C146.906 31.5147 151.02 29.2576 155.53 28.3381C156.756 28.0873 158.014 28.013 159.268 27.9619Z" fill="#3A3A3A"/>
<path d="M220.593 0H160.22C151.852 0 143.971 2.05268 137 5.61932C130.512 8.93983 124.833 13.5885 120.319 19.2311C113.334 27.9712 109.136 39.0287 109.136 51.0847C109.136 63.1407 113.334 74.1983 120.319 82.9338C126.788 81.6102 132.551 78.3594 137 73.8128C131.26 67.952 127.712 59.9363 127.712 51.0847C127.712 42.2332 131.26 34.2175 137 28.3567C141.449 23.8101 147.208 20.5593 153.682 19.2357C155.795 18.8038 157.982 18.5763 160.22 18.5763H220.593C238.547 18.5763 253.102 33.1308 253.102 51.0847C253.102 69.0387 238.547 83.5932 220.593 83.5932H160.22C157.982 83.5932 155.795 83.3657 153.682 82.9338C149.167 88.5809 143.488 93.2297 137 96.5502C143.971 100.117 151.852 102.169 160.22 102.169H206.661H220.593C248.806 102.169 271.678 79.2975 271.678 51.0847C271.678 22.872 248.806 0 220.593 0Z" fill="#18B39A"/>
<path d="M109.136 171.831H25.5424C15.2837 171.831 6.96613 180.148 6.96613 190.407V255.424C6.96613 265.682 15.2837 274 25.5424 274H109.136C119.394 274 127.712 265.682 127.712 255.424V190.407C127.712 180.148 119.394 171.831 109.136 171.831Z" fill="#45D7BF"/>
<path d="M109.136 171.831H67.339V274H109.136C119.394 274 127.712 265.682 127.712 255.424V190.407C127.712 180.148 119.394 171.831 109.136 171.831Z" fill="#18B39A"/>
<path d="M248.458 171.831H164.864C154.606 171.831 146.288 180.148 146.288 190.407V255.424C146.288 265.682 154.606 274 164.864 274H248.458C258.716 274 267.034 265.682 267.034 255.424V190.407C267.034 180.148 258.716 171.831 248.458 171.831Z" fill="#45D7BF"/>
<path d="M248.458 171.831H206.661V274H248.458C258.716 274 267.034 265.682 267.034 255.424V190.407C267.034 180.148 258.716 171.831 248.458 171.831Z" fill="#18B39A"/>
<path d="M61.75 227.094V240H73.25V227.094C76.6741 225.131 79 221.518 79 217.333C79 211.074 73.8509 206 67.5 206C61.1491 206 56 211.074 56 217.333C56 221.518 58.3259 225.131 61.75 227.094Z" fill="#E8EDED"/>
<path d="M201.75 227.094V240H213.25V227.094C216.674 225.131 219 221.518 219 217.333C219 211.074 213.851 206 207.5 206C201.149 206 196 211.074 196 217.333C196 221.518 198.326 225.131 201.75 227.094Z" fill="#E8EDED"/>
<path d="M164.59 83.5932H160.22C157.982 83.5932 155.795 83.3656 153.681 82.9337C149.167 88.5809 143.488 93.2296 137 96.5502C140.474 98.3288 144.17 99.7267 148.039 100.683C152.878 97.3489 157.225 93.3829 160.936 88.7388C162.264 87.0763 163.457 85.3487 164.59 83.5932Z" fill="#18B39A"/>
<path d="M71.9831 102.169H62.6949V125.39H71.9831V102.169Z" fill="#A3A3A3"/>
<path d="M211.305 102.169H202.017V125.39H211.305V102.169Z" fill="#A3A3A3"/>
<path d="M99.8475 250.78C99.8475 253.345 101.927 255.424 104.492 255.424C107.056 255.424 109.136 253.345 109.136 250.78C109.136 248.215 107.056 246.136 104.492 246.136C101.927 246.136 99.8475 248.215 99.8475 250.78Z" fill="#3A3A3A"/>
<path d="M239.17 250.78C239.17 253.345 241.249 255.424 243.814 255.424C246.378 255.424 248.458 253.345 248.458 250.78C248.458 248.215 246.378 246.136 243.814 246.136C241.249 246.136 239.17 248.215 239.17 250.78Z" fill="#3A3A3A"/>
</svg>
