<svg width="253" height="282" viewBox="0 0 253 282" fill="none" xmlns="http://www.w3.org/2000/svg">
<path d="M0 223.655C0 100.134 56.5972 0 126.414 0C196.23 0 252.827 100.134 252.827 223.655L249.789 263.159L2.43115 261.336L0 223.655Z" fill="#65DDB9"/>
<path d="M191.76 223.655C193.591 213.868 194.502 203.931 194.483 193.974C194.483 135.205 159.369 87.5175 126.414 87.5175C93.4588 87.5175 58.3448 135.205 58.3448 193.974C58.325 203.931 59.2365 213.868 61.0673 223.655H191.76Z" fill="#18B39A"/>
<path d="M252.827 223.655V262.552C252.827 273.293 244.12 282 233.379 282H19.4481C8.7073 282 0 273.293 0 262.552V223.655H82.9488C85.3876 223.675 87.4519 221.86 87.7433 219.438C89.8974 199.705 106.564 184.758 126.414 184.758C146.265 184.758 162.931 199.705 165.085 219.438C165.376 221.86 167.441 223.676 169.88 223.655H252.827Z" fill="#BDC3C7"/>
<path d="M58.3399 72.3897C56.5741 72.387 54.9482 71.4275 54.0923 69.8826C53.2363 68.3376 53.2848 66.4507 54.2184 64.952C67.5038 43.6781 83.3531 28.3416 100.057 20.5998C102.491 19.4773 105.375 20.5375 106.503 22.9692C107.631 25.4009 106.579 28.2876 104.15 29.4216C89.1599 36.3681 74.7493 50.4339 62.4713 70.1034C61.5812 71.5278 60.0192 72.3919 58.3399 72.3897Z" fill="#E6E7E8"/>
<path d="M145.862 223.655C145.882 233.78 138.132 242.226 128.042 243.075C117.953 243.923 108.902 236.888 107.232 226.903C105.562 216.917 111.833 207.32 121.649 204.839C123.199 204.405 124.804 204.192 126.414 204.207C128.09 204.212 129.757 204.441 131.373 204.888C139.925 207.096 145.89 214.823 145.862 223.655Z" fill="#E6E7E8"/>
<path d="M131.373 204.887L131.13 218.89C131.08 221.539 128.917 223.658 126.268 223.655H126.17C123.488 223.593 121.36 221.377 121.405 218.695L121.648 204.838C123.199 204.404 124.803 204.191 126.413 204.206C128.09 204.211 129.757 204.44 131.373 204.887Z" fill="#7F8C8D"/>
<path d="M34.0343 262.551C39.4048 262.551 43.7584 258.198 43.7584 252.827C43.7584 247.457 39.4048 243.103 34.0343 243.103C28.6639 243.103 24.3103 247.457 24.3103 252.827C24.3103 258.198 28.6639 262.551 34.0343 262.551Z" fill="#E64C3C"/>
<path d="M72.9311 262.551C78.3015 262.551 82.6551 258.198 82.6551 252.827C82.6551 247.457 78.3015 243.103 72.9311 243.103C67.5606 243.103 63.207 247.457 63.207 252.827C63.207 258.198 67.5606 262.551 72.9311 262.551Z" fill="#3A3A3A"/>
</svg>
