<svg width="272" height="272" viewBox="0 0 272 272" fill="none" xmlns="http://www.w3.org/2000/svg">
<path d="M76.5 29.75H221V229.5C221 232.882 219.657 236.125 217.266 238.516C214.875 240.907 211.632 242.25 208.25 242.25H76.5V29.75Z" fill="#45D7BF" fill-opacity="0.17"/>
<path d="M72.25 242.25C68.8685 242.25 65.6255 240.907 63.2344 238.516C60.8433 236.125 59.5 232.882 59.5 229.5V216.75H195.5V229.5C195.5 232.882 196.843 236.125 199.234 238.516C201.625 240.907 204.868 242.25 208.25 242.25H72.25Z" fill="#18B39A"/>
<path d="M93.5 161.5V145.516C103.652 141.553 112.101 134.167 117.386 124.636C122.67 115.105 124.459 104.027 122.443 93.3169C120.427 82.6068 114.732 72.9376 106.343 65.9807C97.9541 59.0237 87.3983 55.2162 76.5 55.2162C65.6018 55.2162 55.0459 59.0237 46.657 65.9807C38.2682 72.9376 32.5734 82.6068 30.5571 93.3169C28.5408 104.027 30.3296 115.105 35.6144 124.636C40.8992 134.167 49.3478 141.553 59.5 145.516V161.5H93.5Z" fill="#F7931E"/>
<path d="M102 157.25H51V174.25H102V157.25Z" fill="#95866D"/>
<path d="M97.75 174.25L93.5 191.25H59.5L55.25 174.25H97.75Z" fill="#6E6350"/>
<path d="M85.7693 119H67.2308L63.665 101.15L55.335 102.816L59.585 124.066C59.7741 125.032 60.2927 125.903 61.0523 126.529C61.812 127.155 62.7655 127.499 63.75 127.5H72.25V157.25H80.75V127.5H89.25C90.2298 127.5 91.1795 127.162 91.9385 126.542C92.6975 125.923 93.2191 125.06 93.415 124.1L97.665 102.85L89.335 101.15L85.7693 119Z" fill="#FBB03B"/>
<path d="M80.75 102H72.25V110.5H80.75V102Z" fill="#FBB03B"/>
<path d="M76.5 68V76.5C81.9866 76.5222 87.3215 78.303 91.7214 81.5807C96.1213 84.8585 99.3544 89.4606 100.946 94.7112L109.089 92.2888C106.97 85.2867 102.661 79.149 96.7947 74.7772C90.9289 70.4053 83.8157 68.03 76.5 68Z" fill="#FBB03B"/>
<path d="M157.25 140.25L140.25 148.75L157.25 157.25H165.75V140.25H157.25Z" fill="#18B39A"/>
<path d="M233.75 140.25H165.75V157.25H233.75C236.004 157.25 238.166 156.354 239.76 154.76C241.354 153.166 242.25 151.004 242.25 148.75C242.25 146.496 241.354 144.334 239.76 142.74C238.166 141.146 236.004 140.25 233.75 140.25Z" fill="#45D7BF"/>
<path d="M148.75 102H140.25V110.5H148.75V102Z" fill="#45D7BF"/>
<path d="M208.25 102H157.25V110.5H208.25V102Z" fill="#45D7BF"/>
<path d="M208.25 119H140.25V127.5H208.25V119Z" fill="#45D7BF"/>
<path d="M199.75 72.25V63.75H190.647C190.252 62.2283 189.644 60.7703 188.84 59.4192L195.283 52.972L189.274 46.9625L182.831 53.4098C181.48 52.6061 180.022 51.998 178.5 51.6035V42.5H170V51.6035C168.478 51.998 167.02 52.6061 165.669 53.4098L159.226 46.9625L153.217 52.972L159.66 59.4192C158.856 60.7703 158.248 62.2283 157.853 63.75H148.75V72.25H157.853C158.248 73.7717 158.856 75.2297 159.66 76.5807L153.217 83.028L159.226 89.0375L165.669 82.5903C167.02 83.3939 168.478 84.002 170 84.3965V93.5H178.5V84.3965C180.022 84.002 181.48 83.3939 182.831 82.5903L189.274 89.0375L195.283 83.028L188.84 76.5807C189.644 75.2297 190.252 73.7717 190.647 72.25H199.75ZM174.25 76.5C172.569 76.5 170.925 76.0015 169.528 75.0675C168.13 74.1335 167.04 72.806 166.397 71.2528C165.754 69.6996 165.585 67.9906 165.913 66.3417C166.241 64.6929 167.051 63.1783 168.24 61.9896C169.428 60.8008 170.943 59.9913 172.592 59.6633C174.241 59.3353 175.95 59.5037 177.503 60.147C179.056 60.7904 180.384 61.8798 181.317 63.2777C182.251 64.6755 182.75 66.3189 182.75 68C182.75 70.2543 181.854 72.4163 180.26 74.0104C178.666 75.6045 176.504 76.5 174.25 76.5Z" fill="#45D7BF"/>
<path d="M242.25 174.25H123.25V199.75H242.25V174.25Z" fill="#45D7BF"/>
<path d="M174.25 255H85V263.5H174.25V255Z" fill="#ACB3B2" fill-opacity="0.44"/>
<path d="M191.25 255H182.75V263.5H191.25V255Z" fill="#ACB3B2" fill-opacity="0.44"/>
<path d="M242.25 63.75H233.75V114.75H242.25V63.75Z" fill="#ACB3B2" fill-opacity="0.44"/>
<path d="M161.5 8.5H93.5V17H161.5V8.5Z" fill="#ACB3B2" fill-opacity="0.44"/>
<path d="M161.5 174.25H153V187H161.5V174.25Z" fill="#18B39A"/>
<path d="M144.5 174.25H136V187H144.5V174.25Z" fill="#18B39A"/>
<path d="M178.5 174.25H170V187H178.5V174.25Z" fill="#18B39A"/>
<path d="M195.5 174.25H187V187H195.5V174.25Z" fill="#18B39A"/>
<path d="M212.5 174.25H204V187H212.5V174.25Z" fill="#18B39A"/>
<path d="M229.5 174.25H221V187H229.5V174.25Z" fill="#18B39A"/>
</svg>
