<svg width="214" height="214" viewBox="0 0 214 214" fill="none" xmlns="http://www.w3.org/2000/svg">
<g clip-path="url(#clip0)">
<path d="M197.684 127.838L205.196 117.328L186.414 98.5462L175.904 106.058C173.15 104.612 170.262 103.417 167.275 102.488L165.15 89.7419H155.323V48.3226H165.677C178.997 48.3226 189.839 37.4807 189.839 24.1613V20.7097H172.581C165.822 20.7097 159.713 23.5057 155.323 27.9955V24.1613C155.323 10.8419 144.481 0 131.161 0H113.903V3.45161C113.903 16.771 124.745 27.6129 138.065 27.6129H148.419V59.06C144.029 54.5702 137.92 51.7742 131.161 51.7742H113.903V55.2258C113.903 68.5452 124.745 79.3871 138.065 79.3871H148.419V89.7419H138.592L136.467 102.485C133.48 103.417 130.592 104.608 127.838 106.055L117.328 98.5429L98.5462 117.325L106.058 127.834C104.612 130.588 103.417 133.477 102.488 136.463L92.6306 138.11L93.7632 144.919L107.974 142.548L108.542 140.39C109.572 136.501 111.107 132.784 113.116 129.339L114.239 127.406L107.566 118.073L118.076 107.563L127.41 114.235L129.343 113.113C132.788 111.104 136.504 109.568 140.394 108.539L142.551 107.969L144.44 96.6452H159.305L161.194 107.969L163.352 108.539C167.241 109.568 170.958 111.104 174.403 113.113L176.336 114.235L185.669 107.563L196.179 118.073L189.507 127.406L190.629 129.339C192.638 132.784 194.173 136.501 195.203 140.39L195.773 142.548L207.097 144.44V159.305L195.773 161.191L195.203 163.348C194.173 167.238 192.638 170.954 190.629 174.399L189.507 176.332L196.179 185.666L185.669 196.176L176.336 189.503L174.403 190.626C170.958 192.635 167.241 194.17 163.352 195.2L161.191 195.773L159.302 207.097H144.437L142.551 195.773L140.394 195.203C136.504 194.173 132.788 192.638 129.343 190.629L127.41 189.507L118.076 196.179L107.566 185.669L114.239 176.336L113.116 174.403C111.107 170.958 109.572 167.241 108.542 163.352L107.969 161.191L96.6452 159.302V148.419H6.90323V6.90323H82.8387V131.161H89.7419V0H0V155.323H89.7419V165.15L102.485 167.275C103.417 170.262 104.608 173.15 106.055 175.904L98.5429 186.414L117.325 205.196L127.834 197.684C130.588 199.13 133.477 200.325 136.463 201.254L138.592 214H165.147L167.272 201.257C170.258 200.325 173.147 199.133 175.901 197.687L186.411 205.199L205.192 186.417L197.681 175.908C199.127 173.154 200.322 170.265 201.25 167.279L214 165.15V138.595L201.257 136.47C200.325 133.48 199.13 130.592 197.684 127.838V127.838ZM172.581 27.6129H182.587C180.982 35.4785 174.013 41.4194 165.677 41.4194H155.671C157.273 33.5538 164.245 27.6129 172.581 27.6129ZM138.065 20.7097C129.729 20.7097 122.756 14.7688 121.155 6.90323H131.161C139.497 6.90323 146.469 12.8441 148.07 20.7097H138.065ZM138.065 72.4839C129.729 72.4839 122.756 66.543 121.155 58.6774H131.161C139.497 58.6774 146.469 64.6183 148.07 72.4839H138.065ZM155.323 107H148.419V100.097H155.323V107ZM122.585 117.704L117.704 122.585L112.823 117.704L117.704 112.823L122.585 117.704ZM107 148.419V155.323H100.097V148.419H107ZM112.823 186.038L117.704 181.157L122.585 186.038L117.704 190.919L112.823 186.038ZM148.419 196.742H155.323V203.645H148.419V196.742ZM181.157 186.038L186.038 181.157L190.919 186.038L186.038 190.919L181.157 186.038ZM203.645 148.419V155.323H196.742V148.419H203.645ZM190.919 117.704L186.038 122.585L181.157 117.704L186.038 112.823L190.919 117.704ZM117.355 151.871C117.355 143.97 119.971 136.526 124.914 130.337L130.305 134.652C126.35 139.597 124.258 145.554 124.258 151.871C124.258 167.096 136.645 179.484 151.871 179.484C158.188 179.484 164.145 177.392 169.09 173.433L173.405 178.825C167.216 183.771 159.772 186.387 151.871 186.387C132.838 186.387 117.355 170.904 117.355 151.871ZM130.337 124.914C136.526 119.971 143.97 117.355 151.871 117.355C170.904 117.355 186.387 132.838 186.387 151.871C186.387 159.775 183.771 167.22 178.822 173.401L173.433 169.087C177.392 164.145 179.484 158.191 179.484 151.871C179.484 136.645 167.096 124.258 151.871 124.258C145.554 124.258 139.597 126.35 134.652 130.309L130.337 124.914ZM144.968 144.968C144.968 146.872 146.515 148.419 148.419 148.419H155.323C161.031 148.419 165.677 153.066 165.677 158.774C165.677 164.483 161.031 169.129 155.323 169.129V172.581H148.419V169.129C142.711 169.129 138.065 164.483 138.065 158.774H144.968C144.968 160.679 146.515 162.226 148.419 162.226H155.323C157.227 162.226 158.774 160.679 158.774 158.774C158.774 156.87 157.227 155.323 155.323 155.323H148.419C142.711 155.323 138.065 150.676 138.065 144.968C138.065 139.259 142.711 134.613 148.419 134.613V131.161H155.323V134.613C161.031 134.613 165.677 139.259 165.677 144.968H158.774C158.774 143.063 157.227 141.516 155.323 141.516H148.419C146.515 141.516 144.968 143.063 144.968 144.968ZM37.9677 69.0323C37.9677 70.9367 39.5149 72.4839 41.4194 72.4839H48.3226C54.0309 72.4839 58.6774 77.1304 58.6774 82.8387C58.6774 88.547 54.0309 93.1935 48.3226 93.1935V96.6452H41.4194V93.1935C35.711 93.1935 31.0645 88.547 31.0645 82.8387H37.9677C37.9677 84.7432 39.5149 86.2903 41.4194 86.2903H48.3226C50.227 86.2903 51.7742 84.7432 51.7742 82.8387C51.7742 80.9343 50.227 79.3871 48.3226 79.3871H41.4194C35.711 79.3871 31.0645 74.7406 31.0645 69.0323C31.0645 63.324 35.711 58.6774 41.4194 58.6774V55.2258H48.3226V58.6774C54.0309 58.6774 58.6774 63.324 58.6774 69.0323H51.7742C51.7742 67.1278 50.227 65.5806 48.3226 65.5806H41.4194C39.5149 65.5806 37.9677 67.1278 37.9677 69.0323ZM20.7097 20.7097V31.0645H13.8065V13.8065H31.0645V20.7097H20.7097ZM75.9355 31.0645H69.0323V20.7097H58.6774V13.8065H75.9355V31.0645ZM20.7097 124.258V134.613H31.0645V141.516H13.8065V124.258H20.7097ZM69.0323 134.613V124.258H75.9355V141.516H58.6774V134.613H69.0323ZM44.871 44.871C27.741 44.871 13.8065 58.8055 13.8065 75.9355C13.8065 93.0655 27.741 107 44.871 107C62.0009 107 75.9355 93.0655 75.9355 75.9355C75.9355 58.8055 62.0009 44.871 44.871 44.871ZM44.871 100.097C31.5516 100.097 20.7097 89.2549 20.7097 75.9355C20.7097 62.6161 31.5516 51.7742 44.871 51.7742C58.1904 51.7742 69.0323 62.6161 69.0323 75.9355C69.0323 89.2549 58.1904 100.097 44.871 100.097ZM6.90323 214H75.9355C79.7427 214 82.8387 210.904 82.8387 207.097V200.194C82.8387 198.93 82.473 197.76 81.8797 196.742C82.473 195.724 82.8387 194.554 82.8387 193.29V186.387C82.8387 185.123 82.473 183.953 81.8797 182.935C82.473 181.918 82.8387 180.748 82.8387 179.484V172.581C82.8387 168.773 79.7427 165.677 75.9355 165.677H6.90323C3.096 165.677 0 168.773 0 172.581V179.484C0 180.748 0.365723 181.918 0.958969 182.935C0.365723 183.953 0 185.123 0 186.387V193.29C0 194.554 0.365723 195.724 0.958969 196.742C0.365723 197.76 0 198.93 0 200.194V207.097C0 210.904 3.096 214 6.90323 214ZM6.90323 207.097V200.194H75.9355L75.9422 207.097H6.90323ZM6.90323 172.581H75.9355V179.484H24.1613V186.387H75.9355V193.29H6.90323V186.387H17.2581V179.484H6.90323V172.581ZM207.097 69.0323H214V75.9355H207.097V69.0323ZM207.097 82.8387H214V89.7419H207.097V82.8387ZM207.097 96.6452H214V103.548H207.097V96.6452ZM200.194 48.3226H193.29V41.4194H200.194V48.3226ZM193.29 55.2258H200.194V62.129H193.29V55.2258ZM193.29 69.0323H200.194V75.9355H193.29V69.0323Z" fill="url(#paint0_linear)"/>
</g>
<defs>
<linearGradient id="paint0_linear" x1="107" y1="214" x2="107" y2="0" gradientUnits="userSpaceOnUse">
<stop stop-color="#18B39A"/>
<stop offset="0.314917" stop-color="#45D7BF"/>
</linearGradient>
<clipPath id="clip0">
<rect width="214" height="214" fill="white"/>
</clipPath>
</defs>
</svg>
