<svg width="414" height="51" viewBox="0 0 414 51" fill="none" xmlns="http://www.w3.org/2000/svg">
<path d="M122.555 32.5156C122.555 33.4661 122.359 34.3581 121.969 35.1914C121.591 36.0247 121.077 36.7539 120.426 37.3789C119.788 38.0039 119.039 38.4987 118.18 38.8633C117.333 39.2148 116.435 39.3906 115.484 39.3906H113.473C112.522 39.3906 111.617 39.2148 110.758 38.8633C109.911 38.4987 109.163 38.0039 108.512 37.3789C107.874 36.7539 107.359 36.0247 106.969 35.1914C106.591 34.3581 106.402 33.4661 106.402 32.5156V31.4023L108.922 30.9922V32.5156C108.922 33.1406 109.046 33.7266 109.293 34.2734C109.553 34.8073 109.898 35.2826 110.328 35.6992C110.758 36.1029 111.253 36.4219 111.812 36.6562C112.385 36.8906 112.984 37.0078 113.609 37.0078H115.367C115.992 37.0078 116.585 36.8906 117.145 36.6562C117.704 36.4219 118.199 36.1029 118.629 35.6992C119.059 35.2826 119.397 34.8073 119.645 34.2734C119.905 33.7266 120.035 33.1406 120.035 32.5156V31.6758C120.035 30.7122 119.846 29.9115 119.469 29.2734C119.091 28.6354 118.59 28.0951 117.965 27.6523C117.34 27.1966 116.63 26.8125 115.836 26.5C115.055 26.1875 114.247 25.875 113.414 25.5625C112.581 25.25 111.767 24.9049 110.973 24.5273C110.191 24.1497 109.488 23.681 108.863 23.1211C108.238 22.5482 107.737 21.8516 107.359 21.0312C106.982 20.2109 106.793 19.2018 106.793 18.0039V17.4766C106.793 16.526 106.969 15.6341 107.32 14.8008C107.685 13.9674 108.18 13.2383 108.805 12.6133C109.43 11.9883 110.159 11.5 110.992 11.1484C111.839 10.7839 112.737 10.6016 113.688 10.6016H115.484C116.435 10.6016 117.327 10.7839 118.16 11.1484C118.993 11.5 119.723 11.9883 120.348 12.6133C120.973 13.2383 121.461 13.9674 121.812 14.8008C122.177 15.6341 122.359 16.526 122.359 17.4766V18.1992L119.84 18.6094V17.4766C119.84 16.8516 119.723 16.2721 119.488 15.7383C119.254 15.1914 118.935 14.7161 118.531 14.3125C118.128 13.9089 117.652 13.5898 117.105 13.3555C116.572 13.1211 115.992 13.0039 115.367 13.0039H113.805C113.18 13.0039 112.594 13.1211 112.047 13.3555C111.513 13.5898 111.038 13.9089 110.621 14.3125C110.217 14.7161 109.898 15.1914 109.664 15.7383C109.43 16.2721 109.312 16.8516 109.312 17.4766V18.0039C109.312 18.9023 109.501 19.6576 109.879 20.2695C110.257 20.8815 110.758 21.4089 111.383 21.8516C112.008 22.2812 112.711 22.6589 113.492 22.9844C114.286 23.2969 115.1 23.6224 115.934 23.9609C116.767 24.2865 117.574 24.651 118.355 25.0547C119.15 25.4453 119.859 25.9336 120.484 26.5195C121.109 27.0924 121.611 27.7956 121.988 28.6289C122.366 29.4622 122.555 30.4779 122.555 31.6758V32.5156ZM131.984 39V10.9922H134.504V39H131.984ZM159.363 39L147.684 18.6094L147.449 17.3984V39H144.93V10.9922H146.238L157.918 31.4023L158.172 32.5938V10.9922H160.691V39H159.363ZM186.469 39H185.668L184.203 36.7539C183.591 37.5612 182.849 38.2057 181.977 38.6875C181.104 39.1562 180.134 39.3906 179.066 39.3906H177.602C176.651 39.3906 175.753 39.2148 174.906 38.8633C174.073 38.4987 173.344 38.0039 172.719 37.3789C172.094 36.7539 171.599 36.0247 171.234 35.1914C170.883 34.3581 170.707 33.4661 170.707 32.5156V17.4766C170.707 16.526 170.883 15.6341 171.234 14.8008C171.599 13.9674 172.094 13.2383 172.719 12.6133C173.344 11.9883 174.073 11.5 174.906 11.1484C175.753 10.7839 176.651 10.6016 177.602 10.6016H179.594C180.544 10.6016 181.436 10.7839 182.27 11.1484C183.103 11.5 183.832 11.9883 184.457 12.6133C185.082 13.2383 185.57 13.9674 185.922 14.8008C186.286 15.6341 186.469 16.526 186.469 17.4766V18.6094L183.949 19V17.4766C183.949 16.8516 183.832 16.2721 183.598 15.7383C183.363 15.1914 183.044 14.7161 182.641 14.3125C182.237 13.9089 181.762 13.5898 181.215 13.3555C180.681 13.1211 180.102 13.0039 179.477 13.0039H177.719C177.094 13.0039 176.508 13.1211 175.961 13.3555C175.427 13.5898 174.952 13.9089 174.535 14.3125C174.132 14.7161 173.812 15.1914 173.578 15.7383C173.344 16.2721 173.227 16.8516 173.227 17.4766V32.5156C173.227 33.1406 173.344 33.7266 173.578 34.2734C173.812 34.8073 174.132 35.2826 174.535 35.6992C174.952 36.1029 175.427 36.4219 175.961 36.6562C176.508 36.8906 177.094 37.0078 177.719 37.0078H179.477C180.102 37.0078 180.681 36.8906 181.215 36.6562C181.762 36.4219 182.237 36.1029 182.641 35.6992C183.044 35.2826 183.363 34.8073 183.598 34.2734C183.832 33.7266 183.949 33.1406 183.949 32.5156V26.6758H179.477V24.2734H186.469V39ZM211.836 32.5156C211.836 33.4661 211.654 34.3581 211.289 35.1914C210.938 36.0247 210.449 36.7539 209.824 37.3789C209.199 38.0039 208.47 38.4987 207.637 38.8633C206.803 39.2148 205.911 39.3906 204.961 39.3906H202.969C202.018 39.3906 201.12 39.2148 200.273 38.8633C199.44 38.4987 198.711 38.0039 198.086 37.3789C197.461 36.7539 196.966 36.0247 196.602 35.1914C196.25 34.3581 196.074 33.4661 196.074 32.5156V10.9922H198.594V32.5156C198.594 33.1406 198.711 33.7266 198.945 34.2734C199.18 34.8073 199.499 35.2826 199.902 35.6992C200.319 36.1029 200.794 36.4219 201.328 36.6562C201.875 36.8906 202.461 37.0078 203.086 37.0078H204.844C205.469 37.0078 206.048 36.8906 206.582 36.6562C207.129 36.4219 207.604 36.1029 208.008 35.6992C208.411 35.2826 208.73 34.8073 208.965 34.2734C209.199 33.7266 209.316 33.1406 209.316 32.5156V10.9922H211.836V32.5156ZM221.441 39V10.9922H223.961V36.5977H234.684V39H221.441ZM253.195 32.4766H244.328L242.492 39H239.875L248.078 10.9922H249.406L257.648 39H255.051L253.195 32.4766ZM245.012 30.0742H252.531L248.84 17.1641L248.762 16.1289L248.684 17.1641L245.012 30.0742ZM278.406 39L270.809 27.0469H267.352V39H264.832V10.9922H273.719C274.669 10.9922 275.561 11.1745 276.395 11.5391C277.228 11.8906 277.957 12.3789 278.582 13.0039C279.207 13.6289 279.695 14.3646 280.047 15.2109C280.411 16.0443 280.594 16.9362 280.594 17.8867V20.1523C280.594 21.1029 280.411 22.0013 280.047 22.8477C279.695 23.681 279.207 24.4102 278.582 25.0352C277.957 25.6602 277.228 26.1549 276.395 26.5195C275.561 26.8711 274.669 27.0469 273.719 27.0469L281.316 39H278.406ZM278.074 17.8867C278.074 17.2617 277.957 16.6823 277.723 16.1484C277.488 15.6016 277.169 15.1263 276.766 14.7227C276.362 14.306 275.887 13.9805 275.34 13.7461C274.806 13.5117 274.227 13.3945 273.602 13.3945H267.352V24.6445H273.602C274.227 24.6445 274.806 24.5273 275.34 24.293C275.887 24.0586 276.362 23.7396 276.766 23.3359C277.169 22.9193 277.488 22.444 277.723 21.9102C277.957 21.3633 278.074 20.7773 278.074 20.1523V17.8867ZM318.711 32.5156C318.711 33.4661 318.529 34.3581 318.164 35.1914C317.812 36.0247 317.324 36.7539 316.699 37.3789C316.074 38.0039 315.345 38.4987 314.512 38.8633C313.678 39.2148 312.786 39.3906 311.836 39.3906H309.844C308.893 39.3906 307.995 39.2148 307.148 38.8633C306.315 38.4987 305.586 38.0039 304.961 37.3789C304.336 36.7539 303.841 36.0247 303.477 35.1914C303.125 34.3581 302.949 33.4661 302.949 32.5156V17.4766C302.949 16.526 303.125 15.6341 303.477 14.8008C303.841 13.9674 304.336 13.2383 304.961 12.6133C305.586 11.9883 306.315 11.5 307.148 11.1484C307.995 10.7839 308.893 10.6016 309.844 10.6016H311.836C312.786 10.6016 313.678 10.7839 314.512 11.1484C315.345 11.5 316.074 11.9883 316.699 12.6133C317.324 13.2383 317.812 13.9674 318.164 14.8008C318.529 15.6341 318.711 16.526 318.711 17.4766V18.6094L316.191 19V17.4766C316.191 16.8516 316.074 16.2721 315.84 15.7383C315.605 15.1914 315.286 14.7161 314.883 14.3125C314.479 13.9089 314.004 13.5898 313.457 13.3555C312.923 13.1211 312.344 13.0039 311.719 13.0039H309.961C309.336 13.0039 308.75 13.1211 308.203 13.3555C307.669 13.5898 307.194 13.9089 306.777 14.3125C306.374 14.7161 306.055 15.1914 305.82 15.7383C305.586 16.2721 305.469 16.8516 305.469 17.4766V32.5156C305.469 33.1406 305.586 33.7266 305.82 34.2734C306.055 34.8073 306.374 35.2826 306.777 35.6992C307.194 36.1029 307.669 36.4219 308.203 36.6562C308.75 36.8906 309.336 37.0078 309.961 37.0078H311.719C312.344 37.0078 312.923 36.8906 313.457 36.6562C314.004 36.4219 314.479 36.1029 314.883 35.6992C315.286 35.2826 315.605 34.8073 315.84 34.2734C316.074 33.7266 316.191 33.1406 316.191 32.5156V30.9922L318.711 31.4023V32.5156ZM341.578 39V26.207H330.855V39H328.336V10.9922H330.855V23.8047H341.578V10.9922H344.098V39H341.578ZM365.031 32.4766H356.164L354.328 39H351.711L359.914 10.9922H361.242L369.484 39H366.887L365.031 32.4766ZM356.848 30.0742H364.367L360.676 17.1641L360.598 16.1289L360.52 17.1641L356.848 30.0742ZM377.078 39V10.9922H379.598V39H377.078ZM404.457 39L392.777 18.6094L392.543 17.3984V39H390.023V10.9922H391.332L403.012 31.4023L403.266 32.5938V10.9922H405.785V39H404.457Z" fill="#FEFEFE"/>
<path fill-rule="evenodd" clip-rule="evenodd" d="M88.0952 24.5C88.0952 31.4036 82.4988 37 75.5952 37L58.9286 37C52.025 37 46.4286 31.4036 46.4286 24.5C46.4286 17.5964 52.025 12 58.9286 12L75.5952 12C82.4988 12 88.0952 17.5964 88.0952 24.5ZM75.5952 32.2381C79.8688 32.2381 83.3333 28.7736 83.3333 24.5C83.3333 20.2264 79.8689 16.7619 75.5952 16.7619L58.9286 16.7619C54.6549 16.7619 51.1905 20.2264 51.1905 24.5C51.1905 28.7736 54.6549 32.2381 58.9286 32.2381L75.5952 32.2381Z" fill="#FEFEFE"/>
<path fill-rule="evenodd" clip-rule="evenodd" d="M41.6667 24.5C41.6667 31.4036 36.0702 37 29.1667 37L12.5 37C5.59647 37 3.37486e-05 31.4036 3.43522e-05 24.5C3.49557e-05 17.5964 5.59647 12 12.5 12L29.1667 12C36.0703 12 41.6667 17.5964 41.6667 24.5ZM29.1667 32.2381C33.4403 32.2381 36.9048 28.7736 36.9048 24.5C36.9048 20.2264 33.4403 16.7619 29.1667 16.7619L12.5 16.7619C8.2264 16.7619 4.76194 20.2264 4.76194 24.5C4.76194 28.7736 8.2264 32.2381 12.5 32.2381L29.1667 32.2381Z" fill="#FEFEFE"/>
<path d="M58.396 24.1711C58.396 25.4428 57.586 26.4737 56.5868 26.4737L31.2578 26.4737C30.2586 26.4737 29.4486 25.4428 29.4486 24.1711V24.1711C29.4486 22.8994 30.2586 21.8684 31.2578 21.8684L56.5868 21.8684C57.586 21.8684 58.396 22.8994 58.396 24.1711V24.1711Z" fill="#18B39A"/>
</svg>
