<svg width="190" height="190" viewBox="0 0 190 190" fill="none" xmlns="http://www.w3.org/2000/svg">
<path d="M95 190C147.467 190 190 147.467 190 95C190 42.5329 147.467 0 95 0C42.5329 0 0 42.5329 0 95C0 147.467 42.5329 190 95 190Z" fill="#3A3A3A"/>
<path d="M95 175.354C139.378 175.354 175.354 139.378 175.354 95C175.354 50.6217 139.378 14.646 95 14.646C50.6217 14.646 14.646 50.6217 14.646 95C14.646 139.378 50.6217 175.354 95 175.354Z" fill="#F2F2F2"/>
<path d="M95 20.1875V45.521C81.1459 45.521 68.875 51.0625 59.7709 60.1669L41.9584 42.3544C55.4165 28.5 74.4165 20.1875 95 20.1875Z" fill="#61D1BE"/>
<path d="M60.1665 59.771C51.0625 68.875 45.5206 81.146 45.5206 94.6044H20.1875C20.1875 74.021 28.5 55.021 41.9585 41.5629L60.1665 59.771Z" fill="#9BE4D9"/>
<path d="M148.042 41.9585L130.229 59.771C121.125 50.6669 108.854 45.125 95.3956 45.125V20.1875C115.583 20.1875 134.583 28.5 148.042 41.9585Z" fill="#39BFA9"/>
<path d="M169.813 95H144.479C144.479 81.146 138.938 68.875 129.833 60.1666L147.646 42.3541C161.5 55.4166 169.813 74.4166 169.813 95Z" fill="#009B81"/>
<path d="M169.813 95C169.813 115.583 161.5 134.583 148.042 148.042L130.229 130.229C139.334 121.125 144.875 108.854 144.875 95H169.813Z" fill="#007763"/>
<path d="M60.1665 129.833L42.354 147.646C28.5 134.583 20.1875 115.583 20.1875 95H45.521C45.521 108.854 51.0625 121.125 60.1665 129.833Z" fill="#CDD6E0"/>
<path d="M100.938 112.417C95 115.979 87.4791 114 83.9166 108.063C80.3541 102.125 82.3331 94.604 88.2706 91.0415C94.2081 87.479 156.75 64.125 156.75 64.125C156.75 64.125 106.875 108.854 100.938 112.417Z" fill="#40596B"/>
<path d="M95 106.875C98.0605 106.875 100.542 104.394 100.542 101.333C100.542 98.273 98.0605 95.7919 95 95.7919C91.9395 95.7919 89.4584 98.273 89.4584 101.333C89.4584 104.394 91.9395 106.875 95 106.875Z" fill="white"/>
<path opacity="0.15" d="M41.9585 49.875C55.4165 36.4165 74.4165 28.104 95 28.104C115.583 28.104 134.583 36.4165 148.042 49.875C160.708 62.5415 168.625 79.9585 169.813 98.9585C169.813 97.771 170.208 96.1875 170.208 95C170.208 74.4165 161.896 55.4165 148.438 41.9585C134.583 28.5 115.583 20.1875 95 20.1875C74.4165 20.1875 55.4165 28.5 41.9585 41.9585C28.5004 55.4169 20.1875 74.4165 20.1875 95C20.1875 96.1875 20.1875 97.771 20.5835 98.9585C21.375 79.9585 29.2915 62.5415 41.9585 49.875Z" fill="#40596B"/>
</svg>
