<svg width="241" height="241" viewBox="0 0 241 241" fill="none" xmlns="http://www.w3.org/2000/svg">
<path d="M120.5 241C184.191 241 235.822 189.368 235.822 125.678C235.822 61.987 184.191 10.3555 120.5 10.3555C56.8093 10.3555 5.17773 61.987 5.17773 125.678C5.17773 189.368 56.8093 241 120.5 241Z" fill="#18B39A"/>
<path d="M23.0645 24.2412V144.035C23.0645 145.33 24.1235 146.389 25.418 146.389H65.4725C62.4858 139.29 60.8327 131.496 60.8327 123.324C60.8327 90.423 87.5993 63.6565 120.5 63.6565C153.401 63.6565 180.167 90.423 180.167 123.324C180.167 131.496 178.514 139.29 175.528 146.389H215.582C216.876 146.389 217.936 145.33 217.936 144.035V24.2412H23.0645Z" fill="#72D1C2"/>
<path d="M32.4041 144.035V24.2412H23.0645V144.035C23.0645 145.33 24.1235 146.389 25.418 146.389H34.7577C33.4632 146.389 32.4041 145.33 32.4041 144.035Z" fill="#9CE4D9"/>
<path d="M120.5 183.463C87.3394 183.463 60.362 156.485 60.362 123.324C60.362 90.1637 87.3394 63.1858 120.5 63.1858C153.661 63.1858 180.638 90.1641 180.638 123.324C180.638 156.484 153.661 183.463 120.5 183.463Z" fill="white" fill-opacity="0.59"/>
<path d="M213.229 0H27.7715C25.1826 0 23.0645 2.11816 23.0645 4.70703V24.7119H217.936V4.70703C217.936 2.11816 215.817 0 213.229 0Z" fill="#636363"/>
<path d="M37.1112 0H27.7715C25.1826 0 23.0645 2.11816 23.0645 4.70703V24.7119H32.4041V4.70703C32.4041 2.11816 34.5223 0 37.1112 0Z" fill="#3A3A3A"/>
<path d="M213.229 0H177.846V24.7119H217.936V4.70703C217.936 2.11816 215.817 0 213.229 0Z" fill="#3A3A3A"/>
<path d="M120.5 171.143C146.925 171.143 168.347 149.721 168.347 123.296C168.347 96.8708 146.925 75.449 120.5 75.449C94.0748 75.449 72.653 96.8708 72.653 123.296C72.653 149.721 94.0748 171.143 120.5 171.143Z" fill="#37C47A"/>
<path d="M81.9908 123.298C81.9908 98.4466 100.936 78.0233 125.169 75.6754C123.633 75.5267 122.075 75.4485 120.5 75.4485C94.0738 75.4485 72.6511 96.8712 72.6511 123.298C72.6511 149.725 94.0743 171.147 120.5 171.147C122.075 171.147 123.633 171.068 125.169 170.919C100.936 168.572 81.9908 148.149 81.9908 123.298Z" fill="#02AF8E"/>
<path d="M171.879 123.298C171.879 94.9672 148.83 71.9183 120.5 71.9183C92.1688 71.9183 69.1209 94.9672 69.1209 123.298C69.1209 151.414 91.8224 174.324 119.858 174.669C120.066 174.707 120.28 174.73 120.5 174.73C120.719 174.73 120.933 174.707 121.141 174.669C149.177 174.324 171.879 151.414 171.879 123.298ZM76.3222 126.828H92.7511C92.9747 133.195 93.7984 139.211 95.1234 144.689C91.0072 145.642 87.2203 146.831 83.8821 148.234C79.65 142.04 76.9473 134.722 76.3222 126.828ZM83.8821 98.3605C87.2203 99.7641 91.0072 100.954 95.123 101.906C93.798 107.385 92.9742 113.401 92.7506 119.768H76.3217C76.9472 111.873 79.65 104.555 83.8821 98.3605ZM164.678 119.768H148.249C148.025 113.401 147.202 107.384 145.877 101.906C149.992 100.954 153.779 99.7641 157.117 98.3605C161.35 104.555 164.053 111.873 164.678 119.768ZM141.181 119.768H124.03V104.564C129.213 104.422 134.241 103.969 138.969 103.233C140.175 108.157 140.958 113.713 141.181 119.768ZM124.03 97.5V79.7061C128.9 81.6698 133.618 87.5786 136.882 96.3925C132.787 96.9907 128.457 97.3678 124.03 97.5ZM116.969 79.7056V97.5C112.543 97.3682 108.212 96.9907 104.117 96.3925C107.381 87.5776 112.099 81.6694 116.969 79.7056ZM116.969 104.564V119.768H99.8192C100.042 113.713 100.824 108.158 102.031 103.233C106.759 103.969 111.786 104.422 116.969 104.564ZM99.8192 126.828H116.969V142.032C111.786 142.174 106.759 142.627 102.031 143.363C100.824 138.438 100.042 132.883 99.8192 126.828ZM116.969 149.096V166.89C112.099 164.926 107.381 159.018 104.117 150.204C108.212 149.605 112.543 149.228 116.969 149.096ZM124.03 166.89V149.096C128.457 149.228 132.787 149.605 136.882 150.203C133.618 159.018 128.9 164.925 124.03 166.89ZM124.03 142.032V126.828H141.181C140.958 132.883 140.175 138.438 138.969 143.363C134.241 142.627 129.213 142.174 124.03 142.032ZM148.249 126.828H164.678C164.053 134.722 161.35 142.04 157.118 148.235C153.78 146.831 149.993 145.642 145.877 144.689C147.202 139.211 148.026 133.195 148.249 126.828ZM152.447 92.6127C149.856 93.572 146.974 94.4066 143.878 95.1046C142.164 90.2013 140.008 85.8982 137.505 82.3731C143.175 84.7379 148.252 88.2474 152.447 92.6127ZM103.494 82.3735C100.991 85.8986 98.8354 90.2013 97.1216 95.1042C94.0262 94.4066 91.1437 93.5716 88.5534 92.6127C92.7473 88.2474 97.8243 84.7383 103.494 82.3735ZM88.5524 153.983C91.1427 153.024 94.0258 152.189 97.1216 151.491C98.8354 156.394 100.991 160.698 103.494 164.222C97.8243 161.857 92.7469 158.348 88.5524 153.983ZM137.504 164.223C140.008 160.698 142.164 156.394 143.878 151.491C146.974 152.189 149.856 153.024 152.447 153.983C148.253 158.348 143.175 161.857 137.504 164.223Z" fill="#636363"/>
<path d="M79.8807 219.87C78.421 219.87 77.1082 218.971 76.5843 217.603L68.6007 196.761C67.9036 194.941 68.814 192.899 70.6347 192.202C72.4558 191.506 74.4968 192.416 75.1943 194.236L79.651 205.87L82.0558 198.657C82.5364 197.216 83.8854 196.244 85.4048 196.244C86.9243 196.244 88.2733 197.216 88.7539 198.657L91.1583 205.87L95.6149 194.236C96.3125 192.415 98.3539 191.506 100.175 192.202C101.995 192.9 102.906 194.941 102.208 196.761L94.2244 217.603C93.6911 218.996 92.3444 219.904 90.8499 219.869C89.3592 219.837 88.0502 218.871 87.5786 217.456L85.4044 210.935L83.2302 217.456C82.759 218.871 81.4495 219.837 79.9588 219.869C79.9329 219.87 79.9066 219.87 79.8807 219.87Z" fill="#45D7BF"/>
<path d="M114.976 219.87C113.517 219.87 112.204 218.971 111.68 217.603L103.696 196.761C102.999 194.941 103.91 192.899 105.73 192.202C107.551 191.506 109.592 192.416 110.29 194.236L114.747 205.87L117.151 198.657C117.632 197.216 118.981 196.244 120.5 196.244C122.02 196.244 123.369 197.216 123.85 198.657L126.254 205.87L130.71 194.236C131.408 192.415 133.45 191.506 135.27 192.202C137.091 192.9 138.001 194.941 137.304 196.761L129.32 217.603C128.787 218.996 127.443 219.904 125.946 219.869C124.455 219.837 123.146 218.871 122.674 217.456L120.5 210.935L118.326 217.456C117.855 218.871 116.545 219.837 115.054 219.869C115.029 219.87 115.002 219.87 114.976 219.87Z" fill="#45D7BF"/>
<path d="M150.071 219.87C148.612 219.87 147.299 218.971 146.775 217.603L138.792 196.761C138.094 194.941 139.005 192.899 140.825 192.202C142.646 191.506 144.687 192.416 145.385 194.236L149.842 205.87L152.247 198.657C152.727 197.216 154.076 196.244 155.596 196.244C157.115 196.244 158.464 197.216 158.945 198.657L161.349 205.87L165.806 194.236C166.503 192.415 168.545 191.506 170.365 192.202C172.186 192.9 173.096 194.941 172.399 196.761L164.415 217.603C163.882 218.996 162.541 219.904 161.041 219.869C159.55 219.837 158.241 218.871 157.769 217.456L155.595 210.935L153.421 217.456C152.95 218.871 151.64 219.837 150.15 219.869C150.124 219.87 150.097 219.87 150.071 219.87Z" fill="#45D7BF"/>
<path d="M39.0651 15.1251C38.1331 15.1251 37.2246 14.7481 36.5656 14.0938C35.9114 13.4348 35.5348 12.5263 35.5348 11.5948C35.5348 10.6671 35.9114 9.75908 36.5656 9.09962C37.2241 8.44064 38.1331 8.06454 39.0651 8.06454C39.9923 8.06454 40.9055 8.44064 41.5593 9.09962C42.2183 9.75861 42.5953 10.6671 42.5953 11.5948C42.5953 12.5263 42.2188 13.4343 41.5593 14.0938C40.9055 14.7481 39.9919 15.1251 39.0651 15.1251Z" fill="#E26693"/>
<path d="M50.6415 15.1251C49.7143 15.1251 48.8011 14.7481 48.1468 14.0891C47.4878 13.4343 47.1113 12.5263 47.1113 11.5948C47.1113 10.6671 47.4878 9.75908 48.1468 9.09962C48.8058 8.44064 49.7143 8.06454 50.6415 8.06454C51.5735 8.06454 52.4815 8.44064 53.141 9.09962C53.7953 9.75861 54.1718 10.6671 54.1718 11.5948C54.1718 12.5216 53.7953 13.4343 53.141 14.0891C52.482 14.7481 51.5735 15.1251 50.6415 15.1251Z" fill="#FFCA51"/>
<path d="M62.2232 15.1251C61.2912 15.1251 60.3827 14.7481 59.7289 14.0938C59.0699 13.4348 58.6929 12.5263 58.6929 11.5948C58.6929 10.6671 59.0695 9.75908 59.7289 9.09962C60.3827 8.44064 61.2912 8.06454 62.2232 8.06454C63.1505 8.06454 64.0636 8.44064 64.7179 9.09962C65.3769 9.75861 65.7535 10.6671 65.7535 11.5948C65.7535 12.5263 65.3769 13.4343 64.7179 14.0938C64.0589 14.7481 63.1505 15.1251 62.2232 15.1251Z" fill="#37C47A"/>
<path d="M175.572 36.2441C175.572 35.4675 174.937 34.832 174.16 34.832H66.8398C66.0632 34.832 65.4277 35.4675 65.4277 36.2441V48.4824C65.4277 49.2591 66.0632 49.8945 66.8398 49.8945H174.16C174.937 49.8945 175.572 49.2591 175.572 48.4824V36.2441Z" fill="white"/>
<path d="M74.7674 48.4824V36.2441C74.7674 35.4675 75.4029 34.832 76.1795 34.832H66.8398C66.0632 34.832 65.4277 35.4675 65.4277 36.2441V48.4824C65.4277 49.2591 66.0632 49.8945 66.8398 49.8945H76.1795C75.4029 49.8945 74.7674 49.2591 74.7674 48.4824Z" fill="#EEF6FF"/>
<path d="M203.344 15.1251H192.047C190.097 15.1251 188.517 13.5449 188.517 11.5948C188.517 9.6447 190.097 8.06454 192.047 8.06454H203.344C205.293 8.06454 206.874 9.6447 206.874 11.5948C206.874 13.5449 205.293 15.1251 203.344 15.1251Z" fill="#18B39A"/>
</svg>
