<svg width="41" height="40" viewBox="0 0 41 40" fill="none" xmlns="http://www.w3.org/2000/svg">
<circle cx="20" cy="20" r="20" fill="black"/>
<path fill-rule="evenodd" clip-rule="evenodd" d="M17.3346 30C17.8599 30 18.2857 29.5823 18.2857 29.0688V10.9312C18.2857 10.4169 17.8591 10 17.3346 10H14.9511C14.4258 10 14 10.4177 14 10.9312L14 29.0688C14 29.5831 14.4266 30 14.9511 30H17.3346Z" fill="#40514E"/>
<path fill-rule="evenodd" clip-rule="evenodd" d="M25.906 30C26.4313 30 26.8571 29.5823 26.8571 29.0688V10.9312C26.8571 10.4169 26.4305 10 25.906 10H23.5225C22.9973 10 22.5714 10.4177 22.5714 10.9312V29.0688C22.5714 29.5831 22.998 30 23.5225 30H25.906Z" fill="#40514E"/>
</svg>
