<svg width="33" height="30" viewBox="0 0 33 30" fill="none" xmlns="http://www.w3.org/2000/svg">
<mask id="path-1-outside-1" maskUnits="userSpaceOnUse" x="-0.413025" y="-0.139008" width="33" height="30" fill="black">
<rect fill="white" x="-0.413025" y="-0.139008" width="33" height="30"/>
<path d="M10.8969 8.29904C10.8994 8.30173 10.8999 8.30523 10.9022 8.30799C10.9959 8.42183 10.9858 8.5894 10.8743 8.68821C10.5067 9.01548 10.1633 9.37665 9.85325 9.76125C8.34556 11.629 7.65604 13.9721 7.91118 16.3585C8.16632 18.7452 9.3349 20.8891 11.2027 22.396C11.6174 22.7314 12.0659 23.0216 12.5311 23.2772L13.0761 22.0064L13.9497 24.1925L13.9545 24.2045L11.7566 25.0835L12.3126 23.7869C11.8015 23.5097 11.3099 23.1917 10.8566 22.8247C8.87468 21.2258 7.63343 18.95 7.36322 16.4172C7.09247 13.8844 7.82452 11.3976 9.42425 9.41514C9.75313 9.00713 10.1175 8.62389 10.5083 8.27643C10.6208 8.17497 10.7952 8.1852 10.8969 8.29904ZM20.1643 16.6952C20.1643 17.9731 19.2928 18.9053 17.8185 19.2226V19.7157C17.8185 19.868 17.6953 19.9913 17.5429 19.9913H15.7193C15.567 19.9913 15.4437 19.868 15.4437 19.7157V19.27C14.913 19.1917 14.3386 19.0491 13.6583 18.8281C13.5162 18.7818 13.4365 18.6305 13.479 18.4874L13.9252 16.9886C13.9678 16.8454 14.1153 16.7614 14.2617 16.8012C16.0153 17.2765 16.3701 17.2986 16.8927 17.2986C17.4848 17.2986 17.5607 17.0182 17.5607 16.7741C17.5607 16.5881 17.5203 16.4347 17.0117 16.2961L15.5842 15.9134C14.6045 15.6475 13.4806 15.1402 13.4806 13.5622C13.4806 12.3735 14.3289 11.4646 15.7118 11.15V10.6545C15.7118 10.5022 15.835 10.3789 15.9873 10.3789H17.8105C17.9628 10.3789 18.0861 10.5022 18.0861 10.6545V11.0811C18.4924 11.1282 18.9925 11.2162 19.5776 11.3429C19.6503 11.3588 19.7132 11.4032 19.7525 11.4662C19.7918 11.5295 19.8042 11.6056 19.7864 11.678L19.4166 13.1884C19.3817 13.3329 19.2406 13.4242 19.0921 13.3924C17.811 13.1206 17.2647 13.0377 16.7522 13.0377C16.0589 13.0377 16.0589 13.4239 16.0589 13.5509C16.0589 13.6457 16.0589 13.8039 16.6338 13.9611L18.0608 14.3441C19.4759 14.7179 20.1643 15.4871 20.1643 16.6952ZM17.4977 18.7226C18.134 18.6174 19.6131 18.2094 19.6131 16.6952C19.6131 15.747 19.0905 15.1862 17.9186 14.8767L16.4895 14.4932C16.032 14.368 15.5077 14.1481 15.5077 13.5509C15.5077 12.8942 15.9847 12.4865 16.7522 12.4865C17.2706 12.4865 17.804 12.5608 18.9451 12.7982L19.1836 11.8233C18.6195 11.7076 18.1512 11.6344 17.7884 11.6053C17.6452 11.5938 17.5349 11.4743 17.5349 11.3306V10.9301H16.2629V11.3758C16.2629 11.5098 16.1666 11.6245 16.0342 11.6473C14.7994 11.8616 14.0318 12.5952 14.0318 13.5622C14.0318 14.54 14.5071 15.05 15.7279 15.3813L17.1554 15.764C17.6011 15.8854 18.1119 16.1096 18.1119 16.7741C18.1119 17.4477 17.656 17.8498 16.8927 17.8498C16.3071 17.8498 15.8958 17.8078 14.3768 17.403L14.0846 18.3848C14.7197 18.5797 15.2542 18.6981 15.7505 18.7541C15.8894 18.77 15.9949 18.8878 15.9949 19.0281V19.4401H17.2673V18.9944C17.2673 18.8596 17.3648 18.7444 17.4977 18.7226ZM32.3308 1.13659V28.6318C32.3308 28.7833 32.2086 28.9063 32.0568 28.9074L17.5763 29C17.5758 29 17.5752 29 17.5747 29C17.502 29 17.4321 28.9712 17.3804 28.9198C17.3282 28.8681 17.2991 28.7979 17.2991 28.7244V24.9142C17.1433 24.9219 16.9889 24.9404 16.8324 24.9404C16.4587 24.9404 16.0833 24.9106 15.708 24.866V28.6318C15.708 28.7842 15.5847 28.9074 15.4324 28.9074H0.862568C0.710238 28.9074 0.586975 28.7842 0.586975 28.6318V1.23024C0.586975 1.07791 0.710238 0.954651 0.862568 0.954651H15.4324C15.5847 0.954651 15.708 1.07791 15.708 1.23024V5.93743C16.2378 5.87428 16.7697 5.85955 17.2991 5.88515V1.23024C17.2991 1.07872 17.4213 0.955727 17.5731 0.954651L32.0536 0.860992C32.0541 0.860992 32.0546 0.860992 32.0552 0.860992C32.1278 0.860992 32.1978 0.88979 32.2495 0.941194C32.3017 0.992868 32.3308 1.06311 32.3308 1.13659ZM31.7796 1.41406L17.8503 1.50395V5.9273C19.6454 6.11845 21.3823 6.81218 22.8336 7.98335C24.1399 9.03754 25.1476 10.419 25.7461 11.9781C25.8005 12.1202 25.73 12.2795 25.5879 12.3342C25.5851 12.3352 25.5822 12.3348 25.5793 12.3357C25.5493 12.346 25.5189 12.3525 25.4888 12.3525C25.378 12.3525 25.2735 12.2852 25.2316 12.1756C24.6674 10.707 23.7185 9.40572 22.4875 8.41235C20.0223 6.42257 16.6876 5.88784 13.7234 6.9822L14.3244 8.2438L12.1015 7.45521L12.0935 7.45238L12.8844 5.2213L13.4854 6.48279C14.0329 6.27697 14.5917 6.12013 15.1568 6.01897V1.50584H1.13816V28.3562H15.1568V24.7356C15.0969 24.6751 15.0622 24.5913 15.0771 24.5009C15.0775 24.4985 15.0792 24.4968 15.0796 24.4944C15.1067 24.3476 15.249 24.2486 15.3931 24.2729C18.5796 24.7918 21.8136 23.5549 23.8374 21.0471C25.088 19.4961 25.7831 17.5621 25.821 15.5774L24.4308 15.6774L25.9697 13.9005L25.9805 13.888L27.7702 15.4372L26.3735 15.5377C26.3443 17.6619 25.6045 19.734 24.2664 21.3932C22.6601 23.3834 20.3344 24.6166 17.8503 24.8833V28.4469L31.7796 28.3581V1.41406Z"/>
</mask>
<path d="M10.8969 8.29904C10.8994 8.30173 10.8999 8.30523 10.9022 8.30799C10.9959 8.42183 10.9858 8.5894 10.8743 8.68821C10.5067 9.01548 10.1633 9.37665 9.85325 9.76125C8.34556 11.629 7.65604 13.9721 7.91118 16.3585C8.16632 18.7452 9.3349 20.8891 11.2027 22.396C11.6174 22.7314 12.0659 23.0216 12.5311 23.2772L13.0761 22.0064L13.9497 24.1925L13.9545 24.2045L11.7566 25.0835L12.3126 23.7869C11.8015 23.5097 11.3099 23.1917 10.8566 22.8247C8.87468 21.2258 7.63343 18.95 7.36322 16.4172C7.09247 13.8844 7.82452 11.3976 9.42425 9.41514C9.75313 9.00713 10.1175 8.62389 10.5083 8.27643C10.6208 8.17497 10.7952 8.1852 10.8969 8.29904ZM20.1643 16.6952C20.1643 17.9731 19.2928 18.9053 17.8185 19.2226V19.7157C17.8185 19.868 17.6953 19.9913 17.5429 19.9913H15.7193C15.567 19.9913 15.4437 19.868 15.4437 19.7157V19.27C14.913 19.1917 14.3386 19.0491 13.6583 18.8281C13.5162 18.7818 13.4365 18.6305 13.479 18.4874L13.9252 16.9886C13.9678 16.8454 14.1153 16.7614 14.2617 16.8012C16.0153 17.2765 16.3701 17.2986 16.8927 17.2986C17.4848 17.2986 17.5607 17.0182 17.5607 16.7741C17.5607 16.5881 17.5203 16.4347 17.0117 16.2961L15.5842 15.9134C14.6045 15.6475 13.4806 15.1402 13.4806 13.5622C13.4806 12.3735 14.3289 11.4646 15.7118 11.15V10.6545C15.7118 10.5022 15.835 10.3789 15.9873 10.3789H17.8105C17.9628 10.3789 18.0861 10.5022 18.0861 10.6545V11.0811C18.4924 11.1282 18.9925 11.2162 19.5776 11.3429C19.6503 11.3588 19.7132 11.4032 19.7525 11.4662C19.7918 11.5295 19.8042 11.6056 19.7864 11.678L19.4166 13.1884C19.3817 13.3329 19.2406 13.4242 19.0921 13.3924C17.811 13.1206 17.2647 13.0377 16.7522 13.0377C16.0589 13.0377 16.0589 13.4239 16.0589 13.5509C16.0589 13.6457 16.0589 13.8039 16.6338 13.9611L18.0608 14.3441C19.4759 14.7179 20.1643 15.4871 20.1643 16.6952ZM17.4977 18.7226C18.134 18.6174 19.6131 18.2094 19.6131 16.6952C19.6131 15.747 19.0905 15.1862 17.9186 14.8767L16.4895 14.4932C16.032 14.368 15.5077 14.1481 15.5077 13.5509C15.5077 12.8942 15.9847 12.4865 16.7522 12.4865C17.2706 12.4865 17.804 12.5608 18.9451 12.7982L19.1836 11.8233C18.6195 11.7076 18.1512 11.6344 17.7884 11.6053C17.6452 11.5938 17.5349 11.4743 17.5349 11.3306V10.9301H16.2629V11.3758C16.2629 11.5098 16.1666 11.6245 16.0342 11.6473C14.7994 11.8616 14.0318 12.5952 14.0318 13.5622C14.0318 14.54 14.5071 15.05 15.7279 15.3813L17.1554 15.764C17.6011 15.8854 18.1119 16.1096 18.1119 16.7741C18.1119 17.4477 17.656 17.8498 16.8927 17.8498C16.3071 17.8498 15.8958 17.8078 14.3768 17.403L14.0846 18.3848C14.7197 18.5797 15.2542 18.6981 15.7505 18.7541C15.8894 18.77 15.9949 18.8878 15.9949 19.0281V19.4401H17.2673V18.9944C17.2673 18.8596 17.3648 18.7444 17.4977 18.7226ZM32.3308 1.13659V28.6318C32.3308 28.7833 32.2086 28.9063 32.0568 28.9074L17.5763 29C17.5758 29 17.5752 29 17.5747 29C17.502 29 17.4321 28.9712 17.3804 28.9198C17.3282 28.8681 17.2991 28.7979 17.2991 28.7244V24.9142C17.1433 24.9219 16.9889 24.9404 16.8324 24.9404C16.4587 24.9404 16.0833 24.9106 15.708 24.866V28.6318C15.708 28.7842 15.5847 28.9074 15.4324 28.9074H0.862568C0.710238 28.9074 0.586975 28.7842 0.586975 28.6318V1.23024C0.586975 1.07791 0.710238 0.954651 0.862568 0.954651H15.4324C15.5847 0.954651 15.708 1.07791 15.708 1.23024V5.93743C16.2378 5.87428 16.7697 5.85955 17.2991 5.88515V1.23024C17.2991 1.07872 17.4213 0.955727 17.5731 0.954651L32.0536 0.860992C32.0541 0.860992 32.0546 0.860992 32.0552 0.860992C32.1278 0.860992 32.1978 0.88979 32.2495 0.941194C32.3017 0.992868 32.3308 1.06311 32.3308 1.13659ZM31.7796 1.41406L17.8503 1.50395V5.9273C19.6454 6.11845 21.3823 6.81218 22.8336 7.98335C24.1399 9.03754 25.1476 10.419 25.7461 11.9781C25.8005 12.1202 25.73 12.2795 25.5879 12.3342C25.5851 12.3352 25.5822 12.3348 25.5793 12.3357C25.5493 12.346 25.5189 12.3525 25.4888 12.3525C25.378 12.3525 25.2735 12.2852 25.2316 12.1756C24.6674 10.707 23.7185 9.40572 22.4875 8.41235C20.0223 6.42257 16.6876 5.88784 13.7234 6.9822L14.3244 8.2438L12.1015 7.45521L12.0935 7.45238L12.8844 5.2213L13.4854 6.48279C14.0329 6.27697 14.5917 6.12013 15.1568 6.01897V1.50584H1.13816V28.3562H15.1568V24.7356C15.0969 24.6751 15.0622 24.5913 15.0771 24.5009C15.0775 24.4985 15.0792 24.4968 15.0796 24.4944C15.1067 24.3476 15.249 24.2486 15.3931 24.2729C18.5796 24.7918 21.8136 23.5549 23.8374 21.0471C25.088 19.4961 25.7831 17.5621 25.821 15.5774L24.4308 15.6774L25.9697 13.9005L25.9805 13.888L27.7702 15.4372L26.3735 15.5377C26.3443 17.6619 25.6045 19.734 24.2664 21.3932C22.6601 23.3834 20.3344 24.6166 17.8503 24.8833V28.4469L31.7796 28.3581V1.41406Z" fill="#216583"/>
<path d="M10.8969 8.29904C10.8994 8.30173 10.8999 8.30523 10.9022 8.30799C10.9959 8.42183 10.9858 8.5894 10.8743 8.68821C10.5067 9.01548 10.1633 9.37665 9.85325 9.76125C8.34556 11.629 7.65604 13.9721 7.91118 16.3585C8.16632 18.7452 9.3349 20.8891 11.2027 22.396C11.6174 22.7314 12.0659 23.0216 12.5311 23.2772L13.0761 22.0064L13.9497 24.1925L13.9545 24.2045L11.7566 25.0835L12.3126 23.7869C11.8015 23.5097 11.3099 23.1917 10.8566 22.8247C8.87468 21.2258 7.63343 18.95 7.36322 16.4172C7.09247 13.8844 7.82452 11.3976 9.42425 9.41514C9.75313 9.00713 10.1175 8.62389 10.5083 8.27643C10.6208 8.17497 10.7952 8.1852 10.8969 8.29904ZM20.1643 16.6952C20.1643 17.9731 19.2928 18.9053 17.8185 19.2226V19.7157C17.8185 19.868 17.6953 19.9913 17.5429 19.9913H15.7193C15.567 19.9913 15.4437 19.868 15.4437 19.7157V19.27C14.913 19.1917 14.3386 19.0491 13.6583 18.8281C13.5162 18.7818 13.4365 18.6305 13.479 18.4874L13.9252 16.9886C13.9678 16.8454 14.1153 16.7614 14.2617 16.8012C16.0153 17.2765 16.3701 17.2986 16.8927 17.2986C17.4848 17.2986 17.5607 17.0182 17.5607 16.7741C17.5607 16.5881 17.5203 16.4347 17.0117 16.2961L15.5842 15.9134C14.6045 15.6475 13.4806 15.1402 13.4806 13.5622C13.4806 12.3735 14.3289 11.4646 15.7118 11.15V10.6545C15.7118 10.5022 15.835 10.3789 15.9873 10.3789H17.8105C17.9628 10.3789 18.0861 10.5022 18.0861 10.6545V11.0811C18.4924 11.1282 18.9925 11.2162 19.5776 11.3429C19.6503 11.3588 19.7132 11.4032 19.7525 11.4662C19.7918 11.5295 19.8042 11.6056 19.7864 11.678L19.4166 13.1884C19.3817 13.3329 19.2406 13.4242 19.0921 13.3924C17.811 13.1206 17.2647 13.0377 16.7522 13.0377C16.0589 13.0377 16.0589 13.4239 16.0589 13.5509C16.0589 13.6457 16.0589 13.8039 16.6338 13.9611L18.0608 14.3441C19.4759 14.7179 20.1643 15.4871 20.1643 16.6952ZM17.4977 18.7226C18.134 18.6174 19.6131 18.2094 19.6131 16.6952C19.6131 15.747 19.0905 15.1862 17.9186 14.8767L16.4895 14.4932C16.032 14.368 15.5077 14.1481 15.5077 13.5509C15.5077 12.8942 15.9847 12.4865 16.7522 12.4865C17.2706 12.4865 17.804 12.5608 18.9451 12.7982L19.1836 11.8233C18.6195 11.7076 18.1512 11.6344 17.7884 11.6053C17.6452 11.5938 17.5349 11.4743 17.5349 11.3306V10.9301H16.2629V11.3758C16.2629 11.5098 16.1666 11.6245 16.0342 11.6473C14.7994 11.8616 14.0318 12.5952 14.0318 13.5622C14.0318 14.54 14.5071 15.05 15.7279 15.3813L17.1554 15.764C17.6011 15.8854 18.1119 16.1096 18.1119 16.7741C18.1119 17.4477 17.656 17.8498 16.8927 17.8498C16.3071 17.8498 15.8958 17.8078 14.3768 17.403L14.0846 18.3848C14.7197 18.5797 15.2542 18.6981 15.7505 18.7541C15.8894 18.77 15.9949 18.8878 15.9949 19.0281V19.4401H17.2673V18.9944C17.2673 18.8596 17.3648 18.7444 17.4977 18.7226ZM32.3308 1.13659V28.6318C32.3308 28.7833 32.2086 28.9063 32.0568 28.9074L17.5763 29C17.5758 29 17.5752 29 17.5747 29C17.502 29 17.4321 28.9712 17.3804 28.9198C17.3282 28.8681 17.2991 28.7979 17.2991 28.7244V24.9142C17.1433 24.9219 16.9889 24.9404 16.8324 24.9404C16.4587 24.9404 16.0833 24.9106 15.708 24.866V28.6318C15.708 28.7842 15.5847 28.9074 15.4324 28.9074H0.862568C0.710238 28.9074 0.586975 28.7842 0.586975 28.6318V1.23024C0.586975 1.07791 0.710238 0.954651 0.862568 0.954651H15.4324C15.5847 0.954651 15.708 1.07791 15.708 1.23024V5.93743C16.2378 5.87428 16.7697 5.85955 17.2991 5.88515V1.23024C17.2991 1.07872 17.4213 0.955727 17.5731 0.954651L32.0536 0.860992C32.0541 0.860992 32.0546 0.860992 32.0552 0.860992C32.1278 0.860992 32.1978 0.88979 32.2495 0.941194C32.3017 0.992868 32.3308 1.06311 32.3308 1.13659ZM31.7796 1.41406L17.8503 1.50395V5.9273C19.6454 6.11845 21.3823 6.81218 22.8336 7.98335C24.1399 9.03754 25.1476 10.419 25.7461 11.9781C25.8005 12.1202 25.73 12.2795 25.5879 12.3342C25.5851 12.3352 25.5822 12.3348 25.5793 12.3357C25.5493 12.346 25.5189 12.3525 25.4888 12.3525C25.378 12.3525 25.2735 12.2852 25.2316 12.1756C24.6674 10.707 23.7185 9.40572 22.4875 8.41235C20.0223 6.42257 16.6876 5.88784 13.7234 6.9822L14.3244 8.2438L12.1015 7.45521L12.0935 7.45238L12.8844 5.2213L13.4854 6.48279C14.0329 6.27697 14.5917 6.12013 15.1568 6.01897V1.50584H1.13816V28.3562H15.1568V24.7356C15.0969 24.6751 15.0622 24.5913 15.0771 24.5009C15.0775 24.4985 15.0792 24.4968 15.0796 24.4944C15.1067 24.3476 15.249 24.2486 15.3931 24.2729C18.5796 24.7918 21.8136 23.5549 23.8374 21.0471C25.088 19.4961 25.7831 17.5621 25.821 15.5774L24.4308 15.6774L25.9697 13.9005L25.9805 13.888L27.7702 15.4372L26.3735 15.5377C26.3443 17.6619 25.6045 19.734 24.2664 21.3932C22.6601 23.3834 20.3344 24.6166 17.8503 24.8833V28.4469L31.7796 28.3581V1.41406Z" stroke="#216583" stroke-width="0.4" mask="url(#path-1-outside-1)"/>
</svg>
