<svg width="30" height="29" viewBox="0 0 30 29" fill="none" xmlns="http://www.w3.org/2000/svg">
<path d="M13.4842 8.33288H13.5197V8.28288C13.5197 7.38681 14.2434 6.66314 15.1395 6.66314C16.0356 6.66314 16.7592 7.38681 16.7592 8.28288V9.26315H13.4842V8.33288ZM12.0132 15.5803H18.3013C18.4193 15.5803 18.5214 15.5407 18.5942 15.4679C18.6671 15.3951 18.7066 15.2929 18.7066 15.175V9.66841C18.7066 9.55047 18.6671 9.4483 18.5942 9.37549C18.5214 9.30268 18.4193 9.26315 18.3013 9.26315H17.6053V8.28288C17.6053 6.94079 16.5171 5.85262 15.175 5.85262C13.8329 5.85262 12.7447 6.94079 12.7447 8.28288V9.26315H12.0487C11.9308 9.26315 11.8286 9.30268 11.7558 9.37549C11.683 9.4483 11.6434 9.55047 11.6434 9.66841V15.1702C11.6048 15.3798 11.7733 15.5803 12.0132 15.5803ZM12.4184 10.0737H13.1145H17.2H17.8961V14.7697H12.4184V10.0737Z" fill="#216583" stroke="#216583" stroke-width="0.1"/>
<path d="M15.4027 13.1855V12.1521C15.5845 12.0624 15.7213 11.8439 15.7225 11.6252C15.7599 11.2739 15.4849 11.004 15.1396 11.004C14.7922 11.004 14.5212 11.275 14.5212 11.6224C14.5212 11.842 14.6584 12.062 14.8409 12.1521V13.1855V13.2355H14.8909H15.3527H15.4027V13.1855Z" fill="#216583" stroke="#216583" stroke-width="0.1"/>
<path d="M27.8224 0.95H2.45658C1.61186 0.95 0.95 1.61186 0.95 2.45658V22.4224C0.95 23.2671 1.61186 23.9289 2.45658 23.9289H14.7342V27.2395H8.17632C8.05837 27.2395 7.95621 27.279 7.8834 27.3518C7.81059 27.4246 7.77105 27.5268 7.77105 27.6447C7.77105 27.7627 7.81059 27.8648 7.8834 27.9377C7.95621 28.0105 8.05837 28.05 8.17632 28.05H22.1026C22.2206 28.05 22.3227 28.0105 22.3956 27.9377C22.4684 27.8648 22.5079 27.7627 22.5079 27.6447C22.5079 27.5268 22.4684 27.4246 22.3956 27.3518C22.3227 27.279 22.2206 27.2395 22.1026 27.2395H15.5447V23.8934H27.8224C28.6671 23.8934 29.329 23.2316 29.329 22.3868V2.45658C29.329 1.61186 28.6671 0.95 27.8224 0.95ZM2.45658 1.76053H27.8224C28.1871 1.76053 28.5184 2.05941 28.5184 2.45658V19.4237H1.76053V2.45658C1.76053 2.05788 2.05788 1.76053 2.45658 1.76053ZM27.8224 23.0829H2.45658C2.09185 23.0829 1.76053 22.784 1.76053 22.3868V20.1987H28.5184V22.3868C28.5184 22.7855 28.2211 23.0829 27.8224 23.0829Z" fill="#216583" stroke="#216583" stroke-width="0.1"/>
</svg>
