<svg width="26" height="30" viewBox="0 0 26 30" fill="none" xmlns="http://www.w3.org/2000/svg">
<path d="M7.61116 21.77H17.5484C17.7459 21.77 17.9056 21.6104 17.9056 21.4129V13.5105L18.7223 14.2152C18.7898 14.2734 18.873 14.302 18.9555 14.302C19.0555 14.302 19.1555 14.2602 19.2259 14.178C19.3548 14.0287 19.338 13.803 19.1887 13.6745L12.8132 8.17425C12.6793 8.05854 12.4803 8.05854 12.3464 8.17425L5.97013 13.6745C5.82085 13.803 5.80406 14.0287 5.93299 14.178C6.06156 14.3277 6.28655 14.3437 6.43655 14.2152L7.25367 13.5102V21.4129C7.25403 21.6104 7.41367 21.77 7.61116 21.77ZM12.5796 8.91602L17.1913 12.8945V21.0561H7.9683V12.8941L12.5796 8.91602Z" fill="#216583"/>
<path d="M11.3435 27.677C11.3557 27.6781 11.3678 27.6788 11.3803 27.6788C11.5614 27.6788 11.7164 27.5416 11.7353 27.3581C11.7553 27.1617 11.6125 26.9867 11.416 26.9663C5.44119 26.3567 0.935225 21.3414 0.935225 15.3005C0.935225 9.27637 5.54976 4.2022 11.4868 3.63114L10.2325 4.89076C10.0932 5.0304 10.0939 5.25646 10.2339 5.39574C10.3032 5.46503 10.3946 5.49967 10.4857 5.49967C10.5775 5.49967 10.6693 5.46431 10.7389 5.39432L12.6232 3.5015C12.7617 3.36222 12.7617 3.13687 12.6232 2.99759L10.7389 1.10513C10.5996 0.965851 10.3736 0.964423 10.2336 1.10406C10.0939 1.24334 10.0932 1.46941 10.2325 1.60941L11.5278 2.90973C5.17512 3.46365 0.221313 8.8728 0.221313 15.3005C0.221313 21.7093 5.00263 27.0302 11.3435 27.677Z" fill="#216583"/>
<path d="M13.8778 2.89475C13.6857 2.87832 13.5064 3.0176 13.486 3.21403C13.466 3.41045 13.6089 3.58545 13.8053 3.6058C19.7802 4.21543 24.2861 9.23067 24.2861 15.2716C24.2861 21.2957 19.6716 26.3699 13.735 26.941L14.9892 25.6813C15.1285 25.5417 15.1278 25.3156 14.9878 25.1764C14.8485 25.0371 14.6221 25.0381 14.4828 25.1778L12.5986 27.0706C12.46 27.2099 12.46 27.4352 12.5986 27.5745L14.4828 29.467C14.5524 29.5359 14.6442 29.5712 14.7356 29.5712C14.8267 29.5712 14.9181 29.5366 14.9878 29.4673C15.1274 29.328 15.1281 29.102 14.9889 28.962L13.6939 27.662C20.0466 27.1081 25 21.6989 25 15.2712C25.0004 8.86246 20.2187 3.54152 13.8778 2.89475Z" fill="#216583"/>
</svg>
