<svg width="34" height="33" viewBox="0 0 34 33" fill="none" xmlns="http://www.w3.org/2000/svg">
<path d="M14.8681 12.9552C14.0394 12.9552 13.2294 13.2009 12.5404 13.6613C11.8514 14.1217 11.3144 14.776 10.9973 15.5416C10.6801 16.3071 10.5972 17.1495 10.7588 17.9623C10.9205 18.775 11.3195 19.5215 11.9055 20.1075C12.4914 20.6934 13.238 21.0925 14.0507 21.2541C14.8634 21.4158 15.7058 21.3328 16.4714 21.0157C17.237 20.6986 17.8913 20.1616 18.3517 19.4726C18.812 18.7836 19.0578 17.9736 19.0578 17.1449C19.0578 16.5947 18.9494 16.0499 18.7388 15.5416C18.5283 15.0332 18.2197 14.5714 17.8306 14.1823C17.4416 13.7933 16.9797 13.4847 16.4714 13.2741C15.9631 13.0636 15.4183 12.9552 14.8681 12.9552ZM14.8681 20.3653C14.2229 20.3653 13.5923 20.174 13.0559 19.8156C12.5195 19.4572 12.1014 18.9477 11.8546 18.3517C11.6077 17.7557 11.5431 17.0999 11.669 16.4672C11.7948 15.8344 12.1055 15.2533 12.5616 14.7971C13.0178 14.3409 13.599 14.0303 14.2317 13.9044C14.8644 13.7786 15.5203 13.8431 16.1163 14.09C16.7123 14.3369 17.2217 14.755 17.5801 15.2914C17.9385 15.8278 18.1298 16.4584 18.1298 17.1035C18.1298 17.9686 17.7862 18.7982 17.1745 19.4099C16.5628 20.0216 15.7331 20.3653 14.8681 20.3653Z" fill="#216583" stroke="#216583" stroke-width="0.1"/>
<path d="M25.9297 5.13971V5.08971H25.8797H3.52521H3.47521V5.13971V5.96765V6.01765H3.52521H25.8797H25.9297V5.96765V5.13971Z" fill="#216583" stroke="#216583" stroke-width="0.1"/>
<path d="M23.4458 1V0.95H23.3958H6.00903H5.95903V1V1.82794V1.87794H6.00903H23.3958H23.4458V1.82794V1Z" fill="#216583" stroke="#216583" stroke-width="0.1"/>
<path d="M1 25.0189H21.69V30.392C21.69 30.782 21.8746 31.1256 22.1897 31.4195C22.5042 31.7128 22.9506 31.9589 23.4819 32.1568C24.5447 32.5527 25.9585 32.7602 27.37 32.7602C28.7812 32.7602 30.195 32.5632 31.2579 32.1724C31.7892 31.9771 32.2358 31.7322 32.5504 31.4368C32.8657 31.1407 33.05 30.792 33.05 30.392V21.4502C33.05 20.7558 32.4647 20.2158 31.5972 19.8314C30.737 19.4502 29.5799 19.2126 28.3721 19.1267V9.27942V9.22942H28.3221H1H0.95V9.27942V24.9689V25.0189H1ZM22.9419 30.8536C22.8008 30.7451 22.7081 30.6406 22.6593 30.5454V30.4334V27.2143C23.1788 27.5452 23.8894 27.7889 24.6899 27.952C25.532 28.1235 26.4772 28.2065 27.4114 28.2065C29.2329 28.2065 31.1015 27.8514 32.1635 27.2115V30.4334C32.1635 30.553 32.0648 30.7055 31.8463 30.8709C31.6311 31.0337 31.3113 31.1998 30.8977 31.3488C30.0708 31.6467 28.8762 31.8737 27.4114 31.8737C25.9466 31.8737 24.7416 31.6467 23.9045 31.3437C23.4857 31.1921 23.1609 31.0222 22.9419 30.8536ZM32.1221 21.4502C32.1221 21.5698 32.0234 21.7224 31.8049 21.8877C31.5897 22.0505 31.2699 22.2166 30.8563 22.3656C30.0294 22.6635 28.8348 22.8905 27.37 22.8905C25.9049 22.8905 24.7102 22.6738 23.8834 22.3811C23.4698 22.2346 23.1503 22.0699 22.9353 21.9053C22.7177 21.7388 22.6179 21.581 22.6179 21.4502C22.6179 21.3198 22.7198 21.162 22.9409 20.9953C23.1591 20.8306 23.4826 20.6658 23.8989 20.5193C24.7309 20.2266 25.9257 20.0099 27.37 20.0099C28.8143 20.0099 30.009 20.2266 30.8411 20.5193C31.2574 20.6658 31.5808 20.8306 31.7991 20.9953C32.0202 21.162 32.1221 21.3198 32.1221 21.4502ZM1.91934 24.091V10.1574H27.4856V19.0819H27.37C25.9794 19.0819 24.5656 19.279 23.4977 19.6697C22.9638 19.865 22.5134 20.1098 22.1956 20.4051C21.8771 20.7011 21.69 21.0499 21.69 21.4502V24.091H1.91934ZM22.6593 25.8797V22.8262C23.1788 23.1571 23.8894 23.4008 24.6899 23.5639C25.532 23.7354 26.4772 23.8184 27.4114 23.8184C29.2329 23.8184 31.1015 23.4633 32.1635 22.8234V25.8797C32.1635 25.9993 32.0648 26.1519 31.8463 26.3172C31.6311 26.48 31.3113 26.6461 30.8977 26.7951C30.0708 27.093 28.8762 27.32 27.4114 27.32C25.9463 27.32 24.7516 27.1033 23.9248 26.8106C23.5112 26.6641 23.1917 26.4994 22.9767 26.3348C22.7591 26.1683 22.6593 26.0105 22.6593 25.8797Z" fill="#216583" stroke="#216583" stroke-width="0.1"/>
</svg>
