<svg width="23" height="29" viewBox="0 0 23 29" fill="none" xmlns="http://www.w3.org/2000/svg">
<path d="M11.4219 1.00595C11.4012 1.0074 11.3806 1.01082 11.3605 1.01617L1.1187 4.6212C1.07003 4.63839 1.02612 4.66681 0.990521 4.70419C0.954926 4.74156 0.928661 4.78682 0.913863 4.83627C-0.404948 9.15675 -0.325964 14.1286 1.34405 18.4985C3.01403 22.8683 6.29605 26.6435 11.3605 28.5147C11.4332 28.5413 11.5131 28.5413 11.5858 28.5147C16.6502 26.6435 19.9322 22.8683 21.6022 18.4985C23.2722 14.1286 23.3512 9.15675 22.0324 4.83627C22.0176 4.78682 21.9913 4.74156 21.9557 4.70419C21.9201 4.66681 21.8762 4.63839 21.8276 4.6212L11.5858 1.01617C11.5329 0.998918 11.4765 0.995403 11.4219 1.00595ZM11.4731 1.68189L21.4281 5.1845C22.6572 9.32948 22.5817 14.0921 20.9877 18.2629C19.3878 22.4496 16.2883 26.0306 11.4731 27.849C6.65796 26.0306 3.5585 22.4496 1.95855 18.2629C0.364609 14.0921 0.289033 9.32948 1.51814 5.1845L11.4731 1.68189Z" fill="#216583"/>
<path fill-rule="evenodd" clip-rule="evenodd" d="M9.4266 16.5783C10.5875 17.756 12.5556 17.7427 13.681 16.5208C13.8012 16.3855 14.0176 16.3177 14.1761 16.4287C14.3462 16.5678 14.3397 16.8483 14.1992 17.0043C12.8088 18.5211 10.3676 18.5494 8.92576 17.0907C7.50597 15.6545 7.50586 13.311 8.92576 11.8749C10.3687 10.4152 12.7113 10.441 14.1416 11.9037C14.2703 12.0324 14.3512 12.232 14.2452 12.3988C14.114 12.5954 13.8306 12.5944 13.6695 12.4332C12.3832 11.3255 10.6883 11.0832 9.4266 12.3815C8.29594 13.545 8.28291 15.4181 9.4266 16.5783ZM12.0641 8.95404C12.34 8.98191 12.6098 9.03005 12.8722 9.0968L12.6892 9.59966C12.4854 9.55014 12.2768 9.51307 12.0641 9.48929V8.95404ZM13.9314 9.48541C14.178 9.60578 14.4143 9.74391 14.6387 9.89806L14.2953 10.3075C14.1205 10.1901 13.9377 10.0834 13.7483 9.98837L13.9314 9.48541ZM15.4994 10.6275C15.688 10.8233 15.8623 11.033 16.0208 11.2548L15.5576 11.5223C15.4337 11.3523 15.2993 11.1903 15.1554 11.0374L15.4994 10.6275ZM16.5795 12.235C16.6883 12.481 16.7797 12.7365 16.8522 12.9998L16.3259 13.0925C16.2681 12.8904 16.1977 12.6935 16.116 12.5026L16.5795 12.235ZM17.0391 14.1123C17.0469 14.2329 17.0513 14.3545 17.0513 14.477C17.0513 14.6259 17.0453 14.7734 17.0338 14.9193L16.5071 14.8264C16.5151 14.711 16.5194 14.5945 16.5194 14.477C16.5194 14.3859 16.5168 14.2953 16.512 14.2053L17.0391 14.1123ZM16.8311 16.029C16.7558 16.2882 16.6622 16.5395 16.5516 16.7815L16.0885 16.5141C16.1716 16.3272 16.2437 16.1342 16.3038 15.9361L16.8311 16.029ZM15.9805 17.7545C15.8229 17.9696 15.6501 18.1728 15.4639 18.3628L15.1205 17.9535C15.2619 17.8062 15.3945 17.6505 15.5172 17.4869L15.9805 17.7545ZM14.597 19.0847C14.3777 19.2325 14.1472 19.3649 13.9072 19.4807L13.7241 18.9777C13.907 18.8872 14.0834 18.7858 14.2528 18.6746L14.597 19.0847ZM12.846 19.8636C12.5918 19.9269 12.3308 19.9731 12.0641 20V19.4647C12.2676 19.442 12.4675 19.4071 12.6629 19.3608L12.846 19.8636ZM10.9359 20C10.6692 19.9731 10.4082 19.927 10.154 19.8636L10.3371 19.3608C10.5325 19.4071 10.7324 19.442 10.9359 19.4647V20ZM9.09283 19.4807C8.85279 19.365 8.62237 19.2324 8.40301 19.0847L8.74715 18.6746C8.91651 18.7858 9.09305 18.8872 9.27591 18.9777L9.09283 19.4807ZM7.53607 18.3628C7.3498 18.1728 7.17709 17.9695 7.01949 17.7545L7.48283 17.4869C7.60559 17.6505 7.73814 17.8062 7.87952 17.9535L7.53607 18.3628ZM6.44839 16.7815C6.33775 16.5395 6.24419 16.2881 6.16888 16.029L6.6962 15.9361C6.75636 16.1342 6.82832 16.3272 6.91146 16.5141L6.44839 16.7815ZM5.96617 14.9193C5.95463 14.7734 5.94867 14.6259 5.94867 14.477C5.94867 14.3545 5.95308 14.2329 5.9609 14.1123L6.48796 14.2053C6.48318 14.2953 6.48057 14.3859 6.48057 14.477C6.48057 14.5945 6.48488 14.711 6.49286 14.8264L5.96617 14.9193ZM6.14776 12.9998C6.2202 12.7365 6.31174 12.481 6.42052 12.235L6.88401 12.5026C6.80226 12.6935 6.73194 12.8904 6.67407 13.0925L6.14776 12.9998ZM6.97922 11.2548C7.13762 11.033 7.31203 10.8234 7.50059 10.6275L7.84457 11.0374C7.70069 11.1903 7.56634 11.3523 7.44235 11.5223L6.97922 11.2548ZM8.36126 9.89806C8.58572 9.74386 8.82199 9.60583 9.06863 9.48541L9.25171 9.98837C9.06225 10.0835 8.87949 10.19 8.70471 10.3075L8.36126 9.89806ZM10.1278 9.0968C10.3902 9.03 10.6601 8.98191 10.9359 8.95404V9.48929C10.7232 9.51312 10.5145 9.55009 10.3108 9.59966L10.1278 9.0968Z" fill="#216583"/>
</svg>
