<svg width="28" height="28" viewBox="0 0 28 28" fill="none" xmlns="http://www.w3.org/2000/svg">
<path d="M16.8 17.2667H16.3333V15.8667H15.4V17.2667H14.9333C14.8096 17.2667 14.6909 17.3158 14.6034 17.4034C14.5158 17.4909 14.4667 17.6096 14.4667 17.7333V21.9333C14.4667 22.0571 14.5158 22.1758 14.6034 22.2633C14.6909 22.3508 14.8096 22.4 14.9333 22.4H15.4V23.8H16.3333V22.4H16.8C16.9238 22.4 17.0425 22.3508 17.13 22.2633C17.2175 22.1758 17.2667 22.0571 17.2667 21.9333V17.7333C17.2667 17.6096 17.2175 17.4909 17.13 17.4034C17.0425 17.3158 16.9238 17.2667 16.8 17.2667ZM16.3333 21.4667H15.4V18.2H16.3333V21.4667Z" fill="#216583"/>
<path d="M20.5333 19.6H20.0666V18.2H19.1333V19.6H18.6666C18.5429 19.6 18.4242 19.6492 18.3366 19.7367C18.2491 19.8242 18.2 19.9429 18.2 20.0667V23.3333C18.2 23.4571 18.2491 23.5758 18.3366 23.6633C18.4242 23.7508 18.5429 23.8 18.6666 23.8H19.1333V25.6667H20.0666V23.8H20.5333C20.6571 23.8 20.7758 23.7508 20.8633 23.6633C20.9508 23.5758 21 23.4571 21 23.3333V20.0667C21 19.9429 20.9508 19.8242 20.8633 19.7367C20.7758 19.6492 20.6571 19.6 20.5333 19.6ZM20.0666 22.8667H19.1333V20.5333H20.0666V22.8667Z" fill="#216583"/>
<path d="M23.8 16.3333V15.4H22.8667V16.3333H22.4C22.2762 16.3333 22.1575 16.3825 22.07 16.47C21.9825 16.5575 21.9333 16.6762 21.9333 16.8V19.6C21.9333 19.7238 21.9825 19.8425 22.07 19.93C22.1575 20.0175 22.2762 20.0667 22.4 20.0667H22.8667V21.9333H23.8V20.0667H24.2667C24.3905 20.0667 24.5091 20.0175 24.5967 19.93C24.6842 19.8425 24.7333 19.7238 24.7333 19.6V16.8C24.7333 16.6762 24.6842 16.5575 24.5967 16.47C24.5091 16.3825 24.3905 16.3333 24.2667 16.3333H23.8ZM23.8 19.1333H22.8667V17.2667H23.8V19.1333Z" fill="#216583"/>
<path d="M19.6 12.1333C18.0309 12.1333 16.4971 12.5986 15.1924 13.4703C13.8878 14.3421 12.871 15.5811 12.2705 17.0307C11.6701 18.4803 11.513 20.0755 11.8191 21.6144C12.1252 23.1533 12.8808 24.5669 13.9902 25.6764C15.0997 26.7859 16.5133 27.5414 18.0522 27.8476C19.5912 28.1537 21.1863 27.9966 22.6359 27.3961C24.0855 26.7957 25.3246 25.7788 26.1963 24.4742C27.068 23.1696 27.5333 21.6357 27.5333 20.0667C27.5309 17.9633 26.6944 15.9468 25.2071 14.4595C23.7198 12.9723 21.7033 12.1357 19.6 12.1333ZM19.6 27.0667C18.2155 27.0667 16.8621 26.6561 15.711 25.887C14.5598 25.1178 13.6626 24.0245 13.1328 22.7454C12.603 21.4664 12.4644 20.0589 12.7345 18.701C13.0046 17.3432 13.6712 16.0959 14.6502 15.1169C15.6292 14.1379 16.8765 13.4713 18.2343 13.2012C19.5922 12.9311 20.9997 13.0697 22.2787 13.5995C23.5578 14.1293 24.6511 15.0265 25.4202 16.1777C26.1894 17.3288 26.6 18.6822 26.6 20.0667C26.5979 21.9225 25.8597 23.7018 24.5474 25.0141C23.2351 26.3264 21.4558 27.0646 19.6 27.0667Z" fill="#216583"/>
<path d="M22.8666 7H19.1333C19.0528 7.00002 18.9736 7.02087 18.9035 7.06053C18.8335 7.10019 18.7748 7.15731 18.7334 7.22633L17.3334 9.55967C17.2908 9.63047 17.2678 9.71129 17.2668 9.79388C17.2657 9.87648 17.2865 9.95788 17.3272 10.0298C17.3679 10.1017 17.4269 10.1615 17.4982 10.2031C17.5696 10.2447 17.6507 10.2667 17.7333 10.2667H24.2666C24.3492 10.2667 24.4303 10.2447 24.5017 10.2031C24.573 10.1615 24.6321 10.1017 24.6727 10.0298C24.7134 9.95788 24.7343 9.87648 24.7332 9.79388C24.7321 9.71129 24.7091 9.63047 24.6666 9.55967L23.2666 7.22633C23.2251 7.15731 23.1665 7.10019 23.0964 7.06053C23.0263 7.02087 22.9472 7.00002 22.8666 7ZM23.4425 9.33333H18.5574L19.3974 7.93333H22.6025L23.4425 9.33333Z" fill="#216583"/>
<path d="M16.2727 10.0301C16.3135 9.95815 16.3344 9.8767 16.3333 9.79405C16.3322 9.7114 16.3092 9.63051 16.2667 9.55967L14.8667 7.22633C14.8252 7.15731 14.7666 7.10019 14.6965 7.06053C14.6264 7.02087 14.5473 7.00002 14.4667 7H10.7334C10.6529 7.00002 10.5737 7.02087 10.5036 7.06053C10.4336 7.10019 10.3749 7.15731 10.3335 7.22633L8.93347 9.55967C8.89093 9.63047 8.86794 9.71129 8.86686 9.79388C8.86578 9.87648 8.88664 9.95788 8.92731 10.0298C8.96797 10.1017 9.02699 10.1615 9.09834 10.2031C9.16969 10.2447 9.2508 10.2667 9.3334 10.2667H15.8667C15.9493 10.2667 16.0304 10.2448 16.1017 10.2032C16.173 10.1616 16.232 10.1019 16.2727 10.0301ZM10.1575 9.33333L10.9975 7.93333H14.2026L15.0426 9.33333H10.1575Z" fill="#216583"/>
<path d="M19.0666 3.02632C19.0251 2.9573 18.9665 2.90018 18.8964 2.86052C18.8264 2.82085 18.7472 2.8 18.6667 2.79999H14.9333C14.8528 2.8 14.7737 2.82085 14.7036 2.86052C14.6335 2.90018 14.5749 2.9573 14.5334 3.02632L13.1334 5.35965C13.0909 5.43046 13.0679 5.51128 13.0668 5.59387C13.0657 5.67646 13.0866 5.75786 13.1273 5.82976C13.1679 5.90165 13.2269 5.96146 13.2983 6.00308C13.3696 6.0447 13.4508 6.06664 13.5334 6.06665H20.0667C20.1493 6.06664 20.2304 6.0447 20.3017 6.00308C20.3731 5.96146 20.4321 5.90165 20.4728 5.82976C20.5134 5.75786 20.5343 5.67646 20.5332 5.59387C20.5321 5.51128 20.5092 5.43046 20.4666 5.35965L19.0666 3.02632ZM14.3575 5.13332L15.1975 3.73332H18.4025L19.2425 5.13332H14.3575Z" fill="#216583"/>
<path d="M7.46665 8.39999H6.06665V9.33333H7.46665V8.39999Z" fill="#216583"/>
<path d="M27.5333 8.39999H26.1333V9.33333H27.5333V8.39999Z" fill="#216583"/>
<path d="M9.40398 1.39259L8.74402 2.05255L9.73397 3.0425L10.3939 2.38253L9.40398 1.39259Z" fill="#216583"/>
<path d="M24.1962 1.62391L23.2063 2.61386L23.8663 3.27383L24.8562 2.28388L24.1962 1.62391Z" fill="#216583"/>
<path d="M17.2667 0H16.3334V1.4H17.2667V0Z" fill="#216583"/>
<path d="M0 18.0105V25.4917C0 26.8982 1.84473 28 4.2 28C6.55527 28 8.4 26.8982 8.4 25.4917V15.9689C8.4 15.9605 8.4 15.953 8.4 15.9446C8.39546 15.9181 8.38875 15.892 8.37993 15.8667H8.4C8.4 14.5362 6.59447 13.5333 4.2 13.5333C1.80553 13.5333 0 14.5362 0 15.8667H0.0205333C0.00967672 15.8998 0.00278428 15.9341 0 15.9689V18.0105ZM7.46667 25.4917C7.46667 26.2369 6.125 27.0667 4.2 27.0667C2.275 27.0667 0.933333 26.2369 0.933333 25.4917V25.2177C1.90167 25.8527 3.04272 26.1725 4.2 26.1333C5.35728 26.1725 6.49833 25.8527 7.46667 25.2177V25.4917ZM7.46667 23.625C7.46667 24.3703 6.125 25.2 4.2 25.2C2.275 25.2 0.933333 24.3703 0.933333 23.625V23.2983C1.93386 23.8418 3.06217 24.1062 4.2 24.0637C5.33783 24.1062 6.46614 23.8418 7.46667 23.2983V23.625ZM7.46667 21.9189C7.46667 22.4121 6.19407 23.1294 4.2 23.1294C2.20593 23.1294 0.933333 22.4121 0.933333 21.9189V21.4307C1.93386 21.9742 3.06217 22.2386 4.2 22.1961C5.33783 22.2386 6.46614 21.9742 7.46667 21.4307V21.9189ZM7.46667 20.0522C7.46667 20.5455 6.19407 21.2627 4.2 21.2627C2.20593 21.2627 0.933333 20.5455 0.933333 20.0522V19.3891C1.93386 19.9326 3.06217 20.1969 4.2 20.1544C5.33783 20.1969 6.46614 19.9326 7.46667 19.3891V20.0522ZM7.46667 18.0105C7.46667 18.5038 6.19407 19.2211 4.2 19.2211C2.20593 19.2211 0.933333 18.5038 0.933333 18.0105V17.3474C1.0234 17.4034 1.12 17.4566 1.21987 17.507C1.25207 17.5233 1.28707 17.5378 1.3202 17.5537C1.3916 17.5873 1.46347 17.6204 1.53953 17.6512C1.58153 17.668 1.6254 17.6839 1.6688 17.6979C1.74067 17.7249 1.81347 17.7511 1.88907 17.7758C1.93573 17.7912 1.98707 17.8057 2.03653 17.8225C2.11167 17.8444 2.1882 17.8659 2.2666 17.8855C2.3198 17.899 2.37347 17.9116 2.4276 17.9237C2.50787 17.9419 2.58907 17.9583 2.67213 17.9741C2.72767 17.9844 2.7832 17.9947 2.84013 18.004C2.9274 18.0185 3.017 18.0306 3.10707 18.0418C3.1626 18.0493 3.21767 18.0567 3.2746 18.0628C3.374 18.0735 3.4762 18.081 3.5784 18.0885C3.6288 18.0917 3.6778 18.0964 3.72867 18.0992C3.88267 18.1071 4.03947 18.1123 4.19907 18.1123C4.3736 18.1123 4.54533 18.1062 4.71473 18.0964C4.77027 18.0931 4.82393 18.0871 4.87853 18.0829C4.99147 18.074 5.10393 18.0647 5.2136 18.0516C5.27753 18.0441 5.33913 18.0343 5.40027 18.0255C5.49873 18.0115 5.59627 17.9965 5.69193 17.9788C5.75587 17.9671 5.81793 17.9541 5.8786 17.941C5.97193 17.9219 6.05827 17.9013 6.146 17.8794C6.20667 17.8635 6.2664 17.8477 6.3252 17.8327C6.4106 17.8085 6.49273 17.7823 6.57393 17.7548C6.62947 17.7361 6.68453 17.7179 6.73773 17.6983C6.8194 17.6675 6.89733 17.6349 6.97387 17.6013C7.02053 17.5807 7.0672 17.5616 7.11386 17.5397C7.19833 17.4995 7.2772 17.4557 7.35513 17.4113C7.38593 17.3936 7.41953 17.3777 7.44847 17.3595L7.46667 17.3511V18.0105ZM0.933333 15.8667C0.933333 15.2059 2.33053 14.4667 4.2 14.4667C6.06947 14.4667 7.46667 15.2059 7.46667 15.8667H7.48673C7.47807 15.8921 7.47151 15.9181 7.46713 15.9446C7.46713 15.953 7.46713 15.9605 7.46713 15.9689C7.45117 16.0612 7.41627 16.1493 7.36463 16.2275C7.31299 16.3057 7.24573 16.3724 7.16707 16.4234C6.59447 16.8826 5.42967 17.1794 4.20047 17.1794C2.2064 17.1794 0.9338 16.4621 0.9338 15.9689C0.930864 15.9341 0.923815 15.8998 0.9128 15.8667H0.933333Z" fill="#216583"/>
</svg>
