<svg width="48" height="48" viewBox="0 0 48 48" fill="none" xmlns="http://www.w3.org/2000/svg">
<path d="M26.3226 40.2581H1.54839V6.19355H26.3226V10.7923H27.871V3.87097C27.871 1.73652 26.1345 0 24 0H3.87097C1.73652 0 0 1.73652 0 3.87097V44.129C0 46.2635 1.73652 48 3.87097 48H24C26.1345 48 27.871 46.2635 27.871 44.129V30.1935H26.3226V40.2581ZM3.87097 1.54839H24C25.2805 1.54839 26.3226 2.59045 26.3226 3.87097V4.64516H1.54839V3.87097C1.54839 2.59045 2.59045 1.54839 3.87097 1.54839ZM24 46.4516H3.87097C2.59045 46.4516 1.54839 45.4095 1.54839 44.129V41.8065H26.3226V44.129C26.3226 45.4095 25.2805 46.4516 24 46.4516Z" fill="#65C0BA"/>
<path d="M16.2581 43.3548H11.6129V44.9032H16.2581V43.3548Z" fill="#65C0BA"/>
<path d="M39.4839 10.8387C39.0565 10.8387 38.7097 10.4919 38.7097 10.0645H37.1613C37.1613 11.0725 37.8108 11.9241 38.7097 12.2446V13.9355H40.2581V12.2446C41.1569 11.9241 41.8064 11.0725 41.8064 10.0645C41.8064 8.784 40.7644 7.74193 39.4839 7.74193C39.0565 7.74193 38.7097 7.39509 38.7097 6.96774C38.7097 6.54038 39.0565 6.19355 39.4839 6.19355C39.9112 6.19355 40.2581 6.54038 40.2581 6.96774H41.8064C41.8064 5.95974 41.1569 5.10813 40.2581 4.78761V3.09677H38.7097V4.78761C37.8108 5.10813 37.1613 5.95974 37.1613 6.96774C37.1613 8.24826 38.2033 9.29032 39.4839 9.29032C39.9112 9.29032 40.2581 9.63716 40.2581 10.0645C40.2581 10.4919 39.9112 10.8387 39.4839 10.8387Z" fill="#65C0BA"/>
<path d="M39.4839 23.2258C36.24 23.2258 33.4157 25.0498 31.9781 27.7254L23.9334 24.3221C24.4846 23.0137 24.7742 21.5954 24.7742 20.129C24.7742 18.6751 24.4715 17.2552 23.9202 15.9414L31.9781 12.5326C33.4157 15.2083 36.24 17.0323 39.4839 17.0323C44.1793 17.0323 48 13.2116 48 8.51613C48 3.82065 44.1793 0 39.4839 0C34.7884 0 30.9677 3.82065 30.9677 8.51613C30.9677 9.41961 31.1117 10.289 31.3734 11.1066L23.2211 14.5556C22.6653 13.6289 21.9755 12.7773 21.1541 12.0434C18.8562 9.99097 15.7688 9.01548 12.6766 9.36077C7.82244 9.90968 3.83457 13.8186 3.19431 18.6565C2.73754 22.1055 3.89418 25.4663 6.36773 27.8772C6.57057 28.0746 6.74941 28.2921 6.91276 28.5213C6.47147 28.944 6.19354 29.5355 6.19354 30.1935C6.19354 31.2681 6.93057 32.1662 7.92309 32.4302C8.58967 35.1646 11.0764 37.1613 13.9355 37.1613C16.7946 37.1613 19.2813 35.1646 19.9479 32.4302C20.9404 32.1662 21.6774 31.2681 21.6774 30.1935C21.6774 29.5339 21.3979 28.9409 20.9551 28.5182C21.1138 28.2968 21.288 28.087 21.4839 27.8965C22.1667 27.2338 22.7396 26.4921 23.2181 25.7017L31.3734 29.1523C31.1117 29.969 30.9677 30.8385 30.9677 31.7419C30.9677 35.0431 32.8599 37.9053 35.6129 39.3182V47.7043L39.4839 45.7688L43.3548 47.7043V39.3182C46.1079 37.9053 48 35.0439 48 31.7419C48 27.0465 44.1793 23.2258 39.4839 23.2258ZM39.4839 1.54839C43.3262 1.54839 46.4516 4.67381 46.4516 8.51613C46.4516 12.3585 43.3262 15.4839 39.4839 15.4839C35.6415 15.4839 32.5161 12.3585 32.5161 8.51613C32.5161 4.67381 35.6415 1.54839 39.4839 1.54839ZM13.9355 35.6129C11.9535 35.6129 10.2147 34.3301 9.56825 32.5161H18.3027C17.6562 34.3301 15.9174 35.6129 13.9355 35.6129ZM19.3548 30.9677H19.2937H18.6232H9.24773H8.51612C8.08876 30.9677 7.74192 30.6209 7.74192 30.1935C7.74192 29.7662 8.08876 29.4194 8.51612 29.4194H19.3548C19.7822 29.4194 20.129 29.7662 20.129 30.1935C20.129 30.6209 19.7822 30.9677 19.3548 30.9677ZM13.9355 21.6774C13.0815 21.6774 12.3871 20.983 12.3871 20.129C12.3871 19.2751 13.0815 18.5806 13.9355 18.5806C14.7894 18.5806 15.4839 19.2751 15.4839 20.129C15.4839 20.983 14.7894 21.6774 13.9355 21.6774ZM20.4046 26.7855C20.0663 27.1146 19.7837 27.4916 19.5298 27.8888C19.471 27.8841 19.4144 27.871 19.3548 27.871H14.7097V23.1159C16.0421 22.7698 17.0322 21.5683 17.0322 20.129C17.0322 18.4212 15.6433 17.0323 13.9355 17.0323C12.2276 17.0323 10.8387 18.4212 10.8387 20.129C10.8387 21.5683 11.8289 22.7698 13.1613 23.1159V27.871H8.51612C8.45496 27.871 8.39689 27.8841 8.3365 27.8888C8.0787 27.4862 7.79225 27.1037 7.44851 26.7685C5.32876 24.7022 4.33702 21.8183 4.72876 18.8586C5.27767 14.7166 8.69263 11.369 12.8501 10.9006C15.5427 10.5917 18.1231 11.4132 20.1221 13.1985C20.7708 13.7783 21.3182 14.4465 21.775 15.168L19.0537 16.3192L19.6568 17.7453L22.4957 16.5445C22.9664 17.6694 23.2258 18.8849 23.2258 20.129C23.2258 21.384 22.9781 22.5979 22.5066 23.719L19.6568 22.5135L19.0537 23.9396L21.7773 25.0916C21.3894 25.6978 20.9365 26.2699 20.4046 26.7855ZM41.8064 45.199L39.4839 44.0377L37.1613 45.199V39.9283C37.9006 40.1381 38.6779 40.2581 39.4839 40.2581C40.2898 40.2581 41.0671 40.1381 41.8064 39.9283V45.199ZM39.4839 38.7097C35.6415 38.7097 32.5161 35.5843 32.5161 31.7419C32.5161 27.8996 35.6415 24.7742 39.4839 24.7742C43.3262 24.7742 46.4516 27.8996 46.4516 31.7419C46.4516 35.5843 43.3262 38.7097 39.4839 38.7097Z" fill="#65C0BA"/>
<path d="M39.4839 27.871C37.3494 27.871 35.6129 29.6075 35.6129 31.7419C35.6129 33.8764 37.3494 35.6129 39.4839 35.6129C41.6183 35.6129 43.3549 33.8764 43.3549 31.7419C43.3549 29.6075 41.6183 27.871 39.4839 27.871ZM39.4839 34.0645C38.2034 34.0645 37.1613 33.0225 37.1613 31.7419C37.1613 30.4614 38.2034 29.4194 39.4839 29.4194C40.7644 29.4194 41.8065 30.4614 41.8065 31.7419C41.8065 33.0225 40.7644 34.0645 39.4839 34.0645Z" fill="#65C0BA"/>
</svg>
