<svg width="42" height="26" viewBox="0 0 42 26" fill="none" xmlns="http://www.w3.org/2000/svg">
<path d="M23.9608 10.7059H23.1324V8.9853C23.1324 7.58334 21.9853 6.43628 20.5833 6.43628C19.1814 6.43628 18.0343 7.58334 18.0343 8.9853V10.7059H17.2059C16.6324 10.7059 16.1226 11.2157 16.1226 11.7892V16.1863C16.1226 16.7598 16.6324 17.2696 17.2059 17.2696H23.8333C24.4069 17.2696 24.9167 16.7598 24.9167 16.1863V11.7892C25.0441 11.2157 24.5343 10.7059 23.9608 10.7059ZM19.0539 8.9853C19.0539 8.09314 19.7549 7.39216 20.6471 7.39216C21.5392 7.39216 22.2402 8.09314 22.2402 8.9853V10.7059H19.0539V8.9853ZM24.0882 16.25C24.0882 16.3137 24.0245 16.3775 23.9608 16.3775H17.3333C17.2696 16.3775 17.2059 16.3137 17.2059 16.25V11.8529C17.2059 11.7892 17.2696 11.7255 17.3333 11.7255H23.9608C24.0245 11.7255 24.0882 11.7892 24.0882 11.8529V16.25Z" fill="#65C0BA"/>
<path d="M41.4216 9.17647H32.8824C33.3284 7.13725 33.5196 5.79902 33.5196 5.73529L33.5833 5.28922L33.1373 5.22549C24.5343 4.14216 21.0294 0.446079 21.0294 0.382353L20.6471 0L20.3284 0.382353C20.2647 0.446079 16.8873 4.14216 8.22059 5.22549L7.77451 5.28922L7.83824 5.73529C7.83824 5.92647 8.02941 7.26471 8.47549 9.17647H0L2.10294 14.5294H4.52451L6.2451 18.9265H8.66667L10.3873 23.3235H16.25C17.4608 24.3431 18.799 25.2353 20.3922 25.9363L20.5833 26L20.7745 25.9363C22.4314 25.299 23.8333 24.3431 25.0441 23.3235H30.9069L32.6275 18.9265H35.049L36.7696 14.5294H39.1912L41.4216 9.17647ZM2.7402 13.6373L1.33824 10.1324H8.60294C8.85784 11.2157 9.2402 12.3627 9.75 13.6373H2.7402ZM6.94608 18.0343L5.54412 14.5294H10.1961C10.7059 15.6765 11.2794 16.8235 11.9167 18.0343H6.94608ZM11.0882 22.4951L9.68627 18.9902H12.4902C13.3186 20.201 14.2108 21.4118 15.2941 22.4951H11.0882ZM20.6471 25.1078C11.4706 20.902 9.17647 8.66667 8.79412 6.11765C15.9951 5.09804 19.6275 2.35784 20.6471 1.40196C21.7304 2.35784 25.299 5.16177 32.5637 6.11765C32.1814 8.66667 30.0784 21.0931 20.6471 25.1078ZM30.3333 22.4951H26.1275C27.2108 21.4118 28.1029 20.2647 28.9314 18.9902H31.7353L30.3333 22.4951ZM34.4755 18.0343H29.5049C30.2059 16.8873 30.7157 15.6765 31.2255 14.5294H35.8774L34.4755 18.0343ZM31.5441 13.6373C31.9902 12.4265 32.3726 11.2157 32.6275 10.1324H40.0196L38.6176 13.6373H31.5441Z" fill="#65C0BA"/>
</svg>
