<svg width="33" height="27" viewBox="0 0 33 27" fill="none" xmlns="http://www.w3.org/2000/svg">
<path d="M16.5813 25.8889C10.2956 25.8889 5.0936 20.9444 4.55172 14.6667L8.4532 17.6111L9.10345 16.7222L3.84729 12.7778L0 18.1667L0.866995 18.8333L3.52217 15.1111C4.28079 21.7778 9.86207 27 16.5813 27C21.8916 27 26.6601 23.7778 28.7192 18.7778L27.7438 18.3333C25.8473 22.8889 21.4581 25.8889 16.5813 25.8889ZM32.133 8.11111L29.6404 11.8333C28.8276 5.16667 23.3005 0 16.5813 0C11.2709 0 6.50246 3.22222 4.44335 8.22222L5.41872 8.66667C7.31527 4.05555 11.7044 1.11111 16.5271 1.11111C22.8128 1.11111 28.0148 6.11111 28.5567 12.3889L24.5468 9.55556L23.9507 10.4444L29.3153 14.2222L33 8.72222L32.133 8.11111ZM17.6108 20.0556C20.3202 20.0556 22.5419 17.7778 22.5419 15C22.5419 13.1111 21.5123 11.3889 19.8867 10.5556C19.1281 8.77778 17.3941 7.55555 15.3892 7.55555C12.6798 7.55555 10.4581 9.83333 10.4581 12.6111C10.4581 14.5556 11.5419 16.2222 13.1133 17.0556C13.9261 18.8889 15.6601 20.0556 17.6108 20.0556ZM20.3202 12.2222C21.0246 12.9444 21.4581 13.9444 21.4581 15C21.4581 17.1667 19.7241 18.9444 17.6108 18.9444C16.4729 18.9444 15.4433 18.4444 14.7389 17.6111C14.9557 17.6667 15.1724 17.6667 15.4433 17.6667C18.1527 17.6667 20.3744 15.3889 20.3744 12.6111C20.3202 12.4444 20.3202 12.3333 20.3202 12.2222ZM11.5419 12.6111C11.5419 10.4444 13.2759 8.66667 15.3892 8.66667C17.5025 8.66667 19.2365 10.4444 19.2365 12.6111C19.2365 14.7778 17.5025 16.5556 15.3892 16.5556C13.2759 16.5556 11.5419 14.7778 11.5419 12.6111Z" fill="#65C0BA"/>
</svg>
