<svg width="33" height="24" viewBox="0 0 33 24" fill="none" xmlns="http://www.w3.org/2000/svg">
<path d="M0.38372 0C0.18281 1.99534e-05 2.01069e-05 0.18281 0 0.38372V16.5C2.01069e-05 16.7009 0.18281 16.8837 0.38372 16.8837H22.3757L23.4189 20.4451C23.4942 20.7031 23.882 20.7965 24.0664 20.601L25.7092 18.9582L29.6544 22.9033C29.7247 22.976 29.8293 23.0222 29.9302 23.0232C30.0337 23.0242 30.1337 22.978 30.206 22.9033L32.892 20.2172C32.9601 20.1484 32.9979 20.05 32.9999 19.9534C33.002 19.8511 32.9642 19.7506 32.892 19.6776L29.8822 16.6678C29.9098 16.6159 29.9302 16.5593 29.9302 16.5V14.7372L30.5897 14.0777C30.7729 13.8889 30.6743 13.5159 30.4218 13.4422L29.9302 13.2983V0.38372C29.9301 0.18281 29.7473 1.99534e-05 29.5464 0H0.38372ZM0.76744 0.76744H6.93094C5.02046 2.76468 3.8372 5.46151 3.8372 8.44184C3.8372 11.4162 5.01528 14.1202 6.91895 16.1162H0.76744V0.76744ZM8.03414 0.76744H21.896C23.9946 2.66386 25.3255 5.3895 25.3255 8.44184C25.3255 9.61695 25.1135 10.7383 24.7499 11.7874L21.2125 10.7562C20.868 10.6557 20.664 10.9996 20.7329 11.2358L22.0999 15.9244C22.0316 15.9878 21.9654 16.0536 21.896 16.1162H8.03414C5.93535 14.2198 4.60464 11.4944 4.60464 8.44184C4.60464 5.3895 5.93558 2.66386 8.03414 0.76744ZM22.9992 0.76744H29.1627V13.0705L25.5054 12.0032C25.8847 10.8862 26.093 9.68455 26.093 8.44184C26.093 5.46151 24.9097 2.76468 22.9992 0.76744ZM14.9651 2.68604C14.7842 2.68604 14.5814 2.87979 14.5814 3.06976V3.86118C14.0212 3.91966 13.4995 4.10284 13.0944 4.42477C12.5968 4.82024 12.279 5.43441 12.279 6.13952C12.279 6.95276 12.6598 7.5666 13.1664 7.97418C13.5928 8.3173 14.1031 8.53399 14.5814 8.70565V12.2551C14.1801 12.1984 13.8308 12.0513 13.5741 11.8474C13.2384 11.5806 13.0465 11.2274 13.0465 10.7442C13.0494 10.5414 12.8655 10.355 12.6628 10.355C12.46 10.355 12.2762 10.5414 12.279 10.7442C12.279 11.4492 12.5968 12.0515 13.0944 12.4469C13.5004 12.7695 14.0197 12.9735 14.5814 13.0345C14.5814 13.0345 14.5814 13.5541 14.5814 13.8139C14.5814 14.0167 14.7842 14.1976 14.9651 14.1976C15.146 14.1976 15.3488 14.0167 15.3488 13.8139C15.3488 13.5541 15.3488 13.0345 15.3488 13.0345C15.9104 12.9735 16.4297 12.7695 16.8357 12.4469C17.3333 12.0515 17.6511 11.4492 17.6511 10.7442C17.6511 9.93092 17.2703 9.30508 16.7638 8.89751C16.3366 8.55381 15.8278 8.33782 15.3488 8.16604V4.64061C15.7501 4.69401 16.0994 4.82037 16.3561 5.02433C16.6917 5.29109 16.8837 5.65631 16.8837 6.13952C16.8808 6.34224 17.0647 6.5287 17.2674 6.5287C17.4701 6.5287 17.654 6.34224 17.6511 6.13952C17.6511 5.43441 17.3333 4.82024 16.8357 4.42477C16.4306 4.10284 15.909 3.91966 15.3488 3.86118V3.06976C15.3488 2.84771 15.146 2.68604 14.9651 2.68604ZM14.5574 4.64061C14.565 4.63954 14.5737 4.64165 14.5814 4.64061V7.89024C14.2312 7.74967 13.9015 7.58016 13.646 7.37462C13.2701 7.07213 13.0465 6.72883 13.0465 6.13952C13.0465 5.65631 13.2384 5.29109 13.5741 5.02433C13.8258 4.82426 14.1658 4.69613 14.5574 4.64061ZM15.3488 8.99344C15.6985 9.1339 16.0289 9.29175 16.2841 9.49707C16.6601 9.79956 16.8837 10.1548 16.8837 10.7442C16.8837 11.2274 16.6917 11.5806 16.3561 11.8474C16.0994 12.0513 15.7501 12.1984 15.3488 12.2551V8.99344ZM21.6682 11.6795L29.1627 13.8739V13.9338L29.5225 14.0537L28.1195 15.4567C27.9792 15.5986 27.9792 15.8545 28.1195 15.9963L32.0646 19.9534L29.9302 22.0879L25.985 18.1428C25.8424 17.9953 25.5761 17.9953 25.4334 18.1428L23.9825 19.5937L21.6682 11.6795ZM29.1627 15.5167V15.9484L28.9469 15.7325L29.1627 15.5167Z" fill="#65C0BA"/>
</svg>
