<svg width="35" height="28" viewBox="0 0 35 28" fill="none" xmlns="http://www.w3.org/2000/svg">
<path d="M12.1754 13.692H21.3033C21.8077 13.692 22.2914 13.4916 22.648 13.135C23.0046 12.7783 23.205 12.2946 23.205 11.7903V1.90166C23.205 1.59905 23.3252 1.30883 23.5392 1.09485C23.7532 0.880876 24.0434 0.760664 24.346 0.760664V0C23.8416 0 23.3579 0.200353 23.0013 0.556983C22.6447 0.913614 22.4443 1.39731 22.4443 1.90166V11.7903C22.4443 12.0929 22.3241 12.3831 22.1101 12.5971C21.8962 12.8111 21.6059 12.9313 21.3033 12.9313C21.0007 12.9313 20.7105 12.8111 20.4965 12.5971C20.2826 12.3831 20.1623 12.0929 20.1623 11.7903V11.41H14.077V1.90166C14.077 1.59905 14.1972 1.30883 14.4112 1.09485C14.6252 0.880876 14.9154 0.760664 15.218 0.760664H21.3033V0H15.218C14.7137 0 14.23 0.200353 13.8733 0.556983C13.5167 0.913614 13.3164 1.39731 13.3164 1.90166V11.41H10.2737V11.7903C10.2737 12.2946 10.4741 12.7783 10.8307 13.135C11.1873 13.4916 11.671 13.692 12.1754 13.692ZM19.4397 12.1706C19.497 12.4475 19.6167 12.7076 19.7896 12.9313H12.1754C11.9393 12.9314 11.709 12.8583 11.5163 12.7221C11.3235 12.5858 11.1777 12.3932 11.099 12.1706H19.4397Z" fill="#65C0BA"/>
<path d="M21.3033 3.04266H15.218V3.80333H21.3033V3.04266Z" fill="#65C0BA"/>
<path d="M21.3033 5.63654H15.218V6.3972H21.3033V5.63654Z" fill="#65C0BA"/>
<path d="M21.3033 8.22659H15.218V8.98726H21.3033V8.22659Z" fill="#65C0BA"/>
<path d="M17.8803 14.8329H17.1197V15.9739H17.8803V14.8329Z" fill="#65C0BA"/>
<path d="M30.0281 16.7346H29.2675V17.4953L24.7263 19.686V21.9375H22.4443V19.686L17.8803 17.5181V16.7346H17.1197V17.4953L12.5557 19.686V21.9375H10.2509V19.686L5.70972 17.5105V16.7498H4.94906V17.5105L0.385071 19.686V24.946L5.32939 27.3002L10.2737 24.946V22.6982H12.5557V24.946L17.5 27.3002L22.4443 24.946V22.6982H24.7263V24.946L29.6706 27.3002L34.615 24.946V19.686L30.051 17.5105L30.0281 16.7346ZM5.6869 19.7772V18.3548L9.00339 19.937L5.27614 21.5192L1.71243 19.8951L4.93764 18.3738V19.7963L5.6869 19.7772ZM1.14573 20.4733L4.94906 22.219V26.2771L1.14573 24.4667V20.4733ZM5.70972 26.2771V22.1657L9.51304 20.5531V24.4667L5.70972 26.2771ZM17.8803 19.7772V18.3624L21.174 19.937L17.4468 21.5192L13.8831 19.899L17.1197 18.351V19.7772H17.8803ZM13.3164 20.4733L17.1197 22.219V26.2771L13.3164 24.4667V20.4733ZM17.8803 26.2771V22.1657L21.6837 20.5531V24.4667L17.8803 26.2771ZM25.487 20.4733L29.2903 22.2V26.2771L25.487 24.4667V20.4733ZM30.051 26.2771V22.1657L33.8543 20.5531V24.4667L30.051 26.2771ZM33.3332 19.937L29.606 21.5192L26.0423 19.899L29.2675 18.3776V19.8001H30.0281V18.3548L33.3332 19.937Z" fill="#65C0BA"/>
<path d="M26.4568 15.7838H32.5422C32.8448 15.7838 33.135 15.6635 33.349 15.4496C33.5629 15.2356 33.6832 14.9454 33.6832 14.6428C33.6832 14.3402 33.5629 14.0499 33.349 13.836C33.135 13.622 32.8448 13.5018 32.5422 13.5018H26.4568C26.1542 13.5018 25.864 13.622 25.65 13.836C25.4361 14.0499 25.3158 14.3402 25.3158 14.6428C25.3158 14.9454 25.4361 15.2356 25.65 15.4496C25.864 15.6635 26.1542 15.7838 26.4568 15.7838ZM32.9225 14.6428C32.9225 14.718 32.9002 14.7915 32.8584 14.8541C32.8166 14.9166 32.7572 14.9654 32.6877 14.9941C32.6182 15.0229 32.5417 15.0305 32.468 15.0158C32.3942 15.0011 32.3264 14.9649 32.2732 14.9117C32.22 14.8585 32.1838 14.7907 32.1691 14.717C32.1545 14.6432 32.162 14.5667 32.1908 14.4972C32.2196 14.4277 32.2683 14.3683 32.3309 14.3265C32.3934 14.2847 32.4669 14.2624 32.5422 14.2624C32.643 14.2624 32.7398 14.3025 32.8111 14.3738C32.8824 14.4452 32.9225 14.5419 32.9225 14.6428ZM26.4568 14.2624H31.4696C31.4257 14.3845 31.4026 14.5131 31.4012 14.6428C31.4022 14.7725 31.4253 14.9011 31.4696 15.0231H26.4568C26.356 15.0231 26.2592 14.983 26.1879 14.9117C26.1166 14.8404 26.0765 14.7436 26.0765 14.6428C26.0765 14.5419 26.1166 14.4452 26.1879 14.3738C26.2592 14.3025 26.356 14.2624 26.4568 14.2624Z" fill="#65C0BA"/>
<path d="M2.28674 15.7838H8.37205C8.67466 15.7838 8.96488 15.6635 9.17886 15.4496C9.39284 15.2356 9.51305 14.9454 9.51305 14.6428C9.51305 14.3402 9.39284 14.0499 9.17886 13.836C8.96488 13.622 8.67466 13.5018 8.37205 13.5018H2.28674C1.98413 13.5018 1.69391 13.622 1.47993 13.836C1.26596 14.0499 1.14574 14.3402 1.14574 14.6428C1.14574 14.9454 1.26596 15.2356 1.47993 15.4496C1.69391 15.6635 1.98413 15.7838 2.28674 15.7838ZM8.75238 14.6428C8.75238 14.718 8.73008 14.7915 8.68829 14.8541C8.6465 14.9166 8.5871 14.9654 8.5176 14.9941C8.4481 15.0229 8.37163 15.0305 8.29785 15.0158C8.22408 15.0011 8.15631 14.9649 8.10312 14.9117C8.04993 14.8585 8.0137 14.7907 7.99903 14.717C7.98435 14.6432 7.99189 14.5667 8.02067 14.4972C8.04946 14.4277 8.09821 14.3683 8.16075 14.3265C8.2233 14.2847 8.29683 14.2624 8.37205 14.2624C8.47292 14.2624 8.56966 14.3025 8.64099 14.3738C8.71231 14.4452 8.75238 14.5419 8.75238 14.6428ZM2.28674 14.2624H7.28811C7.24418 14.3845 7.22104 14.5131 7.21965 14.6428C7.22067 14.7725 7.24383 14.9011 7.28811 15.0231H2.28674C2.18587 15.0231 2.08913 14.983 2.01781 14.9117C1.94648 14.8404 1.90641 14.7436 1.90641 14.6428C1.90641 14.5419 1.94648 14.4452 2.01781 14.3738C2.08913 14.3025 2.18587 14.2624 2.28674 14.2624Z" fill="#65C0BA"/>
</svg>
