<svg width="35" height="29" viewBox="0 0 35 29" fill="none" xmlns="http://www.w3.org/2000/svg">
<path d="M19.0388 28.0991C16.316 28.108 13.6539 27.2956 11.4001 25.768C9.14622 24.2404 7.40548 22.0686 6.4052 19.5362L5.56659 19.8716C6.64198 22.5659 8.50048 24.8758 10.902 26.503C13.3036 28.1302 16.1379 29 19.0388 29C21.9397 29 24.774 28.1302 27.1755 26.503C29.5771 24.8758 31.4356 22.5659 32.511 19.8716L31.6724 19.5362C30.6721 22.0686 28.9313 24.2404 26.6775 25.768C24.4237 27.2956 21.7615 28.108 19.0388 28.0991Z" fill="#65C0BA"/>
<path d="M19.0388 27.1925C21.579 27.1997 24.0625 26.441 26.165 25.0153C28.2674 23.5897 29.8913 21.5633 30.8247 19.2007L29.9815 18.8653C29.1081 21.0551 27.5981 22.9326 25.6466 24.2552C23.6951 25.5779 21.3917 26.2849 19.0342 26.2849C16.6767 26.2849 14.3734 25.5779 12.4219 24.2552C10.4703 22.9326 8.96033 21.0551 8.08695 18.8653L7.25287 19.2007C8.1862 21.5633 9.81009 23.5897 11.9126 25.0153C14.0151 26.441 16.4985 27.1997 19.0388 27.1925Z" fill="#65C0BA"/>
<path d="M19.0388 0.90089C21.7615 0.891951 24.4237 1.70435 26.6775 3.23198C28.9313 4.7596 30.6721 6.93144 31.6724 9.4638L32.511 9.12835C31.4356 6.43413 29.5771 4.12423 27.1755 2.497C24.774 0.869784 21.9397 0 19.0388 0C16.1379 0 13.3036 0.869784 10.902 2.497C8.50048 4.12423 6.64198 6.43413 5.56659 9.12835L6.4052 9.4638C7.40548 6.93144 9.14622 4.7596 11.4001 3.23198C13.6539 1.70435 16.316 0.891951 19.0388 0.90089Z" fill="#65C0BA"/>
<path d="M19.0388 1.80755C16.4985 1.80032 14.0151 2.55904 11.9126 3.98469C9.81009 5.41034 8.1862 7.4367 7.25287 9.79929L8.09601 10.1347C8.96939 7.94497 10.4794 6.06745 12.4309 4.74478C14.3824 3.42212 16.6858 2.71511 19.0433 2.71511C21.4008 2.71511 23.7042 3.42212 25.6557 4.74478C27.6072 6.06745 29.1172 7.94497 29.9906 10.1347L30.8247 9.79929C29.8913 7.4367 28.2674 5.41034 26.165 3.98469C24.0625 2.55904 21.579 1.80032 19.0388 1.80755Z" fill="#65C0BA"/>
<path d="M30.9924 14.4049L27.6515 16.7938V15.86H24.0251V17.2199H19.2654V15.86H15.639V16.7938L11.3326 14.5001L15.648 11.1456V12.0522H19.2745V8.42578H15.648V9.96701L10.843 13.7113V12.6868H7.2166V14.2462L3.62643 16.4175V15.4067H0V19.0331H3.62643V17.4737L7.2166 15.3024V16.3133H10.843V15.2571L15.639 17.8182V19.4864H19.2654V18.1265H24.0251V19.4864H27.6515V17.9044L30.9924 15.52V16.3133H34.6188V12.6868H30.9924V14.4049ZM16.5456 9.32332H18.3588V11.1365H16.5456V9.32332ZM2.71982 18.1265H0.906608V16.3133H2.71982V18.1265ZM9.93642 15.4067H8.1232V13.5934H9.93642V15.4067ZM18.3588 18.5798H16.5456V16.7666H18.3588V18.5798ZM26.7449 18.5798H24.9317V16.7666H26.7449V18.5798ZM31.899 13.5934H33.7122V15.4067H31.899V13.5934Z" fill="#65C0BA"/>
</svg>
