<svg width="204" height="29" viewBox="0 0 204 29" fill="none" xmlns="http://www.w3.org/2000/svg">
<path d="M57.418 8.59766H42.418V23H40.0156V6.19531H57.418V8.59766ZM55.3555 15.8047H43.6133V13.4023H55.3555V15.8047Z" fill="white"/>
<path d="M80.4383 23H77.1922L72.1531 18.1953H64.7938V15.8281H74.4383C74.9383 15.8281 75.407 15.7344 75.8445 15.5469C76.282 15.3516 76.6609 15.0898 76.9813 14.7617C77.3094 14.4336 77.5672 14.0508 77.7547 13.6133C77.9422 13.168 78.0359 12.6953 78.0359 12.1953C78.0359 11.6953 77.9422 11.2266 77.7547 10.7891C77.5672 10.3516 77.3094 9.97266 76.9813 9.65234C76.6609 9.32422 76.282 9.06641 75.8445 8.87891C75.407 8.69141 74.9383 8.59766 74.4383 8.59766H63.4461V23H61.0438V6.19531H74.4383C75.2664 6.19531 76.0438 6.35547 76.7703 6.67578C77.4969 6.98828 78.1297 7.41797 78.6688 7.96484C79.2156 8.50391 79.6453 9.13672 79.9578 9.86328C80.2781 10.5898 80.4383 11.3672 80.4383 12.1953C80.4383 12.9453 80.3094 13.6562 80.0516 14.3281C79.7938 14.9922 79.4383 15.5898 78.9852 16.1211C78.532 16.6445 77.9969 17.082 77.3797 17.4336C76.7703 17.7773 76.1102 18.0078 75.3992 18.125L80.4383 23Z" fill="white"/>
<path d="M102.099 23H84.7203V6.19531H102.099V8.59766H87.1227V20.5977H102.099V23ZM100.06 15.8047H88.318V13.4023H100.06V15.8047Z" fill="white"/>
<path d="M123.666 23H106.287V6.19531H123.666V8.59766H108.69V20.5977H123.666V23ZM121.627 15.8047H109.885V13.4023H121.627V15.8047Z" fill="white"/>
<path d="M155.457 8.59766H140.457V23H138.055V6.19531H155.457V8.59766ZM153.395 15.8047H141.652V13.4023H153.395V15.8047Z" fill="white"/>
<path d="M175.137 23H159.083V6.19531H161.485V20.5977H175.137V23Z" fill="white"/>
<path d="M181.013 23H178.611V6.19531H181.013V23Z" fill="white"/>
<path d="M203.776 23H200.635L194.061 16.2266L187.51 23H184.358L192.502 14.5977L184.358 6.19531H187.51L203.776 23ZM203.776 6.19531L196.452 13.7305L194.893 12.125L200.635 6.19531H203.776Z" fill="white"/>
<path d="M0.370748 11.1471C0.386682 11.0529 0.133766 12.5327 0.127663 12.5666C0.134444 12.4754 0.0279882 13.9126 0.025615 13.9468C0.0293443 13.5549 -0.395799 17.4538 2.07912 21.7666C5.97627 28.5367 13.4526 28.937 13.4865 28.9506C20.9614 29.4985 24.5307 25.3179 25.3118 24.8273L22.9725 22.3734C22.8189 22.4951 21.0567 24.5829 17.8549 25.5705C15.4213 26.3296 13.2488 26.2475 10.939 25.6674C10.8332 25.5868 2.94602 23.817 2.01504 14.7229C2.01776 14.7571 1.95876 14.0787 1.95944 14.0448C1.95843 14.0787 1.9608 13.9977 1.96182 13.9638C1.95978 14.0367 1.99775 12.6985 1.99877 12.6636L2.05098 12.2778C2.06861 12.2439 3.11791 1.677 14.2988 0.953852C14.3327 0.963345 22.1941 0.452426 26.2659 7.50052C27.9424 10.229 28.0278 13.2413 28.1143 14.0113C28.0081 12.4246 28.1705 11.7445 27.3341 9.18957C23.083 -3.27894 3.93429 -3.47117 0.370748 11.1471Z" fill="#2F89FC"/>
<path d="M10.3586 17.6046L11.9669 20.5891C16.1265 18.1274 19.0347 16.4065 23.0176 14.0492C19.194 11.8811 14.3734 9.14819 10.5396 6.97467C10.4898 8.91901 10.3749 13.3891 10.3152 15.7064L11.6038 9.20379L18.0295 13.8587L10.3586 17.6046Z" fill="#2F89FC"/>
</svg>
