<svg width="43" height="46" viewBox="0 0 43 46" fill="none" xmlns="http://www.w3.org/2000/svg">
<path d="M39.0325 28.0256V18.3379C40.8679 17.6867 42.1818 15.9645 42.1818 13.9342C42.1818 11.3447 40.0478 9.24778 37.4147 9.24778C36.3022 9.24778 35.2796 9.62613 34.4684 10.2552L25.5352 5.30667C25.5625 5.10303 25.5814 4.89731 25.5814 4.68643C25.5814 2.09693 23.4474 0 20.8144 0C18.184 0 16.0473 2.09745 16.0473 4.68643C16.0473 4.92522 16.0715 5.15833 16.1062 5.3873L7.54467 10.1301C6.76234 9.57703 5.80493 9.24778 4.76708 9.24778C2.13669 9.24778 0 11.3447 0 13.9342C0 15.8151 1.12986 17.4313 2.75499 18.1772V28.1853C1.12986 28.9316 0 30.5484 0 32.4293C0 35.0188 2.13669 37.1147 4.76708 37.1147C6.02207 37.1147 7.15982 36.6345 8.01102 35.8561L16.1188 40.3471C16.0751 40.603 16.0468 40.864 16.0468 41.1328C16.0468 43.7223 18.1834 45.8182 20.8138 45.8182C23.4474 45.8182 25.5809 43.7218 25.5809 41.1328C25.5809 40.8924 25.5567 40.6588 25.5215 40.4288L34.0225 35.7196C34.8874 36.5802 36.0877 37.1147 37.4142 37.1147C40.0478 37.1147 42.1813 35.0182 42.1813 32.4293C42.1818 30.4 40.8679 28.6773 39.0325 28.0256ZM17.6493 37.6362L9.47842 33.11C9.51102 32.8872 9.53415 32.6613 9.53415 32.4298C9.53415 30.229 7.98947 28.3884 5.90903 27.8839V18.479C6.67033 18.295 7.35803 17.9322 7.92638 17.437L16.4185 22.3519C16.3759 22.6041 16.348 22.8615 16.348 23.1262C16.348 25.1854 17.7019 26.9288 19.5788 27.5578V36.6117C18.8527 36.8035 18.1955 37.1581 17.6493 37.6362ZM24.1556 19.5159C23.3307 18.8439 22.2712 18.4397 21.1161 18.4397C19.8969 18.4397 18.787 18.8941 17.9437 19.6358L9.4616 14.7266C9.50629 14.4687 9.53468 14.2051 9.53468 13.9342C9.53468 13.5011 9.47001 13.0835 9.35855 12.6849L17.5867 8.12721C18.4363 8.89786 19.5683 9.37235 20.8149 9.37235C22.092 9.37235 23.2492 8.87667 24.1046 8.07346L32.7749 12.8762C32.695 13.2168 32.6482 13.5698 32.6482 13.9347C32.6482 14.0903 32.6571 14.2438 32.6719 14.3953L24.1556 19.5159ZM24.0404 37.6904C23.6572 37.3426 23.2176 37.0552 22.7339 36.8454V27.5294C24.5693 26.8776 25.8832 25.1559 25.8832 23.1257C25.8832 22.7985 25.849 22.4796 25.7839 22.171L34.0183 17.2189C34.533 17.7332 35.1687 18.1276 35.8779 18.3658V27.9961C34.0015 28.6256 32.6471 30.3701 32.6471 32.4287C32.6471 32.5905 32.6556 32.7502 32.6719 32.9079L24.0404 37.6904Z" fill="#142D51"/>
</svg>
