<svg width="59" height="59" viewBox="0 0 59 59" fill="none" xmlns="http://www.w3.org/2000/svg">
<g filter="url(#filter0_d)">
<path d="M6.63096 29.923C9.12076 32.4131 13.1542 32.4131 15.644 29.923C17.5861 27.9807 17.9845 25.1419 16.9387 22.7514L24.4081 15.2811C23.7608 14.8826 23.1632 14.4344 22.6155 13.8866C22.0677 13.3388 21.6196 12.7411 21.2212 12.0937L13.7518 19.5641C11.4612 18.5182 8.57301 18.9166 6.63096 20.8589C4.14116 23.3491 4.14116 27.4328 6.63096 29.923ZM9.36974 23.5981C10.3657 22.602 11.9591 22.602 12.9551 23.5981C13.951 24.5941 13.951 26.1878 12.9551 27.1838C11.9591 28.1799 10.3657 28.1799 9.36974 27.1838C8.37382 26.1878 8.37382 24.5941 9.36974 23.5981ZM24.8563 48.1506C27.3461 50.6407 31.3796 50.6407 33.8694 48.1506C36.3592 45.6605 36.3592 41.6265 33.8694 39.1364C31.9273 37.1941 29.089 36.7957 26.6988 37.8415L19.2294 30.3712C18.831 31.0186 18.3828 31.6162 17.8351 32.1641C17.2873 32.7119 16.6898 33.1601 16.0424 33.5585L23.5118 41.0289C22.5159 43.3198 22.9143 46.2083 24.8563 48.1506ZM27.5951 41.8257C28.591 40.8297 30.1845 40.8297 31.1804 41.8257C32.1763 42.8218 32.1763 44.4155 31.1804 45.4115C30.1845 46.4075 28.591 46.4075 27.5951 45.4115C26.5992 44.4155 26.5992 42.8218 27.5951 41.8257ZM52.1445 20.8589C49.6547 18.3688 45.6213 18.3688 43.1315 20.8589C41.1894 22.8012 40.791 25.64 41.8368 28.0305L34.3674 35.5008C35.0147 35.8992 35.6123 36.3475 36.16 36.8953C36.7078 37.4431 37.1559 38.0407 37.5543 38.6882L45.0237 31.2178C47.3641 32.2637 50.2523 31.8653 52.1943 29.923C54.6343 27.4328 54.6343 23.3491 52.1445 20.8589ZM49.4058 27.1838C48.4098 28.1799 46.8164 28.1799 45.8204 27.1838C44.8245 26.1878 44.8245 24.5941 45.8204 23.5981C46.8164 22.602 48.4098 22.602 49.4058 23.5981C50.4017 24.5941 50.4017 26.1878 49.4058 27.1838ZM40.8906 18.6676C41.4384 18.1198 42.0359 17.6716 42.6833 17.2732L35.2139 9.8028C36.2596 7.46209 35.8612 4.57355 33.9192 2.63126C31.4294 0.141142 27.3959 0.141142 24.9061 2.63126C22.4163 5.12138 22.4163 9.15537 24.9061 11.6455C26.8482 13.5878 29.6865 13.9862 32.0767 12.9404L39.5461 20.4107C39.8947 19.8131 40.3429 19.2155 40.8906 18.6676ZM31.1804 8.95616C30.1845 9.95221 28.591 9.95221 27.5951 8.95616C26.5992 7.96012 26.5992 6.36644 27.5951 5.37039C28.591 4.37434 30.1845 4.37434 31.1804 5.37039C32.1763 6.36644 32.1763 7.96012 31.1804 8.95616Z" fill="#142D51"/>
</g>
<defs>
<filter id="filter0_d" x="0.763611" y="0.763672" width="57.2545" height="57.2545" filterUnits="userSpaceOnUse" color-interpolation-filters="sRGB">
<feFlood flood-opacity="0" result="BackgroundImageFix"/>
<feColorMatrix in="SourceAlpha" type="matrix" values="0 0 0 0 0 0 0 0 0 0 0 0 0 0 0 0 0 0 127 0"/>
<feOffset dy="4"/>
<feGaussianBlur stdDeviation="2"/>
<feColorMatrix type="matrix" values="0 0 0 0 0 0 0 0 0 0 0 0 0 0 0 0 0 0 0.25 0"/>
<feBlend mode="normal" in2="BackgroundImageFix" result="effect1_dropShadow"/>
<feBlend mode="normal" in="SourceGraphic" in2="effect1_dropShadow" result="shape"/>
</filter>
</defs>
</svg>
