<svg width="129" height="24" viewBox="0 0 129 24" fill="none" xmlns="http://www.w3.org/2000/svg">
<path d="M11.0358 12.0727C11.0358 12.7272 11.5578 13.2363 12.2289 13.2363C12.9 13.2363 13.422 12.7272 13.422 12.0727C13.422 11.4181 12.9 10.9091 12.2289 10.9091C11.5578 10.9091 11.0358 11.4181 11.0358 12.0727V12.0727ZM21.1023 10.9091C20.4312 10.9091 19.9092 11.4181 19.9092 12.0727C19.9092 12.7272 20.4312 13.2363 21.1023 13.2363C21.7734 13.2363 22.2954 12.7272 22.2954 12.0727C22.2954 11.4181 21.7734 10.9091 21.1023 10.9091V10.9091ZM21.1023 19.7091C20.4312 19.7091 19.9092 20.2181 19.9092 20.8727C19.9092 21.5272 20.4312 22.0363 21.1023 22.0363C21.7734 22.0363 22.2954 21.5272 22.2954 20.8727C22.2954 20.2181 21.7734 19.7091 21.1023 19.7091Z" fill="#8990A8"/>
<path d="M23.6376 1.23638C22.4445 -0.218162 20.2821 -0.29089 19.0145 0.872747L18.8653 1.0182L18.5671 1.23638C17.374 2.18184 15.5844 2.10911 14.4659 1.0182V0.945474C14.0931 0.581838 13.5711 0.290929 13.0491 0.145474C12.9746 0.145474 12.8254 0.0727467 12.7509 0.0727467H11.5578C11.4832 0.0727467 11.4087 0.0727467 11.3341 0.145474H11.185C11.1104 0.145474 11.0358 0.218201 10.9613 0.218201C10.9613 0.218201 10.8867 0.218201 10.8867 0.290929C10.8121 0.290929 10.7376 0.363656 10.663 0.363656C10.663 0.363656 10.5884 0.363656 10.5884 0.436383C10.5139 0.50911 10.4393 0.50911 10.3647 0.581838C10.3647 0.581838 10.2902 0.581838 10.2902 0.654565C10.2156 0.727292 10.141 0.727292 10.0665 0.800019L9.99191 0.872747L9.84277 1.0182L9.54451 1.23638C8.35144 2.18184 6.56185 2.10911 5.51792 1.0182C5.51792 1.0182 5.44335 1.0182 5.44335 0.945474L5.29422 0.800019C4.84682 0.436383 4.32486 0.145474 3.72832 0.0727467H2.38613C2.38613 0.145474 2.31156 0.145474 2.23699 0.218201H2.16243C1.7896 0.363656 1.41676 0.50911 1.1185 0.800019L1.04393 0.872747L0.820231 1.09093C0.521965 1.38184 0.372832 1.74547 0.223699 2.03638C0.223699 2.10911 0.149133 2.18184 0.149133 2.25456C0.149133 2.32729 0.0745665 2.40002 0.0745665 2.54547C0 3.05456 0 3.56366 0.149133 4.07275C0.149133 4.14547 0.223699 4.2182 0.223699 4.29093V4.36366C0.223699 4.43638 0.298266 4.50911 0.298266 4.58184C0.372832 4.65457 0.372832 4.72729 0.447399 4.87275C0.596532 4.94547 0.745665 5.09093 0.820231 5.16366L0.969364 5.30911L1.1185 5.45457C2.23699 6.54547 2.23699 8.43638 1.04393 9.60002C0.894798 9.74547 0.671098 9.96366 0.596532 10.1091C0.521965 10.1818 0.521965 10.2546 0.447399 10.4V10.4727C0.372832 10.5455 0.372832 10.6182 0.298266 10.6909V10.7637C0.298266 10.8364 0.223699 10.9091 0.223699 10.9818V11.0546C0.223699 11.1273 0.223699 11.2 0.149133 11.2727V12.3637C0.149133 12.4364 0.149133 12.5091 0.223699 12.5818V12.6546C0.372832 13.1637 0.671098 13.6727 1.1185 14.1091C2.31156 15.2727 2.31156 17.1637 1.1185 18.3273L1.04393 18.4L0.894798 18.5455V18.6182C0.820231 18.6909 0.745665 18.7637 0.745665 18.8364C0.745665 18.8364 0.745665 18.9091 0.671098 18.9091C0.596532 18.9818 0.596532 19.0546 0.521965 19.1273L0.447399 19.2C0.447399 19.2727 0.372832 19.2727 0.372832 19.3455C0.372832 19.4182 0.298266 19.4182 0.298266 19.4909C0.298266 19.5637 0.298266 19.5637 0.223699 19.6364C0.0745665 19.9273 0 20.2909 0 20.5818V21.1637C0.0745665 21.3818 0.0745665 21.6 0.223699 21.7455C0.223699 21.8182 0.298266 21.8909 0.298266 21.8909C0.298266 21.8909 0.298266 21.9637 0.372832 21.9637C0.372832 22.0364 0.447399 22.1091 0.447399 22.1818C0.447399 22.1818 0.447399 22.2546 0.521965 22.2546C0.596532 22.4 0.671098 22.4727 0.745665 22.5455C0.745665 22.5455 0.745665 22.6182 0.820231 22.6182C0.820231 22.6182 0.820231 22.6909 0.894798 22.6909C0.894798 22.7637 0.969364 22.7637 0.969364 22.7637L1.04393 22.8364C1.1185 22.9091 1.19306 22.9091 1.19306 22.9818L1.26763 23.0546C1.26763 23.0546 1.3422 23.0546 1.3422 23.1273C1.41676 23.2 1.49133 23.2727 1.5659 23.2727C1.5659 23.2727 1.64046 23.2727 1.64046 23.3455C1.71503 23.4182 1.7896 23.4182 1.86416 23.4909H1.93873C2.01329 23.5637 2.08786 23.5637 2.23699 23.5637C2.31156 23.5637 2.46069 23.6364 2.53526 23.6364H2.60983C2.68439 23.6364 2.75896 23.6364 2.83353 23.7091H3.50462C3.72832 23.7091 3.87746 23.6364 4.10116 23.6364H4.17572C4.25029 23.6364 4.32486 23.5637 4.39942 23.5637H4.47399C4.54855 23.5637 4.62312 23.4909 4.69769 23.4909H4.77225C4.92139 23.4182 5.14509 23.2727 5.29422 23.2L5.51792 22.9818L5.59249 22.9091C6.78555 21.6727 8.72428 21.6727 9.91734 22.9091C11.2595 24.2909 13.4965 24.2182 14.7642 22.6909C15.659 21.6 15.659 20 14.7642 18.8364C13.5711 17.3818 11.4087 17.3091 10.141 18.4727L9.99191 18.6182L9.69364 18.8364C8.50058 19.7818 6.71098 19.7091 5.59249 18.6182L5.44335 18.4727L5.21965 18.1818C4.25029 17.0182 4.32486 15.2727 5.44335 14.1818C6.11445 13.6 6.41272 12.8 6.41272 12V11.7818C6.41272 11.0546 6.11445 10.3273 5.51792 9.8182C5.51792 9.74547 5.44335 9.74547 5.44335 9.67275L5.21965 9.38184C4.25029 8.2182 4.32486 6.47275 5.44335 5.38184L5.51792 5.30911L5.59249 5.23638C6.78555 4.00002 8.72428 4.00002 9.91734 5.23638L9.99191 5.30911L10.0665 5.38184L10.2156 5.52729C10.2902 5.52729 10.2902 5.60002 10.3647 5.60002C10.4393 5.60002 10.4393 5.67275 10.5139 5.67275C10.5884 5.67275 10.5884 5.74547 10.663 5.74547C10.7376 5.74547 10.7376 5.8182 10.8121 5.8182C10.8867 5.8182 10.8867 5.89093 10.9613 5.89093C11.0358 5.89093 11.0358 5.96366 11.1104 5.96366C11.185 5.96366 11.185 5.96366 11.2595 6.03638C11.3341 6.03638 11.3341 6.03638 11.4087 6.10911H12.6763C12.7509 6.10911 12.8254 6.10911 12.9 6.03638H13.0491C13.1237 6.03638 13.1983 5.96366 13.2728 5.96366H13.3474C13.422 5.96366 13.4965 5.89093 13.6457 5.8182C13.9439 5.67275 14.2422 5.45456 14.4659 5.23638L14.5405 5.16366C15.7335 3.92729 17.6723 3.92729 18.8653 5.16366C20.1329 6.6182 22.4445 6.54547 23.6376 5.0182C24.5324 3.92729 24.5324 2.32729 23.6376 1.23638" fill="#8990A8"/>
<path d="M40.6387 10.2545C40.1913 9.81818 39.8185 9.52727 39.2965 9.30909C38.8491 9.09091 38.3272 8.94546 37.6561 8.94546C37.0595 8.94546 36.463 9.09091 36.0156 9.30909C35.5682 9.52727 35.1954 9.81818 34.8971 10.2545C34.5988 10.6182 34.3751 11.0545 34.226 11.5636C34.0769 12.0727 34.0023 12.5818 34.0023 13.0909C34.0023 13.6 34.0769 14.1091 34.3006 14.6182C34.4497 15.1273 34.748 15.4909 35.0462 15.8545C35.3445 16.2182 35.7919 16.5091 36.2393 16.7273C36.6867 16.9455 37.2087 17.0182 37.8052 17.0182C38.4763 17.0182 38.9983 16.8727 39.4457 16.6545C39.8931 16.4364 40.3405 16.1455 40.7133 15.7091L42.2792 17.3091C41.6827 17.9636 41.0116 18.4 40.2659 18.6909C39.5202 18.9818 38.7 19.1273 37.8052 19.1273C36.9104 19.1273 36.0156 18.9818 35.2699 18.6909C34.5243 18.4 33.8532 17.9636 33.3312 17.4545C32.8092 16.9455 32.3618 16.2909 32.0636 15.5636C31.7653 14.8364 31.6162 13.9636 31.6162 13.0909C31.6162 12.2182 31.7653 11.3455 32.0636 10.6182C32.3618 9.89091 32.8092 9.23636 33.3312 8.65455C33.8532 8.14546 34.5243 7.70909 35.2699 7.41818C36.0156 7.12727 36.9104 6.98182 37.8052 6.98182C38.7 6.98182 39.5202 7.12727 40.2659 7.41818C41.0861 7.70909 41.7572 8.21818 42.3538 8.8L40.6387 10.2545V10.2545ZM45.7092 12.9455C45.7092 13.5273 45.7838 14.1091 46.0075 14.5455C46.1566 15.0545 46.4549 15.4909 46.7532 15.8545C47.0514 16.2182 47.4988 16.5091 47.9462 16.6545C48.3936 16.8727 48.9902 16.9455 49.5867 16.9455C50.1832 16.9455 50.7052 16.8727 51.2272 16.6545C51.6746 16.4364 52.122 16.1455 52.4202 15.8545C52.7185 15.4909 53.0168 15.0545 53.1659 14.5455C53.315 14.0364 53.4642 13.5273 53.4642 12.9455C53.4642 12.3636 53.3896 11.7818 53.1659 11.3455C53.0168 10.8364 52.7185 10.4 52.4202 10.0364C52.122 9.67273 51.6746 9.38182 51.2272 9.23636C50.7798 9.01818 50.1832 8.94546 49.5867 8.94546C48.9902 8.94546 48.4682 9.01818 47.9462 9.23636C47.4988 9.45455 47.0514 9.74546 46.7532 10.0364C46.4549 10.4 46.1566 10.8364 46.0075 11.3455C45.8584 11.8545 45.7092 12.3636 45.7092 12.9455V12.9455ZM43.3231 12.9455C43.3231 12.0727 43.4722 11.2727 43.7705 10.5455C44.0688 9.81818 44.5162 9.16364 45.1127 8.58182C45.7092 8 46.3058 7.56364 47.126 7.27273C47.8717 6.98182 48.6919 6.76364 49.5867 6.76364C50.4815 6.76364 51.3017 6.90909 52.0474 7.27273C52.7931 7.56364 53.4642 8 54.0607 8.58182C54.6572 9.16364 55.0301 9.81818 55.4029 10.5455C55.7012 11.2727 55.8503 12.0727 55.8503 12.9455C55.8503 13.8182 55.7012 14.6182 55.4029 15.3455C55.1046 16.0727 54.6572 16.7273 54.0607 17.3091C53.4642 17.8909 52.8676 18.2545 52.0474 18.6182C51.3017 18.9091 50.4815 19.1273 49.5867 19.1273C48.6919 19.1273 47.8717 18.9818 47.126 18.6182C46.3803 18.3273 45.7092 17.8909 45.1127 17.3091C44.5162 16.7273 44.1433 16.1455 43.7705 15.3455C43.5468 14.6182 43.3231 13.8182 43.3231 12.9455ZM58.1618 18.8364H60.3988V7.2H58.1618V18.8364ZM57.6399 2.98182C57.6399 2.54545 57.789 2.18182 58.0873 1.81818C58.3855 1.52727 58.7584 1.30909 59.2058 1.30909C59.6532 1.30909 60.026 1.45455 60.3243 1.81818C60.6225 2.10909 60.7717 2.54545 60.7717 2.98182C60.7717 3.41818 60.6225 3.78182 60.3243 4.14545C60.026 4.43636 59.6532 4.65455 59.2058 4.65455C58.7584 4.65455 58.3855 4.50909 58.0873 4.14545C57.789 3.85455 57.6399 3.41818 57.6399 2.98182ZM63.5306 7.2H65.7676V9.01818H65.8422C66.1405 8.36364 66.5879 7.85455 67.3335 7.49091C68.0046 7.12727 68.8248 6.90909 69.7942 6.90909C70.3907 6.90909 70.9127 6.98182 71.4347 7.2C71.9566 7.34546 72.404 7.63636 72.7769 8C73.1497 8.36364 73.448 8.8 73.7462 9.38182C73.9699 9.96364 74.1191 10.6182 74.1191 11.4182V18.9091H71.8821V12C71.8821 11.4909 71.8075 10.9818 71.6584 10.6182C71.5092 10.2545 71.2855 9.89091 71.0618 9.67273C70.8381 9.45455 70.5399 9.23636 70.167 9.16364C69.8688 9.09091 69.4959 9.01818 69.1231 9.01818C68.6757 9.01818 68.2283 9.09091 67.8555 9.23636C67.4827 9.38182 67.1098 9.6 66.8116 9.96364C66.5133 10.2545 66.2896 10.6909 66.1405 11.2C65.9913 11.7091 65.9168 12.2909 65.9168 12.9455V18.9818H63.6798V7.2H63.5306ZM82.3959 17.0182C82.9925 17.0182 83.5144 16.9455 84.0364 16.7273C84.5584 16.5091 84.9312 16.2182 85.304 15.8545C85.6023 15.4909 85.9006 15.0545 86.0497 14.5455C86.1988 14.0364 86.348 13.5273 86.348 12.8727C86.348 12.2909 86.2734 11.7091 86.0497 11.2C85.9006 10.6909 85.6023 10.2545 85.304 9.89091C84.9312 9.52727 84.5584 9.23636 84.0364 9.01818C83.5144 8.8 82.9925 8.72727 82.3959 8.72727C81.7994 8.72727 81.2775 8.8 80.7555 9.01818C80.2335 9.23636 79.8607 9.52727 79.4879 9.89091C79.1896 10.2545 78.8913 10.6909 78.7422 11.2C78.5931 11.7091 78.4439 12.2182 78.4439 12.8727C78.4439 13.4545 78.5185 14.0364 78.7422 14.5455C78.8913 15.0545 79.1896 15.4909 79.4879 15.8545C79.7861 16.2182 80.2335 16.5091 80.7555 16.7273C81.2029 16.8727 81.7994 17.0182 82.3959 17.0182ZM88.585 18.7636H86.348V17.0909H86.2734C85.826 17.7455 85.2295 18.1818 84.4838 18.5455C83.7381 18.9091 82.9179 19.0545 82.0977 19.0545C81.2029 19.0545 80.3081 18.9091 79.5624 18.6182C78.8168 18.3273 78.1457 17.8909 77.6237 17.3091C77.1017 16.7273 76.6543 16.0727 76.4306 15.3455C76.1324 14.6182 75.9832 13.8182 75.9832 12.9455C75.9832 12.0727 76.1324 11.2727 76.4306 10.4727C76.7289 9.74546 77.1017 9.09091 77.6237 8.50909C78.1457 7.92727 78.8168 7.49091 79.5624 7.2C80.3081 6.90909 81.1283 6.76364 82.0977 6.76364C82.9179 6.76364 83.7381 6.90909 84.4838 7.27273C85.2295 7.63636 85.826 8.14546 86.1988 8.72727H86.2734V0H88.5104V18.7636H88.585ZM99.9936 12C99.9936 11.4909 99.9191 11.0545 99.7699 10.6182C99.6208 10.1818 99.3971 9.81818 99.0988 9.52727C98.8006 9.23636 98.4277 9.01818 98.0549 8.8C97.6075 8.65455 97.1601 8.50909 96.5636 8.50909C96.0416 8.50909 95.5196 8.58182 95.0722 8.8C94.6248 9.01818 94.252 9.23636 93.8792 9.6C93.5809 9.89091 93.2827 10.2545 93.1335 10.6909C92.9844 11.1273 92.8353 11.4909 92.8353 11.8545H99.9936V12ZM92.8353 13.8182C92.8353 14.3273 92.9844 14.7636 93.2081 15.2C93.4318 15.6364 93.73 16 94.1029 16.2909C94.4757 16.5818 94.9231 16.8 95.3705 16.9455C95.8925 17.0909 96.3399 17.1636 96.8618 17.1636C97.5329 17.1636 98.204 17.0182 98.726 16.6545C99.248 16.3636 99.6954 15.9273 100.143 15.4182L101.858 16.7273C100.59 18.3273 98.8006 19.1273 96.5636 19.1273C95.5942 19.1273 94.774 18.9818 94.0283 18.6909C93.2827 18.4 92.6116 17.9636 92.0896 17.3818C91.5676 16.8 91.1202 16.2182 90.8965 15.4182C90.5983 14.6909 90.4491 13.8909 90.4491 13.0182C90.4491 12.1455 90.5983 11.3455 90.8965 10.6182C91.1948 9.89091 91.6422 9.23636 92.1642 8.65455C92.6861 8.07273 93.3572 7.70909 94.1029 7.34546C94.8485 7.05455 95.6688 6.90909 96.5636 6.90909C97.6075 6.90909 98.5023 7.05455 99.248 7.41818C99.9936 7.78182 100.59 8.21818 101.038 8.8C101.485 9.38182 101.858 10.0364 102.081 10.7636C102.305 11.4909 102.38 12.2182 102.38 13.0182V13.8182H92.8353V13.8182ZM111.179 10.1091C110.88 9.81818 110.582 9.52727 110.209 9.30909C109.836 9.09091 109.314 8.94546 108.792 8.94546C108.271 8.94546 107.823 9.09091 107.376 9.30909C107.003 9.52727 106.779 9.81818 106.779 10.2545C106.779 10.6182 106.928 10.9091 107.152 11.0545C107.376 11.2727 107.674 11.4182 107.972 11.5636C108.271 11.7091 108.643 11.7818 108.942 11.8545C109.314 11.9273 109.613 12 109.836 12C110.284 12.1455 110.806 12.2182 111.179 12.4364C111.626 12.5818 111.999 12.8 112.297 13.0909C112.595 13.3818 112.819 13.6727 113.043 14.0364C113.192 14.4 113.341 14.8364 113.341 15.4182C113.341 16.0727 113.192 16.6545 112.894 17.0909C112.595 17.5273 112.223 17.9636 111.775 18.2545C111.328 18.5455 110.806 18.7636 110.209 18.9091C109.613 19.0545 109.016 19.1273 108.494 19.1273C107.525 19.1273 106.63 18.9818 105.884 18.6909C105.139 18.4 104.468 17.8909 103.871 17.0909L105.586 15.7091C105.959 16.0727 106.332 16.3636 106.779 16.6545C107.227 16.9455 107.749 17.0909 108.42 17.0909C108.718 17.0909 109.016 17.0909 109.314 17.0182C109.613 16.9455 109.836 16.8727 110.06 16.7273C110.284 16.5818 110.433 16.4364 110.582 16.2909C110.731 16.0727 110.806 15.8545 110.806 15.6364C110.806 15.3455 110.731 15.0545 110.508 14.8364C110.284 14.6182 110.06 14.4727 109.762 14.3273C109.464 14.1818 109.165 14.1091 108.867 14.0364L107.972 13.8182C107.525 13.6727 107.003 13.6 106.63 13.4545C106.183 13.3091 105.81 13.0909 105.512 12.8727C105.213 12.6545 104.915 12.2909 104.691 11.9273C104.468 11.5636 104.393 11.0545 104.393 10.5455C104.393 9.96364 104.542 9.38182 104.766 8.94546C104.99 8.50909 105.362 8.14546 105.81 7.85455C106.257 7.56364 106.705 7.34546 107.227 7.2C107.749 7.05455 108.345 6.98182 108.867 6.98182C109.687 6.98182 110.433 7.12727 111.179 7.41818C111.924 7.70909 112.521 8.21818 112.968 8.87273L111.179 10.1091V10.1091ZM115.503 0.290909H117.74V12.0727L122.811 7.12727H125.868L120.425 12.3636L126.39 18.6182H123.184L117.74 12.6545V18.6182H115.503V0.290909" fill="#8990A8"/>
</svg>
