<svg width="193" height="30" viewBox="0 0 193 30" fill="none" xmlns="http://www.w3.org/2000/svg">
<g clip-path="url(#clip0)">
<path d="M16.7557 29.9765C16.7564 29.9543 17.274 28.0709 17.9059 25.7912C18.5378 23.5113 19.0532 21.6433 19.0511 21.64C19.0491 21.6366 17.8321 22.2583 16.3469 23.0217L13.6463 24.4094L13.3147 24.4755C11.754 24.7865 10.1339 24.8745 8.59949 24.7316C6.15484 24.5037 3.97503 23.6826 2.25465 22.3416C1.8956 22.0616 1.37481 21.5558 1.12195 21.2413C0.665141 20.6733 0.302447 19.9603 0.142196 19.3154C-0.00411621 18.7267 0.0005613 18.9502 0 12.5018C0 8.61148 0.00963566 6.38679 0.0283457 6.15543C0.144067 4.72643 0.937184 3.4044 2.30975 2.35266C3.22345 1.65266 4.37674 1.03204 5.40092 0.689494C6.30602 0.386733 7.21187 0.180701 8.12557 0.0698045C8.6675 0.0041296 8.78182 -9.2358e-05 10.063 1.46326e-06C11.5286 1.46326e-06 11.8948 0.0213927 12.6832 0.152367C14.2014 0.404746 15.6188 0.898903 16.7682 1.57667C17.1266 1.78805 17.7011 2.18088 17.9928 2.41412C18.424 2.75882 19.0087 3.3269 19.0087 3.40112C19.0087 3.42513 20.6963 3.4332 25.7319 3.4332C32.1221 3.4332 32.4544 3.43555 32.4403 3.48199C32.4323 3.50892 32.0618 4.96268 31.6171 6.71272C31.1726 8.46277 30.8018 9.91672 30.7932 9.94365C30.7786 9.98999 30.5958 9.99262 27.4008 9.99262H24.0238L23.9961 10.0694C23.9808 10.1116 23.5913 11.1249 23.1304 12.3209C22.6696 13.517 22.2978 14.5009 22.3044 14.5074C22.3107 14.5139 24.0987 13.6027 26.2775 12.4826C31.2328 9.93511 30.7199 10.1922 30.6582 10.2867C30.5702 10.4214 16.8058 29.9629 16.7795 29.9905C16.7639 30.0069 16.7548 30.0017 16.7557 29.9765ZM23.4445 18.8879C25.8107 15.5287 27.7545 12.7677 27.7641 12.7523C27.7735 12.7369 27.7206 12.7551 27.6463 12.793C27.572 12.8307 25.9596 13.661 24.063 14.6381C22.1665 15.615 20.6049 16.4108 20.5927 16.4065C20.5805 16.4021 21.1983 14.7689 21.9655 12.777L23.3602 9.15555L26.7016 9.14842L30.0431 9.14129L30.4263 7.63405L31.0419 5.21252L31.2741 4.29842L22.1425 4.29861L13.0108 4.2988L12.3965 6.72004L11.7822 9.14119L15.1256 9.15527L18.4691 9.16915L16.7656 15.8682C15.8285 19.5525 15.0658 22.5711 15.0704 22.5761C15.0751 22.581 16.3028 21.9556 17.7986 21.1862C19.2944 20.4168 20.522 19.791 20.5266 19.7957C20.5312 19.8003 20.2104 20.9776 19.8135 22.4118C19.4168 23.8462 19.0922 25.0262 19.0922 25.0341C19.0922 25.0421 19.1034 25.0367 19.1172 25.022C19.131 25.0075 21.0783 22.2471 23.4445 18.8879ZM11.3549 23.7403C12.025 23.675 12.5856 23.5792 13.3433 23.4003C13.5721 23.3463 13.7942 23.3073 13.837 23.3136C13.8908 23.3215 13.9187 23.3115 13.9275 23.2811C14.0096 22.9984 14.6697 20.3417 14.6602 20.3322C14.6531 20.3252 14.4722 20.3697 14.258 20.4314C12.3207 20.9888 10.0258 21.1399 7.91761 20.8489C5.7276 20.5464 3.71665 19.7145 2.18991 18.4793C1.80458 18.1675 1.26826 17.6312 1.07236 17.3615C0.999863 17.2617 0.934191 17.1739 0.926426 17.1661C0.918755 17.1585 0.918287 17.5101 0.925303 17.9476C0.937278 18.6879 0.943078 18.7628 1.00997 19.0243C1.26115 20.0083 1.80767 20.81 2.73175 21.5503C4.34587 22.8431 6.37899 23.5708 8.96135 23.7797C9.39953 23.8152 10.8288 23.7918 11.3549 23.7403ZM10.4921 19.9849C11.8799 19.928 13.0987 19.7176 14.2353 19.3384C14.5745 19.2254 14.8507 19.1482 14.8937 19.1545C14.9677 19.1654 14.9679 19.1651 15.0978 18.6612C15.5748 16.8111 15.7997 15.9229 15.7932 15.9152C15.7891 15.9104 15.6499 15.962 15.4837 16.0299C15.0295 16.2157 14.735 16.3204 14.3557 16.4306C13.373 16.7163 12.7453 16.8366 11.5776 16.963C10.9315 17.0329 9.26576 17.0321 8.57171 16.9618C5.99908 16.7007 3.87456 15.8747 2.10534 14.4476C1.81178 14.2108 1.22363 13.6112 1.0385 13.36L0.917913 13.1964V13.9461C0.917913 14.3585 0.931104 14.7775 0.946913 14.8773C0.996214 15.1868 1.10426 15.5784 1.21082 15.8333C1.65144 16.8874 2.73475 17.9332 4.17776 18.6978C5.51141 19.4045 7.22422 19.8561 9.04461 19.9813C9.54472 20.0157 9.7292 20.0162 10.4921 19.9849ZM11.494 15.9554C12.7574 15.7943 13.3603 15.6646 14.305 15.3508C14.7702 15.1962 15.1853 15.0213 15.7056 14.7606C15.8881 14.6691 16.0555 14.6022 16.0813 14.6105C16.1217 14.6233 16.1792 14.4232 16.5037 13.1407C16.7105 12.3243 16.8835 11.6334 16.8885 11.6055C16.896 11.5625 16.8749 11.5681 16.75 11.6419C16.2512 11.9369 15.3613 12.3412 14.7786 12.5376C13.5281 12.9592 12.7027 13.1204 11.2297 13.2312C10.7222 13.2694 9.42975 13.269 8.95695 13.2305C7.34349 13.0991 5.88523 12.7658 4.7414 12.2668C3.67755 11.8028 2.75739 11.2451 2.0451 10.633C1.6723 10.3126 1.05047 9.65533 0.950749 9.47623C0.927174 9.43392 0.91941 9.58459 0.918755 10.1008C0.918007 10.718 0.924368 10.8132 0.987514 11.1258C1.15553 11.9582 1.51813 12.6025 2.21208 13.3022C3.71777 14.8202 5.99038 15.7453 8.85002 16.004C8.91887 16.0103 9.46371 16.0119 10.0607 16.0076C10.8479 16.002 11.2417 15.9875 11.494 15.9554ZM10.7835 12.2529C11.9048 12.2003 13.0335 12.0248 13.818 11.7809C13.9171 11.7499 14.0168 11.7208 14.1171 11.6937C14.3655 11.6304 15.0454 11.3669 15.4313 11.1846C16.0197 10.9066 16.6611 10.5302 17.0604 10.2285C17.1446 10.1649 17.2276 10.1178 17.2447 10.1237C17.262 10.1296 17.2822 10.1027 17.2896 10.0636L17.3031 9.99281L13.9576 9.98577L10.6121 9.97864L11.4242 6.78271C11.7016 5.69191 11.9786 4.60102 12.2553 3.51004L12.2743 3.43348L14.9343 3.42635L17.5944 3.41922L17.4179 3.27615C16.3094 2.37828 15.0216 1.74329 13.498 1.34352C11.5696 0.837638 8.86649 0.813432 6.93515 1.28479C6.33109 1.43218 5.65744 1.63005 5.38502 1.7401C4.66057 2.03264 4.21602 2.25884 3.6347 2.63047C2.7253 3.21178 2.14164 3.75632 1.66968 4.46411C0.835402 5.71494 0.813231 7.3615 1.61308 8.66674C2.0958 9.45474 3.02401 10.2737 4.1018 10.8628C5.40644 11.576 6.91653 12.0285 8.55777 12.1983C9.37493 12.2828 9.88019 12.2952 10.7835 12.2529ZM64.826 15.4444V10.2312H66.9463V20.6576H64.826V15.4444ZM71.8024 15.4444V10.2312H72.8796L73.9568 10.2313L76.3165 13.4904L78.6761 16.7494L78.6939 13.4904L78.7117 10.2312H80.8999L80.8823 15.4272L80.8648 20.6232H78.6817L76.3192 17.4076L73.9568 14.192L73.9391 17.4248L73.9213 20.6576H71.8024V15.4444ZM87.807 16.5076V12.3577H84.5924V10.2312H93.2787V12.3577H89.9957V20.6576H87.807V16.5076ZM97.1773 15.4444V10.2312H104.838V12.4263H99.3661V14.4823L101.777 14.5004L104.188 14.5184L104.207 15.4958L104.226 16.4733H99.3661V18.5311H104.838V20.6576H97.1773V15.4444ZM109.147 15.4444V10.2312H111.335V18.5311H116.397V20.6576H109.147V15.4444ZM120.295 15.4444V10.2312H127.955V12.3577H122.484V14.484H127.271V16.5419H122.484V18.5296L125.203 18.5474L127.921 18.5654L127.94 19.6116L127.959 20.6576H120.295V15.4444ZM135.992 20.5515C135.376 20.4193 134.392 19.9329 133.885 19.5107C133.046 18.8117 132.407 17.854 132.154 16.9192C131.983 16.2846 131.951 14.963 132.09 14.276C132.475 12.3671 134.036 10.7721 135.937 10.3425C136.559 10.2018 137.825 10.1976 138.402 10.3341C139.253 10.5354 140.23 11.0955 140.846 11.7349L141.117 12.0167L140.371 12.7673L139.625 13.5179L139.312 13.2245C138.687 12.6381 137.977 12.3576 137.119 12.3576C136.275 12.3576 135.546 12.6925 134.921 13.3663C134.537 13.781 134.37 14.0981 134.222 14.6942C134.033 15.4592 134.104 16.3182 134.413 16.9947C134.626 17.4605 135.249 18.1243 135.734 18.4031C136.63 18.9167 138.353 18.828 139.315 18.2188L139.583 18.0492V16.4731H137.12V14.7564L139.395 14.7745L141.669 14.7926L141.687 16.923L141.705 19.0535L141.242 19.3884C140.613 19.8442 139.729 20.2791 139.07 20.4571C138.345 20.6531 136.7 20.7035 135.992 20.5515ZM146.08 15.4444V10.2312H148.887C151.549 10.2312 151.715 10.2385 152.116 10.374C152.723 10.5791 153.047 10.7899 153.526 11.29C154.469 12.2746 154.772 13.6221 154.347 14.9431C154.112 15.6758 153.58 16.327 152.806 16.8289C152.568 16.9834 152.373 17.1216 152.373 17.136C152.373 17.1562 154.602 20.1612 154.922 20.5718C154.975 20.6398 154.707 20.657 153.629 20.6547L152.27 20.6521L151.048 19.0087L149.826 17.3651H148.201V20.6577H146.08V15.4444ZM151.073 15.5753C151.719 15.4362 152.334 14.804 152.416 14.1936C152.505 13.5299 152.099 12.8104 151.461 12.5006C151.191 12.3692 151.047 12.3577 149.684 12.3577H148.201V15.6502H149.463C150.157 15.6502 150.881 15.6165 151.073 15.5753ZM157.668 20.5375C157.693 20.4715 158.704 18.1265 159.916 15.3265L162.119 10.2355L163.32 10.2335L164.52 10.2314L166.732 15.3245C167.949 18.1257 168.959 20.4725 168.977 20.5393C169.008 20.6529 168.931 20.6598 167.827 20.6422L166.643 20.6234L166.122 19.4231L165.601 18.2226L163.338 18.2046L161.075 18.1865L160.615 19.2335C160.361 19.8093 160.124 20.3653 160.087 20.4692L160.02 20.6578H158.822C157.711 20.6578 157.628 20.6489 157.668 20.5375ZM164.16 14.9128C163.802 14.0922 163.477 13.3337 163.438 13.227C163.399 13.1204 163.344 13.0587 163.315 13.0898C163.259 13.15 161.88 16.2982 161.88 16.3652C161.88 16.3869 162.539 16.4046 163.345 16.4046H164.81L164.16 14.9128ZM172.413 15.4417V10.2256L175.337 10.2456L178.261 10.2655L178.789 10.5187C180.078 11.136 180.83 12.3317 180.834 13.771C180.836 14.4853 180.76 14.8245 180.468 15.4083C180.197 15.9506 179.421 16.7083 178.836 17.0025C178.24 17.3022 177.761 17.3638 176.021 17.3644H174.533V20.6569H172.413V15.4417ZM177.679 15.503C178.321 15.2178 178.721 14.6367 178.726 13.9831C178.73 13.3405 178.41 12.831 177.809 12.5258C177.489 12.3628 177.433 12.3577 176.006 12.3577H174.533V15.6638L175.987 15.6366C177.106 15.6158 177.495 15.585 177.679 15.503ZM184.314 15.4444V10.2312H186.502V14.484H190.811V10.2312H193V20.6576H190.811V16.4733H186.502V20.6576H184.314V15.4444ZM41.0619 20.4799C39.1112 20.0431 37.5442 18.4721 37.1493 16.557C36.9976 15.8214 37.0519 14.3375 37.2509 13.7807C37.5549 12.9303 37.884 12.4156 38.5606 11.7324C39.1258 11.162 39.3022 11.0299 39.8684 10.7537C40.7629 10.3172 41.305 10.2118 42.4605 10.2494C43.226 10.2743 43.4692 10.3095 43.8836 10.4556C44.5756 10.6996 45.2475 11.1163 45.7932 11.6399L46.2555 12.0834L45.4902 12.851L44.725 13.6184L44.3854 13.2726C43.7782 12.654 43.0602 12.3568 42.177 12.3585C41.3279 12.3601 40.7961 12.5825 40.1452 13.2084C39.4358 13.8905 39.1348 14.6569 39.1951 15.6267C39.2553 16.5932 39.7865 17.4621 40.6633 18.028C41.7802 18.749 43.404 18.5467 44.3597 17.5675L44.7199 17.1983L45.4673 17.9455L46.2146 18.6926L46.0303 18.9055C45.5098 19.507 44.6729 20.057 43.8222 20.3566C43.1681 20.587 41.8109 20.6476 41.0619 20.4799ZM53.9168 20.4915C52.7395 20.219 51.8705 19.6822 51.0271 18.7066C50.6108 18.2252 50.1719 17.3867 50.0016 16.7476C49.8369 16.1299 49.8413 14.6227 50.0095 14.0102C50.2799 13.0255 51.0086 11.9295 51.8156 11.2938C52.3299 10.8885 53.045 10.5394 53.7094 10.3689C54.4634 10.1756 55.7092 10.1774 56.4127 10.3728C58.8475 11.0494 60.4985 13.5136 60.18 15.9954C60.0909 16.6898 59.8239 17.5086 59.5099 18.0508C59.167 18.6428 58.2816 19.5203 57.6562 19.8879C56.832 20.3723 56.2548 20.5317 55.2163 20.5612C54.6176 20.5782 54.1932 20.5555 53.9168 20.4915ZM55.8131 18.368C56.5983 18.1827 57.3961 17.5256 57.7948 16.736C58.1873 15.9587 58.1977 14.9136 57.821 14.0983C57.6026 13.6256 56.9766 12.9706 56.5016 12.7178C55.6883 12.285 54.5909 12.241 53.8065 12.6099C51.9159 13.4989 51.4175 15.9265 52.8086 17.4706C53.5566 18.3008 54.6782 18.6358 55.8131 18.368Z" fill="#43466C" fill-opacity="0.59"/>
</g>
<defs>
<clipPath id="clip0">
<rect width="193" height="30" fill="white"/>
</clipPath>
</defs>
</svg>
