<svg width="61" height="61" viewBox="0 0 61 61" fill="none" xmlns="http://www.w3.org/2000/svg">
<path d="M30.0822 1.37319e-06C22.8583 0.00965997 15.8783 2.6147 10.4145 7.34033C4.95062 12.066 1.36668 18.5975 0.315849 25.7446C0.311699 25.7653 0.311089 25.7855 0.307979 25.8064C-0.504279 31.4379 0.298 37.1844 2.62161 42.3781C4.94523 47.5718 8.6948 51.9997 13.4347 55.1472C18.1747 58.2948 23.7104 60.0329 29.3988 60.1595C35.0872 60.2862 40.6948 58.7963 45.5701 55.8629C45.6385 55.8749 45.7077 55.8812 45.777 55.8819C46.0469 55.8796 46.3087 55.7893 46.5227 55.6249C46.7368 55.4604 46.8913 55.2307 46.963 54.9705C52.2908 51.3599 56.3198 46.1354 58.4578 40.0649C60.5958 33.9944 60.73 27.3982 58.8407 21.2458C56.9513 15.0934 53.1381 9.70935 47.9616 5.88509C42.785 2.06082 36.5182 -0.00194291 30.0822 1.37319e-06ZM30.0822 2.5C35.592 2.49372 40.9759 4.14719 45.5325 7.24493C43.3423 7.08873 41.1413 7.20077 38.9783 7.57855C38.3426 6.67371 37.435 5.99513 36.3872 5.64137C35.3395 5.28762 34.2063 5.27713 33.1522 5.61142C32.0981 5.94571 31.1781 6.60737 30.5257 7.50028C29.8733 8.39318 29.5226 9.47083 29.5246 10.5767C29.533 10.7758 29.5531 10.9742 29.5847 11.171C26.0437 13.3587 23.0476 16.3245 20.8239 19.8431C14.7571 19.2081 8.64224 20.4614 3.31451 23.432C4.80669 17.4596 8.2507 12.1566 13.1 8.36449C17.9494 4.57237 23.9262 2.50837 30.0822 2.5ZM37.4416 10.5767C37.4416 11.1124 37.2827 11.636 36.9851 12.0814C36.6875 12.5268 36.2645 12.874 35.7696 13.079C35.2747 13.284 34.7301 13.3376 34.2047 13.2331C33.6793 13.1286 33.1967 12.8707 32.8179 12.4919C32.4391 12.1131 32.1811 11.6305 32.0766 11.1051C31.9721 10.5797 32.0258 10.0351 32.2308 9.54016C32.4358 9.04525 32.7829 8.62224 33.2283 8.32463C33.6737 8.02701 34.1974 7.86816 34.7331 7.86816C35.4512 7.86888 36.1397 8.15448 36.6475 8.66226C37.1553 9.17005 37.4409 9.85854 37.4416 10.5767ZM2.49871 30.0835C2.50117 28.9597 2.57204 27.8371 2.71093 26.7219C7.16483 23.756 12.3977 22.1762 17.7487 22.1821C18.3254 22.1821 18.8996 22.2069 19.4722 22.2435C17.8937 25.3991 16.9259 28.8246 16.6199 32.3396C15.3809 32.6124 14.2845 33.329 13.5374 34.3544C12.7903 35.3798 12.444 36.643 12.564 37.906C12.6839 39.169 13.2617 40.3445 14.1885 41.2109C15.1153 42.0773 16.3269 42.5748 17.5951 42.6095C19.3099 48.6709 23.0521 53.9607 28.1971 57.5953C21.228 57.1106 14.7016 54.0026 9.93299 48.8974C5.16433 43.7922 2.50781 37.0694 2.49871 30.0835ZM41.2331 36.2695C40.6974 36.2696 40.1738 36.1107 39.7284 35.8132C39.283 35.5156 38.9358 35.0926 38.7308 34.5978C38.5258 34.1029 38.4721 33.5583 38.5766 33.033C38.6811 32.5076 38.939 32.025 39.3178 31.6462C39.6966 31.2675 40.1792 31.0095 40.7045 30.905C41.2299 30.8005 41.7745 30.8542 42.2694 31.0592C42.7642 31.2642 43.1872 31.6114 43.4848 32.0568C43.7823 32.5022 43.9411 33.0258 43.9411 33.5615C43.9402 34.2794 43.6547 34.9677 43.147 35.4754C42.6393 35.9831 41.951 36.2686 41.2331 36.2695ZM41.2331 38.7695C41.7378 38.7622 42.2386 38.6806 42.7195 38.5272C44.2292 41.9642 45.0055 45.6782 44.9987 49.4321C44.9972 50.7804 44.8966 52.1268 44.6979 53.4604C41.1454 55.6947 37.127 57.0827 32.9529 57.5173C29.8453 55.9813 27.092 53.8144 24.8686 51.1548C22.6452 48.4953 21.0005 45.4016 20.0395 42.0709C20.9891 41.6106 21.7752 40.8711 22.2926 39.9513C22.8099 39.0316 23.0337 37.9757 22.934 36.9252C22.8343 35.8747 22.4159 34.8798 21.7347 34.0738C21.0536 33.2678 20.1423 32.6894 19.1231 32.4159C19.4414 28.9543 20.4652 25.5946 22.1313 22.5437C27.8443 23.4838 33.1117 26.2123 37.1754 30.3363C36.4356 31.2489 36.0296 32.3867 36.0246 33.5615C36.0262 34.9423 36.5755 36.2661 37.552 37.2425C38.5284 38.2188 39.8523 38.768 41.2331 38.7695ZM17.7487 34.7085C18.2843 34.7085 18.808 34.8672 19.2534 35.1648C19.6988 35.4623 20.0459 35.8853 20.251 36.3801C20.456 36.875 20.5097 37.4195 20.4052 37.9449C20.3008 38.4702 20.0429 38.9528 19.6642 39.3316C19.2854 39.7104 18.8029 39.9684 18.2776 40.0729C17.7522 40.1775 17.2077 40.1239 16.7128 39.9189C16.2179 39.714 15.7949 39.3669 15.4973 38.9216C15.1996 38.4762 15.0408 37.9526 15.0407 37.417C15.0415 36.699 15.327 36.0106 15.8347 35.5028C16.3423 34.995 17.0307 34.7094 17.7487 34.7085ZM47.4188 51.5167C47.4668 50.8233 47.4987 50.1281 47.4987 49.4321C47.506 45.2359 46.6168 41.0864 44.8906 37.2616C45.7576 36.4091 46.2984 35.2798 46.4192 34.0699C46.5399 32.86 46.2329 31.6461 45.5515 30.6391C44.8701 29.6321 43.8574 28.8956 42.6894 28.5578C41.5214 28.2199 40.272 28.302 39.1582 28.7897C34.9394 24.4252 29.4905 21.4504 23.5378 20.2619C25.3919 17.5973 27.7491 15.321 30.4768 13.561C31.1106 14.4689 32.0176 15.1508 33.0659 15.5075C34.1141 15.8642 35.2489 15.8769 36.3049 15.544C37.3609 15.211 38.2831 14.5497 38.9372 13.6562C39.5913 12.7628 39.9431 11.6839 39.9415 10.5767C39.9332 10.3716 39.9125 10.1672 39.8796 9.96455C43.0245 9.4776 46.2342 9.6089 49.3288 10.3511C52.1211 13.0666 54.3054 16.3437 55.7374 19.9659C57.1695 23.588 57.8166 27.4729 57.6361 31.3637C57.4555 35.2545 56.4515 39.0627 54.6902 42.5367C52.9289 46.0107 50.4505 49.0715 47.4188 51.5167L47.4188 51.5167Z" fill="url(#paint0_linear)"/>
<circle cx="41" cy="34" r="4" fill="url(#paint1_linear)"/>
<circle cx="35" cy="11" r="4" fill="url(#paint2_linear)"/>
<circle cx="17" cy="37" r="4" fill="url(#paint3_linear)"/>
<defs>
<linearGradient id="paint0_linear" x1="30.0829" y1="0" x2="30.0829" y2="60.167" gradientUnits="userSpaceOnUse">
<stop stop-color="#2767DC"/>
<stop offset="1" stop-color="#2196F3"/>
</linearGradient>
<linearGradient id="paint1_linear" x1="41" y1="30" x2="41" y2="38" gradientUnits="userSpaceOnUse">
<stop stop-color="#2767DC"/>
<stop offset="1" stop-color="#2196F3"/>
</linearGradient>
<linearGradient id="paint2_linear" x1="35" y1="7" x2="35" y2="15" gradientUnits="userSpaceOnUse">
<stop stop-color="#2767DC"/>
<stop offset="1" stop-color="#2196F3"/>
</linearGradient>
<linearGradient id="paint3_linear" x1="17" y1="33" x2="17" y2="41" gradientUnits="userSpaceOnUse">
<stop stop-color="#2767DC"/>
<stop offset="1" stop-color="#2196F3"/>
</linearGradient>
</defs>
</svg>
