<svg width="45" height="67" viewBox="0 0 45 67" fill="none" xmlns="http://www.w3.org/2000/svg">
<path d="M13.2054 32.0821C13.5481 32.4248 13.5481 32.9809 13.2054 33.3244C12.4222 34.108 12.4224 35.3781 13.2058 36.1615L21.5692 44.5242C21.9121 44.867 22.4687 44.8663 22.8116 44.5234L31.1746 36.1604C31.9579 35.3771 31.9582 34.1073 31.1754 33.3237C30.8319 32.9809 30.8319 32.4241 31.1754 32.0805C31.5181 31.7386 32.0742 31.7378 32.4177 32.0813C33.2004 32.8644 34.4697 32.8646 35.2526 32.0817L43.7584 23.5765C44.1017 23.2333 44.1017 22.6767 43.7584 22.3334L22.8116 1.38654C22.4682 1.04356 21.9118 1.04356 21.5684 1.38654L0.621566 22.335C0.278285 22.6782 0.278285 23.2348 0.621566 23.5781L9.12627 32.0821C9.90943 32.8652 11.1791 32.8652 11.9623 32.0821C12.3058 31.7386 12.8619 31.7386 13.2054 32.0821ZM28.9471 28.6122L30.6824 30.3468C31.0252 30.6903 31.0252 31.2456 30.6824 31.5891C30.5107 31.7609 30.2858 31.8464 30.0609 31.8464C29.836 31.8464 29.6111 31.7609 29.4393 31.5891L27.704 29.8538C27.3613 29.5111 27.3613 28.955 27.704 28.6115C28.0475 28.2687 28.6044 28.2687 28.9471 28.6122ZM25.4788 25.1424L27.2134 26.8769C27.5569 27.2205 27.5569 27.7758 27.2134 28.1193C27.0416 28.2911 26.8167 28.3766 26.5918 28.3766C26.3677 28.3766 26.1428 28.2903 25.971 28.1193L24.2357 26.3848C23.8922 26.0413 23.8922 25.4852 24.2357 25.1424C24.5792 24.7989 25.1346 24.7989 25.4788 25.1424ZM20.6365 23.4071C21.4945 22.5495 22.8857 22.55 23.7435 23.4079C24.0863 23.7514 24.0863 24.3067 23.7435 24.6502C23.5718 24.822 23.3469 24.9075 23.122 24.9075C22.8971 24.9075 22.6722 24.822 22.5004 24.6502C22.3293 24.4787 22.051 24.4781 21.8796 24.6495C21.5361 24.993 20.9808 24.993 20.6372 24.6495C20.2937 24.3067 20.2937 23.7506 20.6365 23.4071ZM17.1674 26.8769L18.9027 25.1424C19.2455 24.7989 19.8016 24.7989 20.1451 25.1424C20.4878 25.4852 20.4878 26.042 20.1451 26.3848L18.4098 28.1193C18.238 28.2911 18.0131 28.3766 17.7882 28.3766C17.5633 28.3766 17.3392 28.2911 17.1666 28.1193C16.8239 27.7758 16.8239 27.2197 17.1674 26.8769ZM13.6976 30.3468L15.4329 28.6122C15.7764 28.2687 16.3317 28.2687 16.6752 28.6122C17.018 28.955 17.018 29.5119 16.6752 29.8546L14.9399 31.5891C14.7682 31.7609 14.5433 31.8464 14.3184 31.8464C14.0935 31.8464 13.8693 31.7609 13.6968 31.5891C13.3541 31.2456 13.3541 30.6895 13.6976 30.3468Z" fill="url(#paint0_linear)"/>
<path d="M33.2137 34.1213C32.8707 34.4643 32.8707 35.0205 33.2137 35.3636L39.7734 41.9238C40.9449 43.0954 40.9448 44.9948 39.7733 46.1664L24.3113 61.6283C23.1398 62.7999 21.2403 62.7999 20.0687 61.6283L4.60673 46.1664C3.43519 44.9948 3.43515 43.0954 4.60664 41.9238L11.1659 35.364C11.5091 35.0207 11.509 34.4642 11.1657 34.1211C10.8225 33.7781 10.2662 33.7782 9.92311 34.1213L2.1212 41.9238C0.949686 43.0954 0.949739 44.9948 2.12132 46.1664L20.0687 64.1132C21.2403 65.2847 23.1397 65.2847 24.3113 64.1132L42.2586 46.1664C43.4302 44.9949 43.4302 43.0954 42.2587 41.9238L34.4561 34.1213C34.1131 33.7782 33.5568 33.7782 33.2137 34.1213Z" fill="url(#paint1_linear)"/>
<defs>
<linearGradient id="paint0_linear" x1="0" y1="0.765747" x2="44.619" y2="1.00736" gradientUnits="userSpaceOnUse">
<stop stop-color="#2866DC"/>
<stop offset="1" stop-color="#129EED"/>
</linearGradient>
<linearGradient id="paint1_linear" x1="0" y1="33.5001" x2="44.6179" y2="33.8276" gradientUnits="userSpaceOnUse">
<stop stop-color="#2866DC"/>
<stop offset="1" stop-color="#129EED"/>
</linearGradient>
</defs>
</svg>
