<svg width="355" height="229" viewBox="0 0 355 229" fill="none" xmlns="http://www.w3.org/2000/svg">
<path d="M310.213 177.122H303.619C302.815 177.122 302.172 176.481 302.172 175.679C302.172 174.877 302.815 174.236 303.619 174.236H310.213C311.017 174.236 311.66 174.877 311.66 175.679C311.58 176.481 311.017 177.122 310.213 177.122ZM297.106 177.122H290.513C289.709 177.122 289.066 176.481 289.066 175.679C289.066 174.877 289.709 174.236 290.513 174.236H297.106C297.911 174.236 298.554 174.877 298.554 175.679C298.473 176.481 297.83 177.122 297.106 177.122ZM284 177.122H277.407C276.602 177.122 275.959 176.481 275.959 175.679C275.959 174.877 276.602 174.236 277.407 174.236H284C284.804 174.236 285.447 174.877 285.447 175.679C285.367 176.481 284.724 177.122 284 177.122ZM316.726 177.042C316.002 177.042 315.359 176.481 315.279 175.759C315.198 174.957 315.761 174.316 316.565 174.236C318.415 174.075 320.183 173.273 321.55 171.91C322.113 171.349 322.998 171.349 323.561 171.91C324.123 172.472 324.123 173.354 323.561 173.915C321.792 175.679 319.379 176.801 316.887 177.042C316.806 177.042 316.806 177.042 316.726 177.042ZM325.49 168.623C325.41 168.623 325.41 168.623 325.33 168.623C324.526 168.543 324.043 167.821 324.123 167.019C324.204 166.699 324.204 166.298 324.204 165.977V160.685C324.204 159.883 324.847 159.242 325.651 159.242C326.455 159.242 327.099 159.883 327.099 160.685V165.977C327.099 166.458 327.099 166.939 327.018 167.34C326.777 168.142 326.134 168.623 325.49 168.623ZM325.49 155.553C324.686 155.553 324.043 154.912 324.043 154.11V147.535C324.043 146.733 324.686 146.092 325.49 146.092C326.294 146.092 326.938 146.733 326.938 147.535V154.11C326.938 154.912 326.294 155.553 325.49 155.553Z" fill="#5FC3EA"/>
<path d="M71.4824 92.049H68.2661C67.462 92.049 66.8188 91.4076 66.8188 90.6058C66.8188 89.8039 67.462 89.1625 68.2661 89.1625H71.4824C72.2865 89.1625 72.9298 89.8039 72.9298 90.6058C72.9298 91.4076 72.2865 92.049 71.4824 92.049Z" fill="#5FC3EA"/>
<path d="M13.6693 146.332C12.8652 146.332 12.222 145.691 12.222 144.889V138.314C12.222 137.512 12.8652 136.871 13.6693 136.871C14.4734 136.871 15.1166 137.512 15.1166 138.314V144.889C15.1166 145.691 14.4734 146.332 13.6693 146.332ZM13.6693 133.263C12.8652 133.263 12.222 132.621 12.222 131.819V125.244C12.222 124.443 12.8652 123.801 13.6693 123.801C14.4734 123.801 15.1166 124.443 15.1166 125.244V131.819C15.1166 132.621 14.4734 133.263 13.6693 133.263ZM13.6693 120.193C12.8652 120.193 12.222 119.551 12.222 118.75V112.175C12.222 111.373 12.8652 110.731 13.6693 110.731C14.4734 110.731 15.1166 111.373 15.1166 112.175V118.75C15.1166 119.551 14.4734 120.193 13.6693 120.193ZM13.6693 107.043C12.8652 107.043 12.222 106.402 12.222 105.6V100.308C12.222 99.8267 12.222 99.3456 12.3024 98.9447C12.3828 98.1429 13.1064 97.5816 13.9105 97.742C14.7146 97.8221 15.197 98.5438 15.1166 99.3456C15.0362 99.6663 15.0362 100.067 15.0362 100.388V105.68C15.1166 106.482 14.4734 107.043 13.6693 107.043ZM16.6444 94.7752C16.2423 94.7752 15.9207 94.6149 15.5991 94.3743C15.0362 93.813 15.0362 92.931 15.5991 92.3698C17.368 90.6058 19.7803 89.4832 22.2729 89.2427C23.077 89.1625 23.7203 89.7238 23.8007 90.5256C23.8811 91.3274 23.3182 91.9689 22.5141 92.049C20.6648 92.2094 18.8958 93.0112 17.5289 94.3743C17.368 94.695 16.966 94.7752 16.6444 94.7752ZM61.7531 92.049H55.1597C54.3556 92.049 53.7123 91.4076 53.7123 90.6058C53.7123 89.8039 54.3556 89.1625 55.1597 89.1625H61.7531C62.5572 89.1625 63.2004 89.8039 63.2004 90.6058C63.2004 91.4076 62.5572 92.049 61.7531 92.049ZM48.6466 92.049H42.0532C41.2491 92.049 40.6059 91.4076 40.6059 90.6058C40.6059 89.8039 41.2491 89.1625 42.0532 89.1625H48.6466C49.4507 89.1625 50.094 89.8039 50.094 90.6058C50.094 91.4076 49.4507 92.049 48.6466 92.049ZM35.5402 92.049H28.9468C28.1427 92.049 27.4994 91.4076 27.4994 90.6058C27.4994 89.8039 28.1427 89.1625 28.9468 89.1625H35.5402C36.3443 89.1625 36.9875 89.8039 36.9875 90.6058C36.9875 91.4076 36.3443 92.049 35.5402 92.049Z" fill="#5FC3EA"/>
<path d="M13.6693 156.034C12.8652 156.034 12.222 155.393 12.222 154.591V151.384C12.222 150.582 12.8652 149.94 13.6693 149.94C14.4734 149.94 15.1166 150.582 15.1166 151.384V154.591C15.1166 155.393 14.4734 156.034 13.6693 156.034Z" fill="#5FC3EA"/>
<path d="M137.578 34.1576C136.774 34.1576 136.13 33.5161 136.13 32.7143V29.507C136.13 28.7052 136.774 28.0637 137.578 28.0637C138.382 28.0637 139.025 28.7052 139.025 29.507V32.7143C139.025 33.5161 138.382 34.1576 137.578 34.1576Z" fill="#5FC3EA"/>
<path d="M137.578 75.2108C136.774 75.2108 136.13 74.5693 136.13 73.7675V66.952C136.13 66.1502 136.774 65.5087 137.578 65.5087C138.382 65.5087 139.025 66.1502 139.025 66.952V73.7675C139.025 74.5693 138.382 75.2108 137.578 75.2108ZM137.578 61.5798C136.774 61.5798 136.13 60.9384 136.13 60.1365V53.3211C136.13 52.5192 136.774 51.8778 137.578 51.8778C138.382 51.8778 139.025 52.5192 139.025 53.3211V60.1365C139.025 60.9384 138.382 61.5798 137.578 61.5798ZM137.578 47.8687C136.774 47.8687 136.13 47.2272 136.13 46.4254V39.6099C136.13 38.8081 136.774 38.1667 137.578 38.1667C138.382 38.1667 139.025 38.8081 139.025 39.6099V46.4254C139.025 47.2272 138.382 47.8687 137.578 47.8687Z" fill="#5FC3EA"/>
<path d="M137.578 85.2335C136.774 85.2335 136.13 84.5921 136.13 83.7902V80.583C136.13 79.7811 136.774 79.1397 137.578 79.1397C138.382 79.1397 139.025 79.7811 139.025 80.583V83.7902C139.025 84.5921 138.382 85.2335 137.578 85.2335Z" fill="#5FC3EA"/>
<path d="M282.151 93.0914C280.542 93.0914 278.934 93.0112 277.326 92.7707C268.481 91.4877 260.682 86.8372 255.294 79.701C249.907 72.5648 247.656 63.7447 248.942 54.9247C251.596 36.7234 268.642 23.9744 286.895 26.6204C305.147 29.2665 317.932 46.1849 315.279 64.4664C312.866 81.0641 298.554 93.0914 282.151 93.0914ZM282.151 28.3844C266.793 28.3844 253.365 39.6099 251.113 55.1653C249.907 63.424 251.998 71.6828 257.063 78.3379C262.049 84.993 269.446 89.403 277.728 90.6057C294.855 93.0914 310.776 81.1443 313.268 64.1457C315.761 47.0669 303.78 31.1908 286.734 28.7052C285.126 28.4646 283.598 28.3844 282.151 28.3844Z" fill="#E3FCFF"/>
<path d="M282.231 82.4272C281.105 82.4272 280.06 82.347 278.934 82.1866C266.471 80.4226 257.787 68.8764 259.636 56.4482C260.521 50.4345 263.657 45.1425 268.562 41.4541C273.467 37.8459 279.417 36.3225 285.447 37.1243C291.478 38.0063 296.785 41.1334 300.484 46.0245C304.102 50.9156 305.63 56.8491 304.826 62.8627C303.941 68.8764 300.805 74.1684 295.9 77.8568C291.8 80.8235 287.055 82.4272 282.231 82.4272ZM282.151 39.7703C272.421 39.7703 263.818 46.9065 262.37 56.8491C260.762 67.7539 268.401 77.8568 279.256 79.3802C290.191 80.9839 300.323 73.3666 301.85 62.542C302.574 57.25 301.288 52.0382 298.071 47.7885C294.855 43.5389 290.191 40.7325 284.965 40.0109C284 39.7703 283.115 39.7703 282.151 39.7703Z" fill="#C0F8FF"/>
<path d="M282.151 71.0413C281.588 71.0413 281.025 71.0413 280.542 70.9611C274.271 70.0791 269.929 64.306 270.894 58.0518C271.778 51.7976 277.567 47.4678 283.839 48.43C290.111 49.312 294.453 55.0851 293.488 61.3393C292.604 66.952 287.779 71.0413 282.151 71.0413ZM282.151 51.7976C278.291 51.7976 274.914 54.604 274.351 58.5329C273.708 62.8627 276.763 66.7917 281.025 67.4331C285.367 68.0746 289.307 65.0277 289.95 60.778C290.593 56.4482 287.538 52.5192 283.276 51.8778C282.874 51.7976 282.553 51.7976 282.151 51.7976Z" fill="#83F1FF"/>
<path d="M282.151 171.349V65.3484C282.151 62.2213 279.578 59.6555 276.442 59.6555H78.5583C75.4224 59.6555 72.8494 62.2213 72.8494 65.3484V171.349H282.151Z" fill="#424242"/>
<path d="M276.203 165.435V65.6085L78.8821 65.6085L78.8821 165.435L276.203 165.435Z" fill="#EF5350"/>
<path d="M276.173 71.0314V65.579L78.8526 65.579V71.0314L276.173 71.0314Z" fill="#FAFAFA"/>
<path d="M195.069 202.299H159.931V222.666H195.069V202.299Z" fill="#E0E0E0"/>
<path d="M220.88 222.666H134.04C132.271 222.666 130.823 224.109 130.823 225.873C130.823 227.637 132.271 229.08 134.04 229.08H220.88C222.649 229.08 224.096 227.637 224.096 225.873C224.096 224.109 222.649 222.666 220.88 222.666Z" fill="#EEEEEE"/>
<path opacity="0.2" d="M195.069 202.299H159.931V208.313H195.069V202.299Z" fill="#212121"/>
<path d="M89.7593 71.06V65.6076H78.8239V71.06H89.7593Z" fill="#E0E0E0"/>
<path d="M216.377 153.95H138.542V165.416H216.377V153.95Z" fill="white"/>
<path d="M151.086 155.954H143.608V163.411H151.086V155.954Z" fill="white"/>
<path d="M161.137 155.954H153.659V163.411H161.137V155.954Z" fill="#EF5350"/>
<path d="M171.188 155.954H163.71V163.411H171.188V155.954Z" fill="#4DD0E1"/>
<path d="M181.239 155.954H173.761V163.411H181.239V155.954Z" fill="#FFCA28"/>
<path d="M191.29 155.954H183.812V163.411H191.29V155.954Z" fill="white"/>
<path d="M201.341 155.954H193.863V163.411H201.341V155.954Z" fill="#4DD0E1"/>
<path d="M211.392 155.954H203.914V163.411H211.392V155.954Z" fill="#FFCA28"/>
<path d="M270.17 76.8946H261.566V85.4741H270.17V76.8946Z" fill="#FAFAFA"/>
<path d="M270.17 90.8463H261.566V99.4258H270.17V90.8463Z" fill="#FAFAFA"/>
<path d="M151.086 80.9839H92.308V125.725H151.086V80.9839Z" fill="#EEEEEE"/>
<path d="M151.086 80.9839H92.308V86.5966H151.086V80.9839Z" fill="#FAFAFA"/>
<path d="M103.404 80.9839H92.308V86.5966H103.404V80.9839Z" fill="#E0E0E0"/>
<path d="M247.414 79.5406H167.891V137.512H247.414V79.5406Z" fill="#EEEEEE"/>
<path d="M247.414 79.5406H167.891V84.8326H247.414V79.5406Z" fill="#FAFAFA"/>
<path d="M178.264 79.5406H167.891V84.8326H178.264V79.5406Z" fill="#E0E0E0"/>
<path d="M72.8494 171.349V196.526C72.8494 199.653 75.4224 202.219 78.5583 202.219H276.442C279.578 202.219 282.151 199.653 282.151 196.526V171.349H72.8494Z" fill="#EEEEEE"/>
<path d="M177.46 191.795C180.213 191.795 182.445 189.57 182.445 186.824C182.445 184.079 180.213 181.853 177.46 181.853C174.707 181.853 172.475 184.079 172.475 186.824C172.475 189.57 174.707 191.795 177.46 191.795Z" fill="#BDBDBD"/>
<path opacity="0.2" d="M72.8494 165.095L109.274 145.13C120.531 138.956 127.527 127.169 127.527 114.34V59.6555H78.5583C75.4224 59.6555 72.8494 62.2213 72.8494 65.3484V165.095Z" fill="#424242"/>
<path d="M121.818 42.8974L72.8494 31.6719L23.8811 42.8974V114.34C23.8811 125.084 29.7508 135.027 39.1585 140.158L72.8494 158.68L106.54 140.158C115.948 134.946 121.818 125.084 121.818 114.34V42.8974Z" fill="#EEEEEE"/>
<path d="M42.0532 134.866C34.4949 130.697 29.8312 122.839 29.8312 114.259V47.6281L72.8494 37.7657L115.867 47.6281V114.259C115.867 122.839 111.204 130.777 103.646 134.866L72.8494 151.785L42.0532 134.866Z" fill="#BDBDBD"/>
<path d="M43.0985 132.942C36.2639 129.173 32.0023 122.037 32.0023 114.259V49.3922L72.8494 40.091L113.616 49.3922V114.259C113.616 122.037 109.354 129.173 102.52 132.942L72.8494 149.299L43.0985 132.942Z" fill="#039BE5"/>
<path d="M72.8494 40.091L32.0827 49.3922V57.3302L72.8494 47.9489L113.616 57.3302V49.3922L72.8494 40.091Z" fill="#0288D1"/>
<path opacity="0.2" d="M272.582 174.797C271.778 173.995 269.848 174.396 267.677 175.759L259.315 167.42C272.663 150.021 271.376 125.084 255.455 109.208C238.087 91.8886 210.025 91.8886 192.657 109.208C175.289 126.527 175.289 154.511 192.657 171.83C208.578 187.706 233.584 188.989 251.033 175.679L259.395 184.018C258.109 186.263 257.626 188.107 258.43 188.909L271.778 202.219H276.442C279.578 202.219 282.151 199.653 282.151 196.526V184.258L272.582 174.797Z" fill="#424242"/>
<path d="M240.339 138.875H207.854V116.424C207.854 110.892 212.357 106.482 217.824 106.482H230.368C235.916 106.482 240.339 110.972 240.339 116.424V138.875ZM212.276 134.385H235.836V116.424C235.836 113.377 233.343 110.892 230.288 110.892H217.744C214.689 110.892 212.196 113.377 212.196 116.424V134.385H212.276Z" fill="#F5F5F5"/>
<path d="M242.51 125.645H205.683C203.834 125.645 202.306 127.169 202.306 129.013V154.35C202.306 156.195 203.834 157.718 205.683 157.718H242.51C244.359 157.718 245.887 156.195 245.887 154.35V129.013C245.806 127.169 244.359 125.645 242.51 125.645Z" fill="#FFCA28"/>
<path d="M230.046 137.272C230.046 133.984 227.393 131.258 224.016 131.258C220.719 131.258 217.985 133.904 217.985 137.272C217.985 139.918 219.674 142.163 222.086 142.965V150.261C222.086 151.304 222.89 152.105 223.935 152.105C224.981 152.105 225.785 151.304 225.785 150.261V142.965C228.358 142.163 230.046 139.918 230.046 137.272Z" fill="#FFA000"/>
<path d="M228.76 125.645H205.683C203.834 125.645 202.306 127.169 202.306 129.013V152.025L228.76 125.645Z" fill="white" fill-opacity="0.28"/>
<path d="M192.657 100.789C175.289 118.108 175.289 146.092 192.657 163.411C208.578 179.287 233.584 180.57 251.033 167.26L264.943 181.131L273.306 172.792L259.395 158.921C272.743 141.521 271.456 116.585 255.536 100.709C238.087 83.4695 210.025 83.4695 192.657 100.789ZM249.907 157.798C235.675 171.991 212.518 171.991 198.205 157.798C183.892 143.606 183.973 120.514 198.205 106.241C212.437 92.049 235.595 92.049 249.907 106.241C264.139 120.514 264.139 143.606 249.907 157.798Z" fill="#F5F5F5"/>
<path d="M255.455 163.411C254.008 164.854 252.561 166.137 251.033 167.26L254.249 170.467C255.777 169.264 257.305 167.981 258.672 166.618C260.119 165.175 261.405 163.732 262.531 162.208L259.315 159.001C258.189 160.444 256.903 161.968 255.455 163.411Z" fill="#757575"/>
<path d="M263.014 170.948C259.074 174.877 256.983 179.127 258.35 180.49L299.679 221.703C301.046 223.066 305.308 220.982 309.248 217.053C313.188 213.124 315.279 208.874 313.912 207.511L272.582 166.298C271.215 164.934 266.954 167.019 263.014 170.948Z" fill="#616161"/>
<path d="M260.521 178.084C259.958 178.646 259.958 179.447 260.521 180.009L300.242 219.619C300.805 220.18 301.609 220.18 302.172 219.619C302.735 219.057 302.735 218.256 302.172 217.694L262.451 178.084C261.888 177.523 261.084 177.523 260.521 178.084Z" fill="#757575"/>
<path d="M224.016 168.463C244.177 168.463 260.521 152.164 260.521 132.06C260.521 111.955 244.177 95.6572 224.016 95.6572C203.855 95.6572 187.511 111.955 187.511 132.06C187.511 152.164 203.855 168.463 224.016 168.463Z" fill="#E0F7FA" fill-opacity="0.67"/>
<path d="M260.601 132.06C260.601 133.583 260.521 135.107 260.28 136.63L228.599 168.222C227.071 168.382 225.544 168.543 224.016 168.543C222.327 168.543 220.639 168.462 218.95 168.222L260.199 127.089C260.441 128.692 260.601 130.376 260.601 132.06Z" fill="white" fill-opacity="0.24"/>
<path d="M234.228 97.1005L188.958 142.243C188.154 139.597 187.672 136.791 187.591 133.984L225.946 95.7374C228.84 95.8175 231.574 96.2986 234.228 97.1005Z" fill="white" fill-opacity="0.24"/>
<path d="M258.028 118.589L210.588 165.897C209.462 165.416 208.336 164.935 207.291 164.373L256.581 115.222C257.063 116.344 257.546 117.467 258.028 118.589Z" fill="white" fill-opacity="0.24"/>
<path d="M233.102 47.9489H229.564V44.4209C229.564 44.0199 229.242 43.6992 228.84 43.6992C228.438 43.6992 228.117 44.0199 228.117 44.4209V47.9489H224.579C224.177 47.9489 223.855 48.2696 223.855 48.6705C223.855 49.0714 224.177 49.3921 224.579 49.3921H228.117V52.9202C228.117 53.3211 228.438 53.6418 228.84 53.6418C229.242 53.6418 229.564 53.3211 229.564 52.9202V49.3921H233.102C233.504 49.3921 233.826 49.0714 233.826 48.6705C233.826 48.2696 233.504 47.9489 233.102 47.9489Z" fill="#119FEC" fill-opacity="0.25"/>
<path d="M27.017 7.21639H23.4791V3.68837C23.4791 3.28746 23.1574 2.96674 22.7554 2.96674C22.3533 2.96674 22.0317 3.28746 22.0317 3.68837V7.21639H18.4938C18.0917 7.21639 17.7701 7.53711 17.7701 7.93802C17.7701 8.33893 18.0917 8.65966 18.4938 8.65966H22.0317V12.1877C22.0317 12.5886 22.3533 12.9093 22.7554 12.9093C23.1574 12.9093 23.4791 12.5886 23.4791 12.1877V8.65966H27.017C27.419 8.65966 27.7407 8.33893 27.7407 7.93802C27.7407 7.53711 27.419 7.21639 27.017 7.21639Z" fill="#119FEC" fill-opacity="0.25"/>
<path d="M14.7146 64.8673H11.1767V61.3393C11.1767 60.9384 10.855 60.6176 10.453 60.6176C10.0509 60.6176 9.72931 60.9384 9.72931 61.3393V64.8673H6.11097C5.70893 64.8673 5.3873 65.188 5.3873 65.5889C5.3873 65.9898 5.70893 66.3106 6.11097 66.3106H9.64891V69.8386C9.64891 70.2395 9.97054 70.5602 10.3726 70.5602C10.7746 70.5602 11.0962 70.2395 11.0962 69.8386V66.3106H14.6342C15.0362 66.3106 15.3579 65.9898 15.3579 65.5889C15.5187 65.188 15.197 64.8673 14.7146 64.8673Z" fill="#119FEC" fill-opacity="0.25"/>
<path d="M102.6 212.001H100.51V209.917C100.51 209.676 100.349 209.516 100.108 209.516C99.8664 209.516 99.7056 209.676 99.7056 209.917V212.001H97.615C97.3737 212.001 97.2129 212.162 97.2129 212.402C97.2129 212.643 97.3737 212.803 97.615 212.803H99.7056V214.888C99.7056 215.128 99.8664 215.289 100.108 215.289C100.349 215.289 100.51 215.128 100.51 214.888V212.803H102.6C102.841 212.803 103.002 212.643 103.002 212.402C103.083 212.242 102.841 212.001 102.6 212.001Z" fill="#119FEC" fill-opacity="0.25"/>
<path d="M168.374 6.01365H166.283V4.0091C166.283 3.76855 166.122 3.60818 165.881 3.60818C165.64 3.60818 165.479 3.76855 165.479 4.0091V6.09383H163.388C163.147 6.09383 162.986 6.25419 162.986 6.49474C162.986 6.73529 163.147 6.89565 163.388 6.89565H165.479V8.98038C165.479 9.22093 165.64 9.38129 165.881 9.38129C166.122 9.38129 166.283 9.22093 166.283 8.98038V6.89565H168.374C168.615 6.89565 168.776 6.73529 168.776 6.49474C168.776 6.25419 168.615 6.01365 168.374 6.01365Z" fill="#119FEC" fill-opacity="0.25"/>
<path d="M76.0657 2.48564H73.9751V0.40091C73.9751 0.160364 73.8143 0 73.5731 0C73.3318 0 73.171 0.160364 73.171 0.40091V2.48564H71.0804C70.8392 2.48564 70.6784 2.64601 70.6784 2.88655C70.6784 3.1271 70.8392 3.28747 71.0804 3.28747H73.171V5.3722C73.171 5.61275 73.3318 5.77311 73.5731 5.77311C73.8143 5.85329 73.9751 5.61275 73.9751 5.3722V3.36765H76.0657C76.3069 3.36765 76.4677 3.20728 76.4677 2.96674C76.4677 2.64601 76.3069 2.48564 76.0657 2.48564Z" fill="#119FEC" fill-opacity="0.25"/>
<path d="M58.5368 181.372H56.4462V179.287C56.4462 179.047 56.2854 178.886 56.0442 178.886C55.8029 178.886 55.6421 179.047 55.6421 179.287V181.372H53.5515C53.3103 181.372 53.1495 181.532 53.1495 181.773C53.1495 182.013 53.3103 182.174 53.5515 182.174H55.6421V184.258C55.6421 184.499 55.8029 184.659 56.0442 184.659C56.2854 184.659 56.4462 184.499 56.4462 184.258V182.174H58.5368C58.778 182.174 58.9388 182.013 58.9388 181.773C58.9388 181.612 58.778 181.372 58.5368 181.372Z" fill="#119FEC" fill-opacity="0.25"/>
<path d="M325.088 193.56H322.998V191.475C322.998 191.234 322.837 191.074 322.596 191.074C322.354 191.074 322.194 191.234 322.194 191.475V193.56H320.103C319.862 193.56 319.701 193.72 319.701 193.96C319.701 194.201 319.862 194.361 320.103 194.361H322.194V196.446C322.194 196.687 322.354 196.847 322.596 196.847C322.837 196.847 322.998 196.687 322.998 196.446V194.361H325.088C325.33 194.361 325.49 194.201 325.49 193.96C325.49 193.72 325.33 193.56 325.088 193.56Z" fill="#119FEC" fill-opacity="0.25"/>
<path d="M300.886 158.199H298.795V156.114C298.795 155.874 298.634 155.714 298.393 155.714C298.152 155.714 297.991 155.874 297.991 156.114V158.199H295.9C295.659 158.199 295.498 158.36 295.498 158.6C295.498 158.841 295.659 159.001 295.9 159.001H297.991V161.086C297.991 161.326 298.152 161.487 298.393 161.487C298.634 161.487 298.795 161.326 298.795 161.086V159.001H300.886C301.127 159.001 301.288 158.841 301.288 158.6C301.368 158.36 301.127 158.199 300.886 158.199Z" fill="#119FEC" fill-opacity="0.25"/>
<path d="M44.3046 31.5917C45.9128 31.5917 47.2797 30.3088 47.2797 28.625V20.6068C47.2797 19.0031 45.9932 17.64 44.3046 17.64H31.1178C29.5096 17.64 28.1427 18.923 28.1427 20.6068V28.7052C28.1427 30.3088 29.4292 31.6719 31.1178 31.6719H44.3046V31.5917ZM43.6614 19.6446L37.7112 24.3753L31.761 19.6446H43.6614ZM30.2333 28.625V20.9275L37.7916 27.1015L45.2695 20.9275V28.625C45.2695 29.1061 44.8675 29.5872 44.3046 29.5872H31.1178C30.6353 29.5872 30.2333 29.1863 30.2333 28.625Z" fill="#59C5FF"/>
<path d="M168.856 48.6705C170.144 48.6705 171.188 47.6294 171.188 46.3452C171.188 45.061 170.144 44.02 168.856 44.02C167.568 44.02 166.524 45.061 166.524 46.3452C166.524 47.6294 167.568 48.6705 168.856 48.6705Z" fill="#FAFAFA"/>
<path d="M116.993 32.8746C117.659 32.8746 118.199 32.3362 118.199 31.6719C118.199 31.0077 117.659 30.4692 116.993 30.4692C116.327 30.4692 115.787 31.0077 115.787 31.6719C115.787 32.3362 116.327 32.8746 116.993 32.8746Z" fill="#FAFAFA"/>
<path d="M5.30692 90.8463C6.59475 90.8463 7.63874 89.8052 7.63874 88.521C7.63874 87.2368 6.59475 86.1957 5.30692 86.1957C4.01909 86.1957 2.9751 87.2368 2.9751 88.521C2.9751 89.8052 4.01909 90.8463 5.30692 90.8463Z" fill="#FAFAFA"/>
<path d="M32.0827 151.544C33.3705 151.544 34.4145 150.503 34.4145 149.219C34.4145 147.935 33.3705 146.894 32.0827 146.894C30.7948 146.894 29.7509 147.935 29.7509 149.219C29.7509 150.503 30.7948 151.544 32.0827 151.544Z" fill="#FAFAFA"/>
<path d="M308.444 93.1716C309.732 93.1716 310.776 92.1305 310.776 90.8463C310.776 89.5621 309.732 88.521 308.444 88.521C307.156 88.521 306.112 89.5621 306.112 90.8463C306.112 92.1305 307.156 93.1716 308.444 93.1716Z" fill="#FAFAFA"/>
<path d="M339.32 165.736C340.608 165.736 341.652 164.695 341.652 163.411C341.652 162.127 340.608 161.086 339.32 161.086C338.033 161.086 336.989 162.127 336.989 163.411C336.989 164.695 338.033 165.736 339.32 165.736Z" fill="#FAFAFA"/>
<path d="M230.931 214.808C232.219 214.808 233.263 213.767 233.263 212.482C233.263 211.198 232.219 210.157 230.931 210.157C229.643 210.157 228.599 211.198 228.599 212.482C228.599 213.767 229.643 214.808 230.931 214.808Z" fill="#FAFAFA"/>
<path d="M56.0442 212.482C57.332 212.482 58.376 211.441 58.376 210.157C58.376 208.873 57.332 207.832 56.0442 207.832C54.7563 207.832 53.7123 208.873 53.7123 210.157C53.7123 211.441 54.7563 212.482 56.0442 212.482Z" fill="#FAFAFA"/>
<path d="M197.562 24.6159C189.039 24.6159 182.043 31.5917 182.043 40.091C182.043 48.5903 189.039 55.5662 197.562 55.5662C206.085 55.5662 213.08 48.5903 213.08 40.091C213.08 31.5116 206.165 24.6159 197.562 24.6159ZM184.294 41.1334H188.315C188.395 42.8974 188.636 44.5812 189.039 46.1849H185.742C184.938 44.6614 184.455 42.9776 184.294 41.1334ZM198.687 31.8323V27.0214C200.456 27.5826 201.984 29.3466 203.11 31.8323H198.687ZM203.834 33.9972C204.236 35.5207 204.557 37.2045 204.638 39.0487H198.687V33.9972H203.834ZM196.516 26.9412V31.7521H192.094C193.22 29.2665 194.747 27.5025 196.516 26.9412ZM196.516 33.9972V39.0487H190.566C190.647 37.2847 190.888 35.6008 191.37 33.9972H196.516ZM188.395 38.9685H184.375C184.536 37.2045 185.018 35.4405 185.822 33.917H189.119C188.636 35.5207 188.476 37.2045 188.395 38.9685ZM190.566 41.1334H196.516V46.1849H191.37C190.888 44.6614 190.647 42.9776 190.566 41.1334ZM196.516 48.3498V53.1607C194.747 52.5994 193.22 50.8354 192.094 48.3498H196.516ZM198.687 53.1607V48.3498H203.11C201.984 50.8354 200.456 52.6796 198.687 53.1607ZM198.687 46.1849V41.1334H204.638C204.557 42.8974 204.316 44.5812 203.834 46.1849H198.687ZM206.809 41.1334H210.829C210.668 42.8974 210.186 44.6614 209.382 46.1849H206.085C206.487 44.6614 206.728 42.9776 206.809 41.1334ZM206.809 38.9685C206.728 37.2045 206.487 35.5207 206.085 33.917H209.382C210.186 35.4405 210.668 37.1243 210.829 38.9685H206.809ZM208.015 31.8323H205.442C204.959 30.4692 204.316 29.2665 203.592 28.2241C205.281 29.1061 206.809 30.3088 208.015 31.8323ZM191.612 28.2241C190.888 29.2665 190.245 30.4692 189.762 31.8323H187.189C188.395 30.3088 189.843 29.1061 191.612 28.2241ZM187.189 48.3498H189.762C190.245 49.7129 190.888 50.9156 191.612 51.958C189.843 51.076 188.395 49.8733 187.189 48.3498ZM203.592 51.958C204.316 50.9156 204.959 49.7129 205.442 48.3498H208.015C206.809 49.8733 205.281 51.076 203.592 51.958Z" fill="#59C5FF"/>
<path d="M352.105 100.468H298.875C297.267 100.468 296.061 101.751 296.061 103.275V115.542C296.061 117.146 297.348 118.349 298.875 118.349H352.105C353.713 118.349 354.92 117.066 354.92 115.542V103.275C355 101.751 353.713 100.468 352.105 100.468Z" fill="#F5F5F5"/>
<path d="M347.361 111.774C348.605 111.774 349.613 110.769 349.613 109.529C349.613 108.289 348.605 107.284 347.361 107.284C346.118 107.284 345.11 108.289 345.11 109.529C345.11 110.769 346.118 111.774 347.361 111.774Z" fill="#81C784"/>
<path d="M339.803 111.774C341.046 111.774 342.054 110.769 342.054 109.529C342.054 108.289 341.046 107.284 339.803 107.284C338.56 107.284 337.552 108.289 337.552 109.529C337.552 110.769 338.56 111.774 339.803 111.774Z" fill="#FFD54F"/>
<path d="M332.245 111.774C333.488 111.774 334.496 110.769 334.496 109.529C334.496 108.289 333.488 107.284 332.245 107.284C331.001 107.284 329.993 108.289 329.993 109.529C329.993 110.769 331.001 111.774 332.245 111.774Z" fill="#FFD54F"/>
<path d="M302.815 102.553C302.092 102.553 301.448 103.194 301.448 103.916V115.141C301.448 115.863 302.092 116.505 302.815 116.505C303.539 116.505 304.182 115.863 304.182 115.141V103.916C304.182 103.114 303.619 102.553 302.815 102.553Z" fill="#E0E0E0"/>
<path d="M308.444 102.553C307.72 102.553 307.077 103.194 307.077 103.916V115.141C307.077 115.863 307.72 116.505 308.444 116.505C309.168 116.505 309.811 115.863 309.811 115.141V103.916C309.811 103.114 309.168 102.553 308.444 102.553Z" fill="#E0E0E0"/>
<path d="M313.992 102.553C313.268 102.553 312.625 103.194 312.625 103.916V115.141C312.625 115.863 313.268 116.505 313.992 116.505C314.716 116.505 315.359 115.863 315.359 115.141V103.916C315.359 103.114 314.796 102.553 313.992 102.553Z" fill="#E0E0E0"/>
<path d="M319.621 102.553C318.897 102.553 318.254 103.194 318.254 103.916V115.141C318.254 115.863 318.897 116.505 319.621 116.505C320.344 116.505 320.988 115.863 320.988 115.141V103.916C320.988 103.114 320.344 102.553 319.621 102.553Z" fill="#E0E0E0"/>
<path d="M325.169 102.553C324.445 102.553 323.802 103.194 323.802 103.916V115.141C323.802 115.863 324.445 116.505 325.169 116.505C325.892 116.505 326.536 115.863 326.536 115.141V103.916C326.536 103.114 325.973 102.553 325.169 102.553Z" fill="#E0E0E0"/>
<path d="M352.105 123.4H298.875C297.267 123.4 296.061 124.683 296.061 126.207V138.474C296.061 140.078 297.348 141.281 298.875 141.281H352.105C353.713 141.281 354.92 139.998 354.92 138.474V126.207C355 124.683 353.713 123.4 352.105 123.4Z" fill="#F5F5F5"/>
<path d="M347.361 134.626C348.605 134.626 349.613 133.621 349.613 132.381C349.613 131.141 348.605 130.135 347.361 130.135C346.118 130.135 345.11 131.141 345.11 132.381C345.11 133.621 346.118 134.626 347.361 134.626Z" fill="#EF5350"/>
<path d="M339.803 134.626C341.046 134.626 342.054 133.621 342.054 132.381C342.054 131.141 341.046 130.135 339.803 130.135C338.56 130.135 337.552 131.141 337.552 132.381C337.552 133.621 338.56 134.626 339.803 134.626Z" fill="#EF5350"/>
<path d="M332.245 134.626C333.488 134.626 334.496 133.621 334.496 132.381C334.496 131.141 333.488 130.135 332.245 130.135C331.001 130.135 329.993 131.141 329.993 132.381C329.993 133.621 331.001 134.626 332.245 134.626Z" fill="#FFD54F"/>
<path d="M302.815 125.405C302.092 125.405 301.448 126.046 301.448 126.768V137.993C301.448 138.715 302.092 139.356 302.815 139.356C303.539 139.356 304.182 138.715 304.182 137.993V126.768C304.182 126.046 303.619 125.405 302.815 125.405Z" fill="#E0E0E0"/>
<path d="M308.444 125.405C307.72 125.405 307.077 126.046 307.077 126.768V137.993C307.077 138.715 307.72 139.356 308.444 139.356C309.168 139.356 309.811 138.715 309.811 137.993V126.768C309.811 126.046 309.168 125.405 308.444 125.405Z" fill="#E0E0E0"/>
<path d="M313.992 125.405C313.268 125.405 312.625 126.046 312.625 126.768V137.993C312.625 138.715 313.268 139.356 313.992 139.356C314.716 139.356 315.359 138.715 315.359 137.993V126.768C315.359 126.046 314.796 125.405 313.992 125.405Z" fill="#E0E0E0"/>
<path d="M319.621 125.405C318.897 125.405 318.254 126.046 318.254 126.768V137.993C318.254 138.715 318.897 139.356 319.621 139.356C320.344 139.356 320.988 138.715 320.988 137.993V126.768C320.988 126.046 320.344 125.405 319.621 125.405Z" fill="#E0E0E0"/>
<path d="M325.169 125.405C324.445 125.405 323.802 126.046 323.802 126.768V137.993C323.802 138.715 324.445 139.356 325.169 139.356C325.892 139.356 326.536 138.715 326.536 137.993V126.768C326.536 126.046 325.973 125.405 325.169 125.405Z" fill="#E0E0E0"/>
<path d="M27.1778 157.718C26.7758 156.836 25.9717 156.275 25.0068 156.275H7.23669V163.972H29.9117L27.1778 157.718Z" fill="#E0E0E0"/>
<path d="M56.205 163.972H0V195.885C0 197.088 0.964892 197.97 2.0906 197.97H56.1246C57.3307 197.97 58.2152 197.007 58.2152 195.885V166.137C58.2956 164.935 57.3307 163.972 56.205 163.972Z" fill="#119FEC" fill-opacity="0.17"/>
<path d="M19.9411 157.718C19.5391 156.836 18.735 156.275 17.7701 156.275H2.0906C0.884485 156.275 0 157.237 0 158.36V163.892H22.675L19.9411 157.718Z" fill="#D7EFFC"/>
<path d="M108.148 94.7752C88.6897 75.3712 57.0091 75.3712 37.5504 94.7752C57.0091 114.259 88.6093 114.259 108.148 94.7752Z" fill="white"/>
<path d="M72.8494 106.642C79.4218 106.642 84.7497 101.329 84.7497 94.7752C84.7497 88.2213 79.4218 82.9083 72.8494 82.9083C66.277 82.9083 60.949 88.2213 60.949 94.7752C60.949 101.329 66.277 106.642 72.8494 106.642Z" fill="#29B6F6"/>
<path d="M72.8494 101.911C76.8017 101.911 80.0057 98.7164 80.0057 94.7752C80.0057 90.834 76.8017 87.639 72.8494 87.639C68.8971 87.639 65.6931 90.834 65.6931 94.7752C65.6931 98.7164 68.8971 101.911 72.8494 101.911Z" fill="#424242"/>
<path d="M70.6139 90.9784C73.0945 88.5047 74.24 85.6363 73.1724 84.5716C72.1048 83.507 69.2283 84.6493 66.7476 87.123C64.267 89.5967 63.1215 92.4651 64.1891 93.5297C65.2567 94.5943 68.1332 93.4521 70.6139 90.9784Z" fill="white" fill-opacity="0.51"/>
<path d="M328.305 89.7238C330.658 89.7238 332.566 87.8211 332.566 85.4741C332.566 83.1271 330.658 81.2245 328.305 81.2245C325.951 81.2245 324.043 83.1271 324.043 85.4741C324.043 87.8211 325.951 89.7238 328.305 89.7238Z" fill="#59C5FF"/>
<path d="M335.702 78.0974C333.451 75.8523 330.476 74.6495 327.34 74.6495C326.616 74.6495 326.053 75.2108 326.053 75.9324C326.053 76.6541 326.616 77.2154 327.34 77.2154C329.832 77.2154 332.084 78.1775 333.853 79.9415C335.622 81.7056 336.587 83.9507 336.587 86.4363C336.587 86.8372 336.747 87.1579 336.989 87.3985C337.23 87.639 337.552 87.7994 337.954 87.7994C338.677 87.7994 339.24 87.2381 339.24 86.5165C339.16 83.3092 337.954 80.3425 335.702 78.0974Z" fill="#59C5FF"/>
<path d="M345.431 86.4363C345.431 76.4937 337.31 68.3953 327.34 68.3953C326.616 68.3953 326.053 68.9566 326.053 69.6782C326.053 70.3999 326.616 70.9611 327.34 70.9611C335.863 70.9611 342.778 77.8568 342.778 86.3561C342.778 86.757 342.939 87.0777 343.18 87.3183C343.421 87.5588 343.743 87.7192 344.145 87.7192C344.869 87.7192 345.431 87.1579 345.431 86.4363Z" fill="#59C5FF"/>
<path d="M156.473 18.1212C154.785 18.1212 153.177 18.7626 152.051 19.8852C149.96 11.7868 142.563 5.8533 133.798 5.8533C126.401 5.8533 120.049 10.103 116.993 16.1968C115.707 15.4752 114.179 15.1544 112.571 15.1544C107.344 15.1544 103.083 19.4041 103.083 24.6159H162.986C162.986 21.0077 160.092 18.1212 156.473 18.1212Z" fill="#D7F1FF"/>
</svg>
