<svg width="143" height="106" viewBox="0 0 143 106" fill="none" xmlns="http://www.w3.org/2000/svg">
<path d="M143 57.192H108.316C108.909 31.9143 116.078 29.0449 125.083 28.2259L128.556 27.7954V-7.62939e-06L124.553 0.214493C112.795 0.876045 99.7945 2.99577 91.1213 13.7027C83.5185 23.0887 80.1667 38.4229 80.1667 61.9623V105.581H143V57.192Z" fill="#C1EAFD" fill-opacity="0.42"/>
<path d="M62.833 105.581V57.192H28.612C29.2049 31.9143 36.1426 29.0449 45.1472 28.2259L48.3886 27.7954V-7.62939e-06L44.6171 0.214493C32.8586 0.876045 19.7423 2.99577 11.0692 13.7027C3.46707 23.0887 -0.000320435 38.4229 -0.000320435 61.9623V105.581H62.833Z" fill="#C1EAFD" fill-opacity="0.42"/>
</svg>
