<svg width="35" height="42" viewBox="0 0 35 42" fill="none" xmlns="http://www.w3.org/2000/svg">
<path d="M33.9927 8.4904C27.2092 8.24055 20.0107 3.17539 16.8653 0.328205C16.6647 0.146619 16.3573 0.153415 16.1628 0.341474C10.4964 5.8189 3.61751 7.97337 0.442314 8.44362C0.193846 8.48042 0.00623058 8.69365 0.00345114 8.94481C-0.225165 29.6036 10.9607 39.4593 16.8118 41.9186C16.9409 41.9729 17.0827 41.9655 17.2083 41.9035C29.3303 35.9174 34.0117 18.5803 34.4884 9.01137C34.5024 8.72871 34.2755 8.50081 33.9927 8.4904Z" fill="#142D51"/>
<rect x="8" y="13.7894" width="17" height="13.4211" rx="2" fill="#2196F3"/>
<rect x="10.6842" y="17.3684" width="11.6316" height="8.05263" fill="#119FEC"/>
<rect x="21.421" y="15.5789" width="1.78947" height="1.78947" rx="0.894737" fill="#C1EAFD"/>
</svg>
