<svg width="72" height="57" viewBox="0 0 72 57" fill="none" xmlns="http://www.w3.org/2000/svg">
<g filter="url(#filter0_d)">
<path d="M59.1649 30.4929L59.4382 29.7308C59.6038 29.2694 59.3691 28.7593 58.9147 28.5913C58.4576 28.4233 57.9574 28.6618 57.7917 29.1225L57.4895 29.9653C55.8182 29.7231 54.2813 30.3369 53.6435 31.6497C53.2842 32.3888 53.2541 33.2787 53.558 34.155C53.8555 35.0126 54.4384 35.7733 55.2063 36.3307L54.0343 39.5984C53.4265 39.2577 52.9422 38.7861 52.6992 38.2622C52.4945 37.8178 51.9724 37.6248 51.5345 37.8358C51.0965 38.0442 50.9083 38.574 51.1143 39.0177C51.4073 39.6506 51.8904 40.2313 52.4948 40.7029C52.7805 40.9259 53.0934 41.1234 53.4276 41.29L53.3831 41.414L53.1542 42.0521C53.1456 42.0762 53.1498 42.1007 53.1433 42.125C53.0255 42.5664 53.2471 43.0323 53.6777 43.1916C53.7769 43.2277 53.8782 43.245 53.9774 43.245C54.3353 43.245 54.6713 43.0214 54.8007 42.6604L54.9927 42.125L55.1027 41.8183C55.341 41.8529 55.5774 41.8764 55.8079 41.8764C56.5106 41.8764 57.1663 41.7167 57.7143 41.414C58.0464 41.2305 58.333 40.9892 58.5713 40.7029C58.7158 40.5294 58.8472 40.3437 58.9489 40.1342C59.3198 39.3697 59.3643 38.4865 59.0728 37.647C58.7797 36.8025 58.1774 36.0736 57.3549 35.539L58.5581 32.1844C59.1661 32.5251 59.6501 32.9969 59.8926 33.521C60.0979 33.9654 60.6186 34.1571 61.0579 33.948C61.4959 33.7397 61.6841 33.2099 61.4788 32.7659C61.0472 31.8336 60.2067 31.0119 59.1649 30.4929ZM55.2147 32.435C55.4569 31.9375 56.1069 31.6803 56.8678 31.6985L55.8451 34.5499C55.5584 34.259 55.3346 33.9233 55.2105 33.5648C55.0641 33.1433 55.0655 32.7423 55.2147 32.435ZM57.4202 38.2372C57.5557 38.6274 57.5406 39.0121 57.3777 39.3482C57.1356 39.8461 56.4852 40.1029 55.7245 40.0846L56.7287 37.2849C57.0514 37.5638 57.2986 37.887 57.4202 38.2372ZM67.8637 34.0978C67.7168 32.7824 67.3709 31.4846 66.8034 30.2498C65.4265 27.2539 62.9829 24.9816 59.9213 23.8512C56.8611 22.72 53.5484 22.8669 50.5963 24.2643C50.4278 24.344 50.2702 24.4395 50.1064 24.5263C47.5513 18.9005 42.1885 15.0166 35.999 15.0166C29.8092 15.0166 24.4464 18.9006 21.8913 24.5264C21.7274 24.4396 21.5697 24.3441 21.4011 24.2643C18.449 22.8676 15.1373 22.72 12.0764 23.8512C7.62006 25.4969 4.69183 29.5227 4.15247 34.0006C3.83487 35.9794 4.01082 38.0167 4.70505 39.9523C6.43258 44.7692 10.9315 47.7661 15.7131 47.7661C17.0393 47.7661 18.387 47.5356 19.7033 47.0495C21.606 46.3468 23.2197 45.1916 24.4714 43.748C27.3037 46.9678 31.4211 49 35.999 49C40.5767 49 44.6939 46.968 47.5262 43.7484C48.7779 45.1919 50.3915 46.3468 52.294 47.0495C53.6004 47.5321 54.9533 47.7717 56.3034 47.7717C57.9888 47.7717 59.6688 47.3974 61.242 46.653C64.0744 45.3129 66.2231 42.9333 67.292 39.9523C67.9752 38.0485 68.1598 36.046 67.8637 34.0978ZM19.2243 45.7135C14.8489 47.327 10.0852 45.7328 7.43855 42.125C7.27016 41.8954 7.10841 41.6595 6.95782 41.414C6.58761 40.8102 6.27129 40.1605 6.02233 39.4662C5.40975 37.7589 5.25561 35.9614 5.53767 34.2162C5.68899 33.2798 5.9601 32.3577 6.3662 31.4743C7.52883 28.9444 9.59304 27.0251 12.1787 26.07C13.3283 25.6454 14.5197 25.4343 15.7077 25.4343C17.1912 25.4343 18.6697 25.7638 20.0544 26.4189C20.3816 26.5737 20.697 26.7462 21.0026 26.9317C20.5456 28.5175 20.299 30.2024 20.299 31.9482C20.299 33.4583 20.4859 34.9217 20.8314 36.316C21.1296 37.8721 21.6539 39.3468 22.3703 40.7029C22.4975 40.9435 22.6296 41.181 22.7685 41.414C22.9125 41.6554 23.0631 41.8923 23.2193 42.125C23.3321 42.293 23.4486 42.4583 23.5676 42.6216C22.4457 43.9768 20.9777 45.0658 19.2243 45.7135ZM47.9977 40.7029C47.8556 40.9397 47.7156 41.1774 47.5605 41.4048C47.5584 41.408 47.556 41.4108 47.5538 41.414C47.4135 41.6195 47.262 41.8161 47.1116 42.0136C47.0837 42.0503 47.0577 42.0886 47.0295 42.125C46.9068 42.2829 46.7822 42.4384 46.6532 42.5908C44.074 45.6378 40.2587 47.5779 35.999 47.5779C31.7391 47.5779 27.9237 45.6376 25.3445 42.5904C25.2156 42.4381 25.0911 42.2828 24.9686 42.125C24.9402 42.0885 24.9143 42.0502 24.8863 42.0134C24.7359 41.816 24.5845 41.6194 24.4442 41.414C24.442 41.4107 24.4393 41.4076 24.4371 41.4042C24.2822 41.177 24.1423 40.9395 24.0004 40.7029C23.1528 39.2903 22.5328 37.7243 22.211 36.047C22.0415 35.1631 21.9465 34.2524 21.9465 33.3189C21.9465 31.5749 22.2718 29.9104 22.8391 28.3644C22.9273 28.1239 23.0119 27.882 23.1124 27.6479C23.1764 27.4987 23.2519 27.3563 23.3206 27.2099C23.3572 27.132 23.3934 27.054 23.4314 26.977C23.5003 26.8368 23.5594 26.6909 23.6327 26.5535C23.7454 26.3422 23.8756 26.1428 23.9983 25.9381C26.4658 21.8229 30.9146 19.0596 35.999 19.0596C41.0833 19.0596 45.5319 21.8228 47.9995 25.9378C48.1223 26.1425 48.2525 26.342 48.3652 26.5533C48.4392 26.692 48.4988 26.8391 48.5683 26.9805C48.6056 27.0563 48.6413 27.133 48.6773 27.2096C48.7461 27.356 48.8215 27.4985 48.8855 27.6476C48.9859 27.8814 49.0702 28.1228 49.1584 28.3628C49.726 29.9093 50.0516 31.5743 50.0516 33.3189C50.0516 34.2515 49.9566 35.1612 49.7874 36.0443C49.4657 37.7226 48.8457 39.2895 47.9977 40.7029ZM65.9754 39.4662C65.7283 40.1551 65.412 40.8049 65.0401 41.414C64.8912 41.6577 64.7343 41.8956 64.5669 42.125C63.5598 43.5049 62.2261 44.6183 60.6494 45.3643C58.1572 46.544 55.3597 46.6676 52.7731 45.7135C51.0199 45.0659 49.552 43.977 48.4301 42.6221C48.5492 42.4586 48.6658 42.2932 48.7787 42.125C48.935 41.8923 49.0855 41.6554 49.2295 41.414C49.3684 41.181 49.5005 40.9435 49.6277 40.7029C50.3448 39.3457 50.8693 37.8697 51.1673 36.3121C51.5122 34.919 51.6987 33.4569 51.6987 31.9482C51.6987 30.205 51.4527 28.5227 50.997 26.9389C52.586 25.9725 54.42 25.4392 56.3061 25.4392C57.4735 25.4392 58.6608 25.6423 59.8193 26.07C62.4047 27.0251 64.4685 28.9444 65.6312 31.4743C66.0497 32.3847 66.3282 33.3356 66.4761 34.3014C66.7393 36.0198 66.5777 37.7868 65.9754 39.4662ZM39.4599 28.5691C39.8698 28.9836 40.537 28.9829 40.9462 28.5653C41.3554 28.1476 41.354 27.4723 40.9421 27.0571C39.9928 26.0979 38.5808 25.465 37.0535 25.3026V24.0928C37.0535 23.5036 36.5831 23.0262 36.0024 23.0262C35.4218 23.0262 34.9513 23.5036 34.9513 24.0928V25.3761C32.6918 25.7898 30.9837 27.2702 30.774 29.2211C30.6594 30.2863 31.0135 31.3882 31.7707 32.3246C32.5546 33.2936 33.6817 33.9819 34.9513 34.3019V39.1771C33.9813 39.034 33.1102 38.6471 32.5378 38.0685C32.1265 37.6539 31.461 37.6546 31.0515 38.0719C30.6419 38.4893 30.6433 39.1649 31.0549 39.5808C32.0056 40.5408 33.4205 41.1746 34.9513 41.3365V42.5451C34.9513 43.1339 35.4218 43.6117 36.0024 43.6117C36.5831 43.6117 37.0535 43.1339 37.0535 42.5451V41.2605C39.3094 40.844 41.0139 39.3656 41.224 37.4164C41.3424 36.3152 41.0085 35.2146 40.2831 34.3188C39.5143 33.3692 38.3837 32.7276 37.0535 32.4639V27.4622C38.0202 27.606 38.8885 27.9921 39.4599 28.5691ZM34.9513 32.0544C34.3325 31.8111 33.7811 31.4477 33.3956 30.9713C33 30.4821 32.8112 29.9429 32.8639 29.4527C32.9571 28.5863 33.8084 27.8906 34.9513 27.5767V32.0544ZM38.6586 35.6722C39.0267 36.1277 39.1916 36.6512 39.1342 37.1852C39.0413 38.0502 38.1943 38.7465 37.0535 39.0612V34.6632C37.7194 34.8632 38.2782 35.2023 38.6586 35.6722ZM18.9403 35.4257C18.1807 34.9692 17.2579 34.8034 16.2891 34.9309L15.0858 31.5765C15.7677 31.4409 16.4374 31.486 16.9545 31.7299C17.3955 31.9368 17.9145 31.7427 18.1178 31.2973C18.321 30.8518 18.1301 30.3234 17.6915 30.1168C16.7715 29.6852 15.6077 29.6083 14.4806 29.8891L14.2056 29.1225C14.0397 28.6614 13.537 28.424 13.0827 28.5913C12.6283 28.7593 12.3939 29.2694 12.5592 29.7308L12.8601 30.5698C11.4252 31.4743 10.6383 32.9503 10.9818 34.3723C11.1752 35.1729 11.7158 35.8742 12.5037 36.3478C13.1723 36.7485 13.9582 36.9547 14.7684 36.9547C14.8922 36.9547 15.017 36.9394 15.1415 36.9297L16.317 40.2071C15.6364 40.3425 14.9658 40.2972 14.4478 40.053C14.0078 39.8481 13.4888 40.0412 13.2849 40.4863C13.2528 40.5566 13.2469 40.6301 13.2339 40.7029C13.1881 40.959 13.2473 41.2153 13.405 41.414C13.4868 41.5169 13.5853 41.6072 13.7115 41.6667C14.2751 41.9313 14.9296 42.0653 15.6105 42.0653C16.0428 42.0653 16.4854 42.0051 16.9226 41.8954L17.005 42.125L17.197 42.6604C17.3267 43.0214 17.6627 43.245 18.0203 43.245C18.1198 43.245 18.2211 43.2277 18.32 43.1916C18.7506 43.0323 18.9719 42.5658 18.8543 42.125C18.8478 42.1007 18.8521 42.0762 18.8435 42.0521L18.6146 41.414L18.5425 41.2131C18.7879 41.0584 19.0148 40.8879 19.2197 40.7029C20.2134 39.8059 20.7056 38.5897 20.4208 37.4109C20.221 36.5839 19.6951 35.8791 18.9403 35.4257ZM13.3957 34.8174C13.0166 34.5896 12.7634 34.2813 12.683 33.9487C12.5528 33.4098 12.8887 32.7887 13.4831 32.3065L14.5058 35.1578C14.1021 35.1219 13.7179 35.0109 13.3957 34.8174ZM17.9197 39.4767L16.9156 36.6776C17.3393 36.6809 17.7335 36.7667 18.0483 36.9554C18.3994 37.1665 18.6313 37.4699 18.7196 37.8345C18.8498 38.3736 18.5141 38.9945 17.9197 39.4767ZM35.1242 9.70215V0.888799C35.1242 0.397876 35.5163 0 36.0001 0C36.4839 0 36.876 0.397876 36.876 0.888799V9.70215C36.876 10.1931 36.4839 10.5909 36.0001 10.5909C35.5163 10.5909 35.1242 10.1931 35.1242 9.70215ZM15.1257 9.46745C14.8168 9.08936 14.8681 8.52935 15.2404 8.21584C15.6126 7.90198 16.1649 7.95441 16.4738 8.33214L21.8377 14.8926C22.1467 15.2707 22.0954 15.8307 21.7231 16.1442C21.5596 16.282 21.3611 16.349 21.164 16.349C20.9126 16.349 20.6628 16.2397 20.4897 16.0279L15.1257 9.46745ZM50.2775 16.1442C49.9052 15.831 49.8539 15.2707 50.1625 14.8926L55.5261 8.33214C55.834 7.95475 56.387 7.90198 56.7592 8.21584C57.1315 8.529 57.1828 9.08936 56.8742 9.46745L51.5106 16.0279C51.3375 16.2397 51.0877 16.349 50.8359 16.349C50.6388 16.349 50.441 16.282 50.2775 16.1442Z" fill="url(#paint0_linear)"/>
</g>
<defs>
<filter id="filter0_d" x="0" y="0" width="72" height="57" filterUnits="userSpaceOnUse" color-interpolation-filters="sRGB">
<feFlood flood-opacity="0" result="BackgroundImageFix"/>
<feColorMatrix in="SourceAlpha" type="matrix" values="0 0 0 0 0 0 0 0 0 0 0 0 0 0 0 0 0 0 127 0"/>
<feOffset dy="4"/>
<feGaussianBlur stdDeviation="2"/>
<feColorMatrix type="matrix" values="0 0 0 0 0 0 0 0 0 0 0 0 0 0 0 0 0 0 0.25 0"/>
<feBlend mode="normal" in2="BackgroundImageFix" result="effect1_dropShadow"/>
<feBlend mode="normal" in="SourceGraphic" in2="effect1_dropShadow" result="shape"/>
</filter>
<linearGradient id="paint0_linear" x1="10.4" y1="-2.79513e-05" x2="132.486" y2="6.49697" gradientUnits="userSpaceOnUse">
<stop stop-color="#15DAE8"/>
<stop offset="1" stop-color="#375AAB" stop-opacity="0"/>
</linearGradient>
</defs>
</svg>
